<?xml version="1.0" standalone="no"?>
<!DOCTYPE svg PUBLIC "-//W3C//DTD SVG 1.1//EN" "http://www.w3.org/Graphics/SVG/1.1/DTD/svg11.dtd" >
<svg>
<metadata>
Created by FontForge 20090914 at Thu Feb  2 01:19:31 2017
 By www-data
Copyright (c) 1997 The Font Bureau, Inc. All rights reserved. Designed by David Berlow.
</metadata>
<defs>
<font id="BerlinSansFBDemi-Bold" horiz-adv-x="758" >
  <font-face 
    font-family="Berlin Sans FB Demi"
    font-weight="700"
    font-stretch="normal"
    units-per-em="2048"
    panose-1="2 14 8 2 2 5 2 2 3 6"
    ascent="1638"
    descent="-410"
    x-height="952"
    cap-height="1403"
    bbox="-130 -418.998 2470 1893"
    underline-thickness="120"
    underline-position="-200"
    unicode-range="U+0020-U+F002"
  />
<missing-glyph horiz-adv-x="1024" 
d="M128 0v1633h768v-1633h-768zM256 128h512v1377h-512v-1377z" />
    <glyph glyph-name=".notdef" horiz-adv-x="1024" 
d="M128 0v1633h768v-1633h-768zM256 128h512v1377h-512v-1377z" />
    <glyph glyph-name="space" unicode=" " horiz-adv-x="512" 
 />
    <glyph glyph-name="exclam" unicode="!" horiz-adv-x="573" 
d="M485 1161c0 -121.333 -11 -235.333 -33 -342l-79 -327c-6 -24.667 -32.667 -37 -80 -37c-54 0 -84 10.667 -90 32c-62.667 214 -94 335.667 -94 365c0 27.333 1.33301 68 4 122s4 94.667 4 122c0 30 -1 75 -3 135s-3 105 -3 135c0 24.667 6 37 18 37
c18.667 0 46.667 -1.33301 84 -4s65.333 -4 84 -4s46.667 1.33301 84 4s65.333 4 84 4c13.333 0 20 -80.667 20 -242zM485 170c0 -56 -17.333 -102.501 -52 -139.501s-80 -55.5 -136 -55.5c-56.667 0 -102.167 18.333 -136.5 55s-51.5 83.334 -51.5 140.001
c0 56 17.333 102 52 138s80 54 136 54c55.333 0 100.5 -18 135.5 -54s52.5 -82 52.5 -138z" />
    <glyph glyph-name="quotedbl" unicode="&#x22;" horiz-adv-x="801" 
d="M733 1269c0 -120.667 -23.001 -237 -69.001 -349c-6 -14 -30 -21 -72 -21c-6.66699 0 -16.834 0.666992 -30.501 2s-24.167 2 -31.5 2c-10 0 -16.833 4.5 -20.5 13.5s-14.167 41.167 -31.5 96.5c-18 58.667 -27 91.667 -27 99c0 30 0.333008 74.833 1 134.5
s1 104.167 1 133.5c0 16.667 3.33301 25 10 25c14.667 0 36.834 0.666992 66.501 2s51.834 2 66.501 2c14 0 35.167 -0.666992 63.5 -2s49.5 -2 63.5 -2c6.66699 0 10 -8.33301 10 -25v-111zM349.999 1112c0 -8 -8.66797 -40.667 -26.001 -98
c-16 -54 -26.333 -86.667 -31 -98s-32 -17 -82 -17c-43.333 0 -68 7 -74 21c-46 110.667 -69 227 -69 349v111c0 16.667 3.33301 25 10 25c14 0 35.333 0.666992 64 2s50.334 2 65.001 2s36.5 -0.666992 65.5 -2s50.833 -2 65.5 -2c6.66699 0 10 -8.33301 10 -25
c0 -29.333 0.333008 -73.833 1 -133.5s1 -104.5 1 -134.5z" />
    <glyph glyph-name="numbersign" unicode="#" horiz-adv-x="1454" 
d="M1323 773c-2 0 -4.66895 0.333008 -8.00195 1c-27.333 4.66699 -118.333 9.33398 -273 14.001l-67 -247c139.333 2.66699 239 4 299 4c14.667 0 22 -7.66699 22 -23c0 -59.333 -6 -109.666 -18 -150.999c-3.33301 -12 -9.33301 -18 -18 -18
c0.666992 0 -2.33301 0.333008 -9 1c-26.667 4.66699 -134.334 9.66699 -323.001 15l-78 -315c-6.66699 -31.333 -18.334 -78 -35.001 -140c-5.33301 -16 -14.333 -24 -27 -24c-4 0 -9 1.33301 -15 4s-23.333 12 -52 28l-49 16c-20.667 8 -31 18 -31 30
c0 -0.666992 39 133.666 117 402.999h-80c-65.333 0 -115.333 -0.666992 -150 -2c-23.333 -100 -60.666 -249 -111.999 -447c-4.66699 -15.333 -13 -23 -25 -23c-4.66699 0 -10.167 1.5 -16.5 4.5s-23.833 12.5 -52.5 28.5c-16.667 4.66699 -40 13.667 -70 27
c-7.33301 4.66699 -11 11 -11 19c0 2.66699 37.667 131.667 113 387c-24 -0.666992 -66 -2.66699 -126 -6c-54 -3.33301 -96 -5 -126 -5c-14.667 0 -22 8 -22 24c0 10 2 24 6 42c4.66699 21.333 7.33398 35.666 8.00098 42.999c0 16.667 1.33301 39 4 67
c4 12.667 13 19 27 19c34.667 0 82 -1.33301 142 -4c70 -2.66699 117.667 -4 143 -4l61 245c-30.667 0 -81.667 -2 -153 -6c-65.333 -4 -116 -6 -152 -6c-14 0 -21 8.66699 -21 26c0 9.33301 1.66699 22 5 38c4.66699 19.333 7.33398 32.333 8.00098 39
c0.666992 20 2 42.333 4 67c4 12.667 12.667 19 26 19c41.333 0 96.333 -1.33301 165 -4c81.333 -2.66699 136.333 -4.33398 165 -5.00098l85 322c6 30.667 16.667 76.334 32 137.001c4 14.667 12.667 22 26 22c4.66699 0 9.66699 -1 15 -3c12.667 -8 32.334 -19 59.001 -33
c16 -4 37.333 -11.667 64 -23c5.33301 -3.33301 8 -9.33301 8 -18c0 -14 -39 -149.333 -117 -406h230l83 316c6 30.667 16.333 75.667 31 135c4.66699 16 13.667 24 27 24c4 0 8.66699 -1.33301 14 -4l60 -32c16.667 -5.33301 37 -13 61 -23c6.66699 -4.66699 10 -11 10 -19
c0 0.666992 -38.667 -131 -116 -395c112 2.66699 194.333 4 247 4c14.667 0 22 -7 22 -21c0 -56 -6 -104.667 -18 -146c-3.33301 -12 -9.33301 -18 -18 -18zM871.998 788c-28.667 1.33301 -57.999 2 -87.999 2l-141 1c-24.667 -86.667 -47.334 -170.667 -68.001 -252h234
c15.333 54.667 36.333 137.667 63 249z" />
    <glyph glyph-name="dollar" unicode="$" horiz-adv-x="995" 
d="M844 868c-0.666992 0 -30.9971 14.332 -90.9971 42.999s-109 43 -147 43c-74.667 0 -112 -34.667 -112 -104c0 -39.333 34.667 -80.333 104 -123c110.667 -67.333 175 -108.666 193 -123.999c69.333 -60.667 104 -133.334 104 -218.001c0 -180 -111.333 -300 -334 -360
c5.33301 -106 8 -164.667 8 -176c0 -6.66699 -7.33301 -10.667 -22 -12c-10 -1.33301 -24.333 -1.33301 -43 0c-21.333 2 -31.666 3 -30.999 3c-8.66699 0 -21.334 -1.16699 -38.001 -3.5s-29 -3.5 -37 -3.5c-5.33301 0 -10.333 1 -15 3c-4 6 -6 22.333 -6 49
c0 21.333 1.33301 54.333 4 99c-178.667 0 -269.334 12.333 -272.001 37c-0.666992 4.66699 -0.333984 11 0.999023 19c0.666992 10.667 1 17.334 1 20.001c0 26.667 -2.33301 58.667 -7 96c-1.33301 11.333 -6.33301 32.333 -15 63c-8 28 -12 49 -12 63s7.66699 21 23 21
c16.667 0 46.167 -4.83301 88.5 -14.5s75.166 -14.5 98.499 -14.5c117.333 0 176 36.333 176 109c0 38 -33.667 80.667 -101 128c-110 76.667 -173 123 -189 139c-67.333 64 -101 135.667 -101 215c0 88.667 32.333 167 97 235c61.333 64.667 136.666 105.667 225.999 123
c0 -6 -1 10 -3 48c-1.33301 28.667 -1 51 1 67c2.66699 22.667 9 34 19 34h172c8 0 13 -10 15 -30c2 -14.667 2.33301 -35 1 -61c-1.33301 -35.333 -2 -50.666 -2 -45.999c39.333 -2.66699 102.333 -17.667 189 -45c99.333 -31.333 149 -58.333 149 -81
c0 -4.66699 -2 -13.334 -6 -26.001c-9.33301 -20 -21.666 -50.667 -36.999 -92c-4.66699 -22.667 -13 -56 -25 -100c-4.66699 -15.333 -12.667 -23 -24 -23z" />
    <glyph glyph-name="percent" unicode="%" horiz-adv-x="1645" 
d="M1614 379c0 -108 -34.666 -201.331 -103.999 -279.998c-72.667 -82.667 -162.334 -124 -269.001 -124c-106 0 -195 41.333 -267 124c-69.333 79.333 -104 172.666 -104 279.999c0 108 34.667 201.667 104 281c71.333 82.667 160.333 124 267 124
c107.333 0 197 -41.333 269 -124c69.333 -78.667 104 -172.334 104 -281.001zM582.001 -43.998c-9.33301 0 -30.165 9.5 -62.498 28.5s-48.5 32.5 -48.5 40.5c0 10.667 105 215.334 315 614.001c17.333 31.333 57 124.666 119 279.999c31.333 74 75.666 186 132.999 336
c7.33301 21.333 14 32 20 32c12 0 31 -8.83301 57 -26.5s39 -32.167 39 -43.5c0 -2 -46 -96.667 -138 -284c-97.333 -196.667 -150 -303.667 -158 -321c-90.667 -200 -175.334 -407.333 -254.001 -622c-8 -22.667 -15.333 -34 -22 -34zM774.002 877.002
c0 -108 -34.333 -201.335 -103 -280.002c-72 -82.667 -161.333 -124 -268 -124c-106 0 -195.333 41 -268 123c-69.333 78.667 -104 172.334 -104 281.001c0 108 34.667 201.667 104 281c72.667 82.667 162 124 268 124s195.333 -41.667 268 -125
c68.667 -79.333 103 -172.666 103 -279.999zM1362 379c0 40 -10 75 -30 105c-22 34 -52.333 51 -91 51c-38 0 -68.333 -17.333 -91 -52c-20 -30 -30 -64.667 -30 -104c0 -37.333 10.667 -71.333 32 -102c23.333 -34.667 53 -52 89 -52c38 0 68.333 16.667 91 50
c20 29.333 30 64 30 104zM524.002 877c0 39.333 -10.001 74 -30.001 104c-22.667 34 -53 51 -91 51c-37.333 0 -67.666 -17 -90.999 -51c-20.667 -30 -31 -64.667 -31 -104c0 -38 10.667 -72.333 32 -103c24 -34 54 -51 90 -51c38 0 68.333 16.667 91 50
c20 30 30 64.667 30 104z" />
    <glyph glyph-name="ampersand" unicode="&#x26;" horiz-adv-x="1430" 
d="M1370 45c0 -30 -17 -45.0029 -51 -45.0029c-21.333 0 -53.333 -1 -96 -3s-75 -3 -97 -3c-81.333 0 -176.666 62 -285.999 186c-34 -32.667 -88 -79 -162 -139c-74.667 -50.667 -164 -76 -268 -76c-106.667 0 -191 37.333 -253 112c-58 69.333 -87 158.333 -87 267
c0 112.667 33.333 206.334 100 281.001c37.333 41.333 118 102 242 182c-41.333 103.333 -62 184.666 -62 243.999c0 112 31.667 201 95 267s151.333 99 264 99c96.667 0 172.667 -26 228 -78c56.667 -54 85 -129 85 -225c0 -64 -24 -124 -72 -180
c-20 -23.333 -48.333 -48.666 -85 -75.999c-48 -35.333 -77.667 -57.666 -89 -66.999c16 -24 41.333 -59 76 -105l82 -100c52.667 67.333 99.334 115.333 140.001 144c55.333 38.667 118.666 58 189.999 58c38.667 0 62.334 -2 71.001 -6c14.667 -7.33301 22 -27.333 22 -60
c0 -78 -5.33301 -137 -16 -177c-4 -16 -20.667 -27 -50 -33c-46.667 -10 -78.334 -19 -95.001 -27c-42 -19.333 -77.333 -52.666 -106 -99.999c41.333 -68 110.666 -102 207.999 -102c48 0 72 -9 72 -27v-211zM823 1139c0 62.667 -36.667 93.998 -110 93.998
c-36 0 -66.5 -10.667 -91.5 -32s-37.5 -49.666 -37.5 -84.999c0 -58 21 -114 63 -168c117.333 64.667 176 128.334 176 191.001zM717 359.995c-30 27.333 -63.335 66 -100.002 116c-57.333 77.333 -87.666 118 -90.999 122c-38.667 -20.667 -72 -51.334 -100 -92.001
c-30 -42.667 -45 -85 -45 -127c0 -43.333 12.333 -78.666 37 -105.999c25.333 -29.333 59.333 -44 102 -44c38.667 0 77.834 13 117.501 39s66.167 56.667 79.5 92z" />
    <glyph glyph-name="quotesingle" unicode="'" horiz-adv-x="475" 
d="M401 1223c0 -110.667 -24.332 -231 -72.999 -361c-4.66699 -12 -12.334 -18.667 -23.001 -20c-16 -2.66699 -37.667 -4 -65 -4c-19.333 0 -38.666 1.33301 -57.999 4c-28.667 4 -54.334 66 -77.001 186c-18 95.333 -27 170.333 -27 225v123c0 15.333 4 24.333 12 27
c11.333 4 59 6 143 6c90.667 0 140.667 -2 150 -6c12 -5.33301 18 -65.333 18 -180z" />
    <glyph glyph-name="parenleft" unicode="(" horiz-adv-x="815" 
d="M787 1344c0 -10.667 -12.335 -23.668 -37.002 -39.001c-62 -40 -121 -113.333 -177 -220c-34 -66 -61.667 -155.333 -83 -268c-19.333 -102 -29 -196 -29 -282c0 -250 31.333 -435 94 -555c52 -100.667 117 -176.667 195 -228c20 -13.333 30 -25.666 30 -36.999
c0 -10.667 -9.33301 -35.5 -28 -74.5s-32 -58.5 -40 -58.5c-5.33301 0 -17.333 3.33301 -36 10c-136 53.333 -249.333 129.333 -340 228c-73.333 80 -132.666 191.667 -177.999 335c-41.333 131.333 -62 257 -62 377c0 114 23.667 237.333 71 370
c49.333 137.333 111 246.333 185 327c86.667 93.333 199.334 168.333 338.001 225c16 6.66699 27.333 10 34 10c8 0 20.5 -17.5 37.5 -52.5s25.5 -57.5 25.5 -67.5z" />
    <glyph glyph-name="parenright" unicode=")" horiz-adv-x="815" 
d="M719 532c0 -122.667 -19.6699 -248.665 -59.0029 -377.998c-45.333 -146 -105.666 -257.333 -180.999 -334c-89.333 -91.333 -202.666 -167.333 -339.999 -228c-17.333 -7.33301 -29 -11 -35 -11c-8.66699 0 -22.334 19.667 -41.001 59s-28 64.333 -28 75
c0 11.333 10.333 23.666 31 36.999c85.333 56.667 150 132.667 194 228c62.667 134.667 94 319.667 94 555c0 85.333 -9.33301 179.666 -28 282.999c-21.333 118.667 -49.333 207.667 -84 267c-65.333 113.333 -124 186.666 -176 219.999c-25.333 15.333 -38 28.333 -38 39
c0 10 8.5 32.5 25.5 67.5s29.5 52.5 37.5 52.5c6.66699 0 18 -3.33301 34 -10c124.667 -50.667 237.334 -125.667 338.001 -225c76.667 -75.333 139.334 -183.666 188.001 -324.999c45.333 -130.667 68 -254.667 68 -372z" />
    <glyph glyph-name="asterisk" unicode="*" horiz-adv-x="868" 
d="M820 1064c0 -25.333 -34.1729 -58.332 -102.506 -98.999s-102.5 -66.667 -102.5 -78c0 -3.33301 13.667 -34.333 41 -93s41 -103.334 41 -134.001c0 -44.667 -22.667 -67 -68 -67c-26 0 -62 26.667 -108 80s-76.333 80 -91 80c-11.333 0 -39.666 -25.667 -84.999 -77
s-78.666 -77 -99.999 -77c-48.667 0 -73 21 -73 63c0 30 12.333 74.5 37 133.5s37 87.833 37 86.5c0 12 -35.5 40 -106.5 84s-106.5 78.667 -106.5 104c0 14.667 5.33301 29.167 16 43.5s23 21.5 37 21.5c22.667 0 56.834 -1.5 102.501 -4.5s79.834 -4.5 102.501 -4.5
c21.333 0 34.333 11.667 39 35c8.66699 60.667 20.334 127 35.001 199c12.667 24.667 34.334 37 65.001 37s52 -12.333 64 -37c0 -0.666992 11.333 -67 34 -199c4 -23.333 17 -35 39 -35c118 0 183.667 -0.666992 197 -2c37.333 -3.33301 56 -23.333 56 -60z" />
    <glyph glyph-name="plus" unicode="+" horiz-adv-x="969" 
d="M893 465c-34 0 -80.999 1.33203 -140.999 3.99902c-68 2.66699 -115.333 4 -142 4c0.666992 -27.333 2.33398 -78 5.00098 -152c2 -63.333 3 -113.666 3 -150.999c0 -26 -50.333 -39 -151 -39c-97.333 0 -146 8.33301 -146 25c0 41.333 1 94.666 3 159.999
c2 90 3.33301 143 4 159c-174.667 -5.33301 -267 -8 -277 -8c-12 0 -18 10.333 -18 31c0 6.66699 3.33301 44.667 10 114c0.666992 40 2 81 4 123c6 10 15 15 27 15c32.667 0 75 -1 127 -3c69.333 -2 111.666 -3.33301 126.999 -4c-1.33301 58.667 -2 121.334 -2 188.001
v109c0 12.667 8.66699 19 26 19c24.667 0 61.167 0.666992 109.5 2s84.5 2 108.5 2c32.667 0 49 -5.66699 49 -17c0 -33.333 -1.16699 -84 -3.5 -152s-3.5 -119 -3.5 -153c142.667 2.66699 239.667 4 291 4c14 0 21 -6 21 -18c0 -7.33301 -3.66699 -48.333 -11 -123
c2 -28 0 -69.667 -6 -125c-2.66699 -9.33301 -7.33398 -14 -14.001 -14z" />
    <glyph glyph-name="comma" unicode="," horiz-adv-x="575" 
d="M523 337c0 -181.333 -67.001 -336.001 -201.001 -464.001c-21.333 -20 -54.666 -46.667 -99.999 -80c-55.333 -40 -91 -60 -107 -60c-10 0 -33.667 21.333 -71 64s-56 70.334 -56 83.001c0 7.33301 12.333 25 37 53c30.667 34 53.667 65.333 69 94
c24.667 46 37 96 37 150c0 8.66699 -1.16699 21.167 -3.5 37.5s-3.5 28.5 -3.5 36.5c0 16 5.66699 30 17 42c8 8 63.333 24.667 166 50c99.333 24 158 36 176 36c26.667 0 40 -14 40 -42z" />
    <glyph glyph-name="hyphen" unicode="-" horiz-adv-x="870" 
d="M799 770c0 -20.667 -4.66895 -47.666 -14.002 -80.999c-8 -26.667 -15.667 -53.667 -23 -81c-2.66699 -33.333 -9 -81.666 -19 -144.999c-2 -9.33301 -10 -14 -24 -14c-25.333 0 -63.5 0.333008 -114.5 1s-89.5 1 -115.5 1c-70 0 -164 -6.33301 -282 -19
c-6.66699 -0.666992 -24.667 -3.33398 -54 -8.00098c-23.333 -4 -41.666 -6 -54.999 -6c-17.333 0 -26 16.333 -26 49c0 17.333 11.333 65.666 34 144.999c22 75.333 38 124 48 146c4.66699 10.667 13.334 16 26.001 16c26 0 65 -1.33301 117 -4s91 -4 117 -4
c54.667 0 145 8 271 24c66 8.66699 97 13 93 13c14 0 21 -11 21 -33z" />
    <glyph glyph-name="hyphen" unicode="&#x2010;" horiz-adv-x="870" 
d="M799 770c0 -20.667 -4.66895 -47.666 -14.002 -80.999c-8 -26.667 -15.667 -53.667 -23 -81c-2.66699 -33.333 -9 -81.666 -19 -144.999c-2 -9.33301 -10 -14 -24 -14c-25.333 0 -63.5 0.333008 -114.5 1s-89.5 1 -115.5 1c-70 0 -164 -6.33301 -282 -19
c-6.66699 -0.666992 -24.667 -3.33398 -54 -8.00098c-23.333 -4 -41.666 -6 -54.999 -6c-17.333 0 -26 16.333 -26 49c0 17.333 11.333 65.666 34 144.999c22 75.333 38 124 48 146c4.66699 10.667 13.334 16 26.001 16c26 0 65 -1.33301 117 -4s91 -4 117 -4
c54.667 0 145 8 271 24c66 8.66699 97 13 93 13c14 0 21 -11 21 -33z" />
    <glyph glyph-name="period" unicode="." horiz-adv-x="575" 
d="M522 219c0 -66 -22.833 -122.333 -68.5 -169s-101.167 -70 -166.5 -70s-120.666 23.5 -165.999 70.5s-68 103.167 -68 168.5s22.667 121.333 68 168s100.666 70 165.999 70s120.833 -23.333 166.5 -70s68.5 -102.667 68.5 -168z" />
    <glyph glyph-name="slash" unicode="/" horiz-adv-x="678" 
d="M243 -133c-3.33301 0 -8.00195 1.33203 -14.002 3.99902c-54 19.333 -116.667 44 -188 74c-4.66699 2.66699 -7 8.33398 -7 17.001c0 6.66699 1 14 3 22c92.667 318.667 160.334 561 203.001 727l125 485c9.33301 44.667 25 111 47 199c4 14.667 11 22 21 22
c20.667 0 59.667 -11.333 117 -34c61.333 -24.667 92 -44.667 92 -60c0 -6 -30.333 -117.667 -91 -335l-107 -382l-119 -474c-11.333 -55.333 -31.666 -136.333 -60.999 -243c-4.66699 -14.667 -11.667 -22 -21 -22z" />
    <glyph glyph-name="zero" unicode="0" horiz-adv-x="1290" 
d="M1241 604c0 -172 -55.668 -319.667 -167.001 -443c-115.333 -128 -258.333 -192 -429 -192s-313.334 64 -428.001 192c-112 123.333 -168 271 -168 443c0 172.667 56 320 168 442c114.667 126 257.334 189 428.001 189s313.334 -63 428.001 -189
c112 -122.667 168 -270 168 -442zM869.999 604c0 68.667 -20 128.332 -60 178.999c-42.667 54 -97.667 81 -165 81c-68.667 0 -124 -26.667 -166 -80c-39.333 -49.333 -59 -109.333 -59 -180c0 -69.333 19.667 -129.666 59 -180.999c42.667 -55.333 98 -83 166 -83
c65.333 0 120 28.333 164 85c40.667 52 61 111.667 61 179z" />
    <glyph glyph-name="one" unicode="1" horiz-adv-x="659" 
d="M543 51c0 -12.667 -5.66797 -24.332 -17.001 -34.999s-23.666 -16 -36.999 -16c-32 0 -80 -0.333008 -144 -1s-112 -1 -144 -1c-24.667 0 -36.667 10.667 -36 32l1 11c9.33301 254.667 14 409 14 463v297c0 18.667 -4.33301 28 -13 28c-13.333 0 -33.5 -4 -60.5 -12
s-47.5 -12 -61.5 -12c-20.667 0 -31 12.333 -31 37c0 22.667 -0.333008 56.667 -1 102s-1 79.666 -1 102.999c0 13.333 8.33301 23.333 25 30c98 40.667 175 95.334 231 164.001c11.333 14 21 21 29 21c1.33301 0 5.33301 -0.666992 12 -2l113 -25
c26.667 -3.33301 65.667 -9.33301 117 -18c9.33301 -2.66699 14 -10 14 -22c0 -4 -0.666992 -11 -2 -21c-7.33301 -58.667 -11 -202.334 -11 -431.001c0 -76.667 0.5 -192 1.5 -346s1.5 -269.333 1.5 -346z" />
    <glyph glyph-name="two" unicode="2" horiz-adv-x="1059" 
d="M1042 285c0 -15.333 -1.66797 -38.333 -5.00098 -69s-5 -54 -5 -70s-0.333008 -41.167 -1 -75.5s-1 -59.833 -1 -76.5s-11 -25 -33 -25c-8 0 -39.333 6.33301 -94 19c-60.667 13.333 -174 20 -340 20c-51.333 0 -128.333 -2.83301 -231 -8.5s-179 -8.5 -229 -8.5
c-17.333 0 -27 8.33301 -29 25c-2 22.667 -7 56.334 -15 101.001c-16.667 68 -25 107 -25 117c0 14.667 28 25.667 84 33c65.333 8.66699 107.333 20.667 126 36c67.333 56.667 136.333 128.334 207 215.001c90 109.333 135 191.333 135 246
c0 47.333 -17.167 87.166 -51.5 119.499s-75.166 48.5 -122.499 48.5c-53.333 0 -106.333 -10.667 -159 -32c-35.333 -13.333 -72.333 -32.666 -111 -57.999c-32.667 -20.667 -50.667 -31 -54 -31c-22.667 0 -34 26.667 -34 80c0 41.333 -1.66699 71.333 -5 90
c-1.33301 8.66699 -6.33301 26.667 -15 54c-8 23.333 -12 40.666 -12 51.999c0 8.66699 5.66699 17 17 25c55.333 39.333 129.333 70.333 222 93c82.667 20 163 30 241 30c126.667 0 232.667 -28 318 -84c100.667 -65.333 151 -158.333 151 -279
c0 -160.667 -121.667 -348.334 -365 -563.001c172.667 8.66699 308 13 406 13c20 0 30 -12.333 30 -37z" />
    <glyph glyph-name="three" unicode="3" horiz-adv-x="997" 
d="M965 342c0 -123.333 -50.9971 -218.332 -152.997 -284.999c-86.667 -57.333 -195 -86 -325 -86c-100 0 -182.333 7 -247 21c-140.667 29.333 -211 55.333 -211 78c0 4 1.33301 10 4 18l41 111c5.33301 24.667 14.666 61.334 27.999 110.001c6 16.667 16 25 30 25
c-2 0 27.833 -11 89.5 -33s112.167 -33 151.5 -33c130.667 0 196 43.667 196 131c0 70 -62 105 -186 105c-16.667 0 -38.667 -0.666992 -66 -2s-45.333 -2 -54 -2c-40.667 0 -63 0.333008 -67 1c-29.333 3.33301 -44 14.666 -44 33.999c0 102 4 166 12 192
c5.33301 16.667 16 25 32 25c22.667 0 56.167 -2.83301 100.5 -8.5s77.5 -8.5 99.5 -8.5c28.667 0 52.5 9.5 71.5 28.5s28.5 43.167 28.5 72.5c0 78.667 -57.333 118 -172 118c-48 0 -113 -13 -195 -39c-3.33301 -0.666992 -6.33301 -1 -9 -1c-8.66699 0 -16 9.33301 -22 28
c-1.33301 28 -3.33301 60 -6 96c-0.666992 8 -2.66699 24 -6 48c-2.66699 19.333 -4 35 -4 47c0 35.333 54.667 62.666 164 81.999c75.333 13.333 148.333 20 219 20c113.333 0 212.666 -25 297.999 -75c103.333 -60 155 -143 155 -249c0 -122 -55.333 -214.667 -166 -278
c65.333 -22 117.166 -59 155.499 -111s57.5 -112 57.5 -180z" />
    <glyph glyph-name="four" unicode="4" horiz-adv-x="1130" 
d="M1092 225c0 -10 -8.33203 -16.666 -24.999 -19.999c-12 -2 -28.667 -2.33301 -50 -1c-30 2 -42.667 3 -38 3c-26 0 -39 -13 -39 -39c0 -16 1 -40.167 3 -72.5s3 -56.5 3 -72.5c0 -23.333 -10.333 -35 -31 -35c-230 0 -351 2.83301 -363 8.5s-18 12.834 -18 21.501
c0 10 4.16699 34.667 12.5 74s12.5 68 12.5 86c0 22 -12.333 33 -37 33c-44.667 0 -111.5 -1.33301 -200.5 -4s-155.833 -4 -200.5 -4c-53.333 0 -80 21 -80 63c0 21.333 -0.333008 53.166 -1 95.499s-1 74.166 -1 95.499c0 20 10.333 41 31 63
c97.333 104 168.333 187.333 213 250c21.333 30 93.666 147 216.999 351c16 30.667 42 72.667 78 126c9.33301 11.333 19.333 17 30 17c16 0 65.5 -12 148.5 -36s139.5 -36 169.5 -36c21.333 0 32 -13.667 32 -41c0 -26 -3 -65.167 -9 -117.5s-9 -91.833 -9 -118.5v-421
c12.667 0 34.667 2 66 6c28 4 49.667 6 65 6c12.667 0 19 -7.66699 19 -23c0 -14 -0.833008 -35 -2.5 -63s-2.5 -49.333 -2.5 -64s1.16699 -36.5 3.5 -65.5s3.5 -50.833 3.5 -65.5zM598.001 857.001c0 4 -2.33301 5.99902 -7 5.99902c-6 0 -12 -4.33301 -18 -13l-128 -206
c-51.333 -79.333 -101.333 -143 -150 -191c36.667 0 130 4.66699 280 14c1.33301 26.667 6 92.334 14 197.001c6 82.667 9 147 9 193z" />
    <glyph glyph-name="five" unicode="5" horiz-adv-x="1034" 
d="M987 418c0 -298 -183.67 -447.002 -551.003 -447.002c-53.333 0 -124.666 5.66699 -213.999 17c-116 14.667 -177 32.334 -183 53.001c-2.66699 8.66699 -4 38.334 -4 89.001c0 28 3.33301 65.333 10 112c8.66699 60 18.667 90 30 90c3.33301 0 9 -2 17 -6
c80 -40 171 -60 273 -60c147.333 0 221 48 221 144c0 52.667 -27 92.334 -81 119.001c-42 21.333 -92.333 32 -151 32c-24.667 0 -61.5 -3 -110.5 -9s-85.833 -9 -110.5 -9c-23.333 0 -35 10.667 -35 32c0 64 2.83301 161.667 8.5 293s8.5 229 8.5 293
c0 12.667 4.83301 25.834 14.5 39.501s20.5 21.834 32.5 24.501c14.667 2.66699 107.334 4 278.001 4c194 0 324.333 -0.666992 391 -2c18 -0.666992 27 -8.33398 27 -23.001c0 -38 -4 -90 -12 -156c-10 -84.667 -22 -127 -36 -127l-11 1
c-150.667 13.333 -244.667 20 -282 20c-73.333 0 -112.666 -4 -117.999 -12c-11.333 -20 -17 -57.667 -17 -113c0 -8.66699 1.66699 -15.334 5 -20.001c16.667 0 43 1.66699 79 5c34 3.33301 60.333 5 79 5c124 0 227 -33 309 -99c88.667 -70.667 133 -167.334 133 -290.001
z" />
    <glyph glyph-name="six" unicode="6" horiz-adv-x="1137" 
d="M1098 444c0 -149.333 -49.3311 -265.667 -147.998 -349c-92.667 -78.667 -215.334 -118 -368.001 -118c-164 0 -294.667 53.333 -392 160c-94 102.667 -141 236.667 -141 402c0 208.667 79.667 380.667 239 516c151.333 128 333.333 192 546 192c12.667 0 22 -8 28 -24
c51.333 -131.333 77 -203.333 77 -216c0 -30.667 -14.667 -46 -44 -46c-78.667 0 -151.334 -10 -218.001 -30c-86.667 -25.333 -145.667 -64 -177 -116c-7.33301 -12 -11 -21 -11 -27c0 -4 2 -6 6 -6c2.66699 0 7.66699 1.33301 15 4c58 26 121.333 39 190 39
c116 0 210.667 -34 284 -102c76 -70.667 114 -163.667 114 -279zM754.002 439.999c0 47.333 -15.3311 86.5 -45.998 117.5s-69.334 46.5 -116.001 46.5c-50.667 0 -92.334 -14.667 -125.001 -44s-49 -69.333 -49 -120c0 -54.667 13.667 -98.667 41 -132
c29.333 -36 71 -54 125 -54s96.333 17.667 127 53c28.667 34 43 78.333 43 133z" />
    <glyph glyph-name="seven" unicode="7" horiz-adv-x="979" 
d="M948 987c0 -12 -8.66895 -26.335 -26.002 -43.002c-38.667 -35.333 -82.667 -99.666 -132 -192.999c-40.667 -78 -72.667 -150 -96 -216c-56 -160.667 -90 -320 -102 -478c-3.33301 -42.667 -17.666 -67.667 -42.999 -75c-19.333 -6 -81.666 -9 -186.999 -9
c-63.333 0 -101 0.666992 -113 2c-56.667 6 -85 22 -85 48c0 96 31 217.333 93 364c43.333 102 101 215.333 173 340c62 106.667 93 159.334 93 158.001c0 6.66699 -14 10 -42 10c-49.333 0 -123.333 -2.5 -222 -7.5s-172.667 -7.5 -222 -7.5c-16.667 0 -25 8.33301 -25 25
c0 19.333 3.33301 46.333 10 81c7.33301 40.667 11.666 67.667 12.999 81c2.66699 30 4 80 4 150c0 17.333 15 26 45 26c28 0 64.333 -2.33301 109 -7c61.333 -6.66699 98 -10.334 110 -11.001c114.667 -8.66699 311.334 -13 590.001 -13c30 0 46.333 -15.667 49 -47
c4 -47.333 6 -106.666 6 -177.999z" />
    <glyph glyph-name="eight" unicode="8" horiz-adv-x="1006" 
d="M981 344c0 -122 -47.998 -217 -143.998 -285c-85.333 -60 -191.666 -90 -318.999 -90c-147.333 0 -264 31.667 -350 95c-98.667 71.333 -148 177.666 -148 318.999c0 46.667 13 91.667 39 135c18 30 42 59.333 72 88l38 36c0 7.33301 -10.333 22 -31 44
c-26.667 26.667 -46.334 51.667 -59.001 75c-21.333 38.667 -32 82.667 -32 132c0 120 49.667 211.333 149 274c83.333 52 188.666 78 315.999 78c107.333 0 205.666 -28.667 294.999 -86c102.667 -66 154 -150 154 -252c0 -54 -11.667 -103.333 -35 -148
c-14.667 -29.333 -35.667 -58 -63 -86c-22.667 -23.333 -34 -37 -34 -41c0 -1.33301 13 -15.333 39 -42c31.333 -31.333 56 -63 74 -95c26 -47.333 39 -97.666 39 -150.999zM691.002 907c0 34 -15.333 61.999 -46 83.999c-28 19.333 -59.667 29 -95 29
c-93.333 0 -140 -39.333 -140 -118c0 -52 59.667 -94.333 179 -127c8 -2 14 -3 18 -3c22 0 42 17.333 60 52c16 30.667 24 58.334 24 83.001zM594.002 332.999c0 64.667 -53.999 113.333 -161.999 146c-35.333 11.333 -54.333 17 -57 17c-23.333 0 -46 -18.667 -68 -56
c-20.667 -34.667 -31 -64.667 -31 -90c0 -44.667 17 -81 51 -109c31.333 -26.667 69.666 -40 114.999 -40c101.333 0 152 44 152 132z" />
    <glyph glyph-name="nine" unicode="9" horiz-adv-x="1157" 
d="M1102 680c0 -218.667 -81.333 -395.002 -244 -529.002c-152 -125.333 -339.667 -188 -563 -188c-13.333 0 -23.666 9 -30.999 27c-47.333 116 -71 191.333 -71 226c0 21.333 15.667 32 47 32c213.333 0 351.666 54.667 414.999 164c8.66699 14.667 13 25.334 13 32.001
c0 4 -2 6 -6 6c-3.33301 0 -11 -2.66699 -23 -8c-56 -26 -119.333 -39 -190 -39c-116.667 0 -212 34.667 -286 104c-76 70 -114 163 -114 279c0 150.667 50.333 266.334 151 347.001c92 74.667 215 112 369 112c166 0 297.333 -53.333 394 -160
c92.667 -102.667 139 -237.667 139 -405zM727 775.998c0 50.667 -14.334 94 -43.001 130c-31.333 39.333 -71.666 59 -120.999 59c-110.667 0 -166 -58 -166 -174c0 -47.333 15 -86.833 45 -118.5s68.333 -47.5 115 -47.5c47.333 0 87 13 119 39c34 28.667 51 66 51 112z
" />
    <glyph glyph-name="colon" unicode=":" horiz-adv-x="510" 
d="M457 680c0 -58 -19.499 -104.333 -58.499 -139s-87.833 -52 -146.5 -52c-54.667 0 -100.834 18.167 -138.501 54.5s-56.5 81.833 -56.5 136.5c0 56 19.333 103.833 58 143.5s85.667 59.5 141 59.5c56 0 103.5 -19.833 142.5 -59.5s58.5 -87.5 58.5 -143.5zM457.001 188
c0 -56.667 -19.332 -104.833 -57.999 -144.5s-86.334 -59.5 -143.001 -59.5c-56 0 -103.167 20 -141.5 60s-57.5 88 -57.5 144c0 60 18.833 108.167 56.5 144.5s86.5 54.5 146.5 54.5c57.333 0 104.5 -18.833 141.5 -56.5s55.5 -85.167 55.5 -142.5z" />
    <glyph glyph-name="semicolon" unicode=";" horiz-adv-x="510" 
d="M457 682c0 -56.667 -19.332 -104.667 -57.999 -144s-86.334 -59 -143.001 -59c-56 0 -103.167 19.833 -141.5 59.5s-57.5 87.5 -57.5 143.5s19.333 103.5 58 142.5s85.667 58.5 141 58.5c56 0 103.5 -19.5 142.5 -58.5s58.5 -86.5 58.5 -142.5zM439.001 283
c0 -66.667 -17 -138.667 -51 -216c-32 -74 -72 -136.667 -120 -188c-68 -73.333 -126 -120.333 -174 -141c-8.66699 -4 -16 -6 -22 -6c-4 0 -24.667 13.833 -62 41.5s-57.333 44.334 -60 50.001s-4 12.167 -4 19.5s21.333 36.833 64 88.5s66 102.5 70 152.5
c1.33301 15.333 1.33301 35 0 59c-1.33301 32 -2 52 -2 60c0 26.667 11 43.667 33 51c30.667 4.66699 76.334 13 137.001 25c6.66699 1.33301 33 9.66602 79 24.999c39.333 13.333 62.666 20 69.999 20c28 0 42 -13.667 42 -41z" />
    <glyph glyph-name="less" unicode="&#x3c;" horiz-adv-x="821" 
d="M656 62l-302 235.001c-83.333 63.333 -168.666 107 -255.999 131c-20 5.33301 -30 17.666 -30 36.999c0 13.333 1 33.166 3 59.499s3 46.166 3 59.499c0 11.333 -1 28.833 -3 52.5s-3 41.5 -3 53.5c0 17.333 10 29.666 30 36.999
c60.667 22.667 147.334 68.334 260.001 137.001c39.333 24 86.333 57.667 141 101c83.333 65.333 128.666 100.666 135.999 105.999c5.33301 4.66699 13.666 9.33398 24.999 14.001c16 -6.66699 39 -40.667 69 -102c28.667 -58.667 43 -98.334 43 -119.001
c0 -6.66699 -4.66699 -16 -14 -28c-94 -115.333 -218.333 -194 -373 -236c-6.66699 -1.33301 -13.334 -5.66602 -20.001 -12.999c2.66699 -5.33301 8.66699 -10 18 -14c190.667 -78 316.334 -159.667 377.001 -245c9.33301 -13.333 14 -23.666 14 -30.999
c0 -19.333 -16 -62.666 -48 -129.999c-32.667 -70 -56 -105 -70 -105z" />
    <glyph glyph-name="equal" unicode="=" horiz-adv-x="987" 
d="M891 672c-0.666992 0 -3.33301 0.667969 -8 2.00098c-39.333 6.66699 -180 10 -422 10c-41.333 0 -103 -1.33301 -185 -4s-143.333 -4 -184 -4c-12 0 -18 11.667 -18 35c0 6 2.66699 39.333 8 100c0.666992 34 2 70.333 4 109c4 10.667 11.667 16 23 16
c42.667 0 107 -1.66699 193 -5s150.667 -5 194 -5c44.667 0 112.167 1 202.5 3s157.833 3 202.5 3c11.333 0 17 -6.66699 17 -20c0 -94.667 -4.33301 -169.334 -13 -224.001c-1.33301 -10.667 -6 -16 -14 -16zM893.001 296.001l-9.99707 1c-137.333 6.66699 -278 10 -422 10
c-41.333 0 -103 -1.66699 -185 -5s-143.333 -5 -184 -5c-12 0 -18 10.333 -18 31c0 12 1.33301 29 4 51c3.33301 24.667 5.33301 41.667 6 51c-0.666992 32.667 0 69 2 109c4 10.667 11.667 16 23 16c42.667 0 107 -1.66699 193 -5s150.667 -5 194 -5
c45.333 0 113.166 1 203.499 3s158.166 3 203.499 3c11.333 0 17 -6.66699 17 -20c0 -6.66699 -2.33301 -45 -7 -115s-7.33398 -105.667 -8.00098 -107c-2.66699 -8.66699 -6.66699 -13 -12 -13z" />
    <glyph glyph-name="greater" unicode="&#x3e;" horiz-adv-x="821" 
d="M756 465c0 -17.333 -10.3311 -29.667 -30.998 -37c-60.667 -22.667 -147.334 -68.334 -260.001 -137.001c-38.667 -24 -85.667 -57.333 -141 -100c-82.667 -66 -128 -101.667 -136 -107c-5.33301 -4.66699 -13.666 -9.33398 -24.999 -14.001c-14 6 -34.833 37 -62.5 93
s-41.5 92.333 -41.5 109c0 7.33301 5 17 15 29c107.333 132 228.666 216.667 363.999 254c6.66699 1.33301 13.667 5.66602 21 12.999c-3.33301 5.33301 -9.66602 10 -18.999 14c-182.667 75.333 -307.334 160.666 -374.001 255.999c-9.33301 12 -14 22 -14 30
c0 16.667 16.333 58.334 49 125.001s54.667 100 66 100l302 -235c83.333 -63.333 168.666 -107 255.999 -131c20.667 -5.33301 31 -17.666 31 -36.999c0 -13.333 -1 -33.166 -3 -59.499s-3 -46.166 -3 -59.499c0 -11.333 1 -28.833 3 -52.5s3 -41.5 3 -53.5z" />
    <glyph glyph-name="question" unicode="?" horiz-adv-x="864" 
d="M838 1024c0 -166 -67 -287.672 -201 -365.005c-100.667 -57.333 -155.334 -115.333 -164.001 -174c-2 -15.333 -3.66699 -30.666 -5 -45.999c-4.66699 -14 -16.667 -21 -36 -21c-67.333 0 -115.666 -4 -144.999 -12c-6 -2 -10.667 -3 -14 -3c-24 0 -36 32.667 -36 98
c0 56.667 32.833 126.834 98.5 210.501s98.5 153.834 98.5 210.501c0 86 -45.667 129 -137 129c-58 0 -133.333 -22.667 -226 -68c-28.667 0 -43 85 -43 255c0 18.667 1 32.667 3 42c9.33301 44.667 65 79.334 167 104.001c74 18 145.333 27 214 27
c120.667 0 220.667 -33.667 300 -101c84 -71.333 126 -166.666 126 -285.999zM567 163.995c0 -51.333 -17.833 -95.666 -53.5 -132.999s-79.167 -56 -130.5 -56s-94.833 18.667 -130.5 56s-53.5 81.666 -53.5 132.999s17.833 95.166 53.5 131.499s79.167 54.5 130.5 54.5
s94.833 -18.167 130.5 -54.5s53.5 -80.166 53.5 -131.499z" />
    <glyph glyph-name="at" unicode="@" horiz-adv-x="1407" 
d="M1321 725c0 -28.667 -35 -98.8301 -105 -210.497s-117.667 -173.834 -143 -186.501c-8 -4 -19.667 -6 -35 -6c-44 0 -72.667 15.667 -86 47c-10.667 25.333 -20 38 -28 38c2 0 -18.333 -12.167 -61 -36.5s-84.667 -36.5 -126 -36.5c-92 0 -166.667 34.667 -224 104
c-54 65.333 -81 145.333 -81 240c0 110 28.667 198 86 264c60 70 144 105 252 105c46.667 0 97.667 -14.333 153 -43s83.666 -43 84.999 -43c18.667 0 28 10 28 30c0 63.333 -33.667 119.333 -101 168c-62.667 45.333 -126.667 68 -192 68
c-136.667 0 -250 -54.333 -340 -163c-86 -102.667 -129 -224 -129 -364c0 -144.667 41.667 -266.334 125 -365.001c88.667 -104.667 204 -157 346 -157c19.333 0 29 -5.33301 29 -16v-178c0 -14 -9.66699 -21 -29 -21c-199.333 0 -365.333 73.667 -498 221
c-128 142.667 -192 314.667 -192 516c0 195.333 65 366 195 512c134.667 152 298.334 228 491.001 228s340.667 -73.667 444 -221c90.667 -128.667 136 -293.334 136 -494.001zM1001 696.004c0 41.333 -13.832 74.168 -41.499 98.501s-62.167 36.5 -103.5 36.5
c-40.667 0 -73.334 -13 -98.001 -39s-37 -59.333 -37 -100c0 -38.667 10 -71.334 30 -98.001c22 -28.667 52 -43 90 -43c46 0 84.167 13 114.5 39s45.5 61.333 45.5 106z" />
    <glyph glyph-name="A" unicode="A" horiz-adv-x="1421" 
d="M1411 25c0 -12 -8.33594 -20.332 -25.0029 -24.999c-20 -5.33301 -82 -8 -186 -8c-95.333 0 -156.666 2.66699 -183.999 8c-22.667 4.66699 -37 19.667 -43 45c-22.667 96 -40.334 147.333 -53.001 154c-10.667 4.66699 -100 7 -268 7
c-113.333 0 -173.666 -3 -180.999 -9c-11.333 -10.667 -24 -46.334 -38 -107.001c-12.667 -55.333 -28 -85.333 -46 -90c-22.667 -5.33301 -98.667 -8 -228 -8c-102 0 -153 9.66699 -153 29c0 17.333 75.333 230.333 226 639c163.333 442 252 685 266 729
c8 25.333 17.333 38 28 38c18 0 45.833 -1.66699 83.5 -5s65.834 -5 84.501 -5c18 0 44.5 1.16699 79.5 3.5s61.167 3.5 78.5 3.5c12.667 0 24.334 -11 35.001 -33c32.667 -70 128 -310 286 -720c158.667 -412.667 238 -628 238 -646zM701.997 936.001
c-14 -29.333 -37.667 -93 -71 -191c-36 -104 -54 -165 -54 -183c0 -12 20 -18.667 60 -20c20.667 -1.33301 54.667 -2 102 -2c44 0 68.333 5.33301 73 16c1.33301 3.33301 2 8 2 14c0 22 -15.333 82.667 -46 182c-30 96 -52 157.333 -66 184z" />
    <glyph glyph-name="B" unicode="B" horiz-adv-x="1309" 
d="M1274 432c0 -122.667 -38.3359 -224.334 -115.003 -305.001c-87.333 -92.667 -240.666 -139 -459.999 -139c-16.667 0 -40.667 0.333008 -72 1h-71c-246 0 -392.333 5 -439 15c-19.333 4 -29 14.333 -29 31c0 71.333 4.16699 179.333 12.5 324s12.5 253 12.5 325
c0 77.333 -4 222.666 -12 435.999c-2 54.667 -5.66699 136.667 -11 246l-1 14c-0.666992 12.667 9.83301 20.334 31.5 23.001s98.834 4 231.501 4c212.667 0 337 -0.666992 373 -2c164 -6 285 -32.667 363 -80c103.333 -63.333 155 -170.333 155 -321
c0 -39.333 -12 -81 -36 -125c-17.333 -31.333 -40 -62.666 -68 -93.999c-24.667 -27.333 -37 -40 -37 -38c0 -4.66699 8.66699 -12 26 -22c46.667 -26.667 83.334 -69 110.001 -127c24 -52 36 -107.333 36 -166zM843.997 995c0 57.333 -28.666 95.335 -85.999 114.002
c-32 10 -84.667 15 -158 15c-72 0 -108 -5.33301 -108 -16c0 -12.667 -1.16699 -31.834 -3.5 -57.501s-3.5 -44.834 -3.5 -57.501c0 -66.667 5.66699 -104 17 -112c7.33301 -6 49.666 -9 126.999 -9c143.333 0 215 41 215 123zM873.998 436.002
c0 60 -25 100.666 -75 121.999c-32 13.333 -84 20 -156 20c-86 0 -132.667 -3.16699 -140 -9.5s-11 -47.166 -11 -122.499c0 -78.667 4.33301 -122.167 13 -130.5s56.667 -12.5 144 -12.5c72 0 122.667 5.66699 152 17c48.667 19.333 73 58 73 116z" />
    <glyph glyph-name="C" unicode="C" horiz-adv-x="1276" 
d="M1260 226c0 -10.667 -7 -24.666 -21 -41.999c-122.667 -146 -285.667 -219 -489 -219c-208 0 -376.667 71 -506 213c-126 137.333 -189 310.666 -189 519.999c0 202.667 61.667 374.667 185 516c128.667 148 292.334 222 491.001 222c216 0 385.333 -66.333 508 -199
c13.333 -14.667 20 -27.667 20 -39c0 -12.667 -23.167 -59.667 -69.5 -141s-75.5 -127 -87.5 -137c-5.33301 -5.33301 -12 -8 -20 -8c-3.33301 0 -20 13.333 -50 40c-36 32 -71.333 57 -106 75c-52.667 26.667 -107.334 40 -164.001 40c-98 0 -176.333 -36.667 -235 -110
c-54 -68 -81 -152 -81 -252c0 -101.333 27 -186.333 81 -255c58.667 -74.667 137 -112 235 -112c58 0 113 12.667 165 38c34 16.667 68.667 40 104 70c29.333 25.333 45.666 38 48.999 38c6.66699 0 13.334 -3.66699 20.001 -11c10.667 -12 39.667 -53.667 87 -125
c48.667 -74 73 -114.667 73 -122z" />
    <glyph glyph-name="D" unicode="D" horiz-adv-x="1460" 
d="M1397 709c0 -196 -62.999 -365.999 -188.999 -509.999c-111.333 -128.667 -267.666 -196.334 -468.999 -203.001c-38.667 -1.33301 -145 -2 -319 -2c-32.667 0 -81.834 1 -147.501 3s-114.834 3 -147.501 3c-19.333 0 -29 7.66699 -29 23
c0 73.333 2.83301 183.5 8.5 330.5s8.5 257.167 8.5 330.5c0 76.667 -2.83301 191.5 -8.5 344.5s-8.5 267.5 -8.5 343.5c0 14 9.66699 22.333 29 25c47.333 5.33301 125 8 233 8c205.333 0 338.333 -3 399 -9c158 -16 281.667 -56 371 -120c84 -60 150.333 -144 199 -252
c46.667 -102 70 -207 70 -315zM1014 709.001c0 112.667 -33.667 204.667 -101 276c-68 74 -158 111 -270 111c-102.667 0 -154 -13.667 -154 -41c0 -39.333 -0.666992 -98.5 -2 -177.5s-2 -138.167 -2 -177.5c0 -38.667 0.666992 -96.834 2 -174.501s2 -136.167 2 -175.5
c0 -28.667 53.333 -43 160 -43c115.333 0 206 38.333 272 115c62 72.667 93 168.334 93 287.001z" />
    <glyph glyph-name="E" unicode="E" horiz-adv-x="1157" 
d="M1116 311c0 -28.667 -5.6709 -81.334 -17.0039 -158.001c-12 -83.333 -22.667 -133 -32 -149c-8 -12.667 -19 -19 -33 -19c-6 0 -16 1 -30 3c-48.667 6.66699 -190.667 10 -426 10c-51.333 0 -127.666 0.333008 -228.999 1s-177.333 1 -228 1c-22 0 -33 9.66699 -33 29
c0 74.667 4.16699 186.834 12.5 336.501s12.5 261.834 12.5 336.501c0 76 -4 217.667 -12 425c-2 53.333 -5.66699 133 -11 239l-1 14c-1.33301 15.333 7 23 25 23c49.333 0 123.5 -1.33301 222.5 -4s173.167 -4 222.5 -4c48.667 0 122 1.33301 220 4s171.333 4 220 4
c34.667 0 54.667 -13 60 -39c3.33301 -15.333 8.5 -61.833 15.5 -139.5s10.5 -124.834 10.5 -141.501c0 -14 -6.66699 -21 -20 -21c-4 0 -11 0.333008 -21 1c-177.333 14.667 -336.666 22 -477.999 22c-35.333 0 -57 -8.33301 -65 -25c-3.33301 -8 -5 -33.667 -5 -77
c0 -45.333 6.66699 -75.333 20 -90c11.333 -12.667 33 -19 65 -19c6.66699 0 19.667 0.5 39 1.5s35.333 1.5 48 1.5c84 0 169 2.33301 255 7l55 5c22.667 2.66699 40.667 4 54 4c16 0 24 -7.66699 24 -23c0 14 -6 -37 -18 -153c-5.33301 -53.333 -8 -106.666 -8 -159.999
c0 -13.333 -9.66699 -20 -29 -20l-90 10c-38 4 -124.667 6 -260 6h-106c-27.333 0 -43.333 -6.66699 -48 -20c-0.666992 -3.33301 -1 -24 -1 -62c0 -50.667 3.33301 -83.334 10 -98.001c11.333 -25.333 54 -40.333 128 -45c-1.33301 0 47.334 0 146.001 0
c35.333 0 87.833 3.16699 157.5 9.5s121.834 9.5 156.501 9.5c14.667 0 22 -12 22 -36z" />
    <glyph glyph-name="F" unicode="F" horiz-adv-x="1151" 
d="M1125 1077c0 -7.33301 -6.66309 -11.001 -19.9961 -11.001c-50 0 -125.833 4.33301 -227.5 13s-177.834 13 -228.501 13c-64 0 -101.333 -2.33301 -112 -7c-24.667 -11.333 -37 -43.333 -37 -96c0 -63.333 16 -99.333 48 -108c13.333 -3.33301 33.666 -5 60.999 -5
c46 0 114.833 2.5 206.5 7.5s160.5 7.5 206.5 7.5c22 0 33 -58.667 33 -176c0 -102 -3.66699 -161.333 -11 -178c-4.66699 -12 -13.667 -18 -27 -18c8.66699 0 -12.333 2.33301 -63 7c-71.333 6.66699 -179.333 10 -324 10c-46.667 0 -73 -0.333008 -79 -1
c-34 -5.33301 -51 -19.666 -51 -42.999c0 -94.667 4 -203.667 12 -327c6.66699 -111.333 10 -161 10 -149c0 -17.333 -21 -27.333 -63 -30c11.333 0.666992 -18.334 1 -89.001 1c-124.667 0 -205 4.33301 -241 13c-19.333 4.66699 -29 15 -29 31c0 74 2.5 185.167 7.5 333.5
s7.5 259.5 7.5 333.5c0 88 -4 198.667 -12 332c-12 206 -18.333 316.667 -19 332l-1 12c-0.666992 16.667 9.33301 25 30 25c49.333 0 123.833 -1 223.5 -3s174.5 -3 224.5 -3c53.333 0 133.5 4 240.5 12s187.167 12 240.5 12c33.333 0 52 -13.667 56 -41
c0 -28.667 1.33301 -71.667 4 -129c1.33301 -14.667 5.66602 -43 12.999 -85c6.66699 -36.667 10 -65 10 -85z" />
    <glyph glyph-name="G" unicode="G" horiz-adv-x="1456" 
d="M1408 32c1.33301 -18 -7.99902 -27 -27.999 -27c-12.667 0 -49.167 7.33301 -109.5 22s-97.5 24.667 -111.5 30c-139.333 -54.667 -273 -82 -401 -82c-206 0 -375 68.667 -507 206c-130.667 135.333 -196 306.333 -196 513c0 211.333 63.333 386.666 190 525.999
c130.667 144 300.334 216 509.001 216c101.333 0 196.666 -19.333 285.999 -58c96.667 -42.667 172.667 -102.667 228 -180c11.333 -16 17 -27.333 17 -34c0 -21.333 -29.833 -69.166 -89.5 -143.499s-98.167 -111.5 -115.5 -111.5c-4 0 -19.333 13.667 -46 41
c-32.667 32.667 -66 58 -100 76c-50.667 27.333 -106.667 41 -168 41c-100 0 -179.333 -37.333 -238 -112c-54.667 -68.667 -82 -154.334 -82 -257.001c0 -108.667 28.333 -194.667 85 -258c58.667 -65.333 141.667 -98 249 -98c68 0 144 17 228 51c-2 22 -8 78 -18 168
c-8.66699 69.333 -13 125.333 -13 168c0 12.667 4.33301 20.334 13 23.001c3.33301 1.33301 8.66602 2 15.999 2c19.333 0 48.5 -1.83301 87.5 -5.5s68.5 -5.5 88.5 -5.5c21.333 0 53.333 1.5 96 4.5s74.667 4.5 96 4.5c16.667 0 25 -11 25 -33
c0 -32 -1.83301 -80.333 -5.5 -145s-5.5 -113 -5.5 -145c0 -86 6.33301 -214.667 19 -386z" />
    <glyph glyph-name="H" unicode="H" horiz-adv-x="1526" 
d="M1434 31c0 -14 -3.00195 -22.667 -9.00195 -26c-2.66699 -2 -12 -3.66699 -28 -5c-40.667 -4 -98 -6 -172 -6c-104.667 0 -166.167 2 -184.5 6s-27.5 13 -27.5 27c0 52.667 2.5 131.834 7.5 237.501s7.5 184.834 7.5 237.501c0 26 -7.33301 41 -22 45
c-22.667 5.33301 -103.334 8 -242.001 8c-139.333 0 -220.666 -2.66699 -243.999 -8c-14.667 -3.33301 -22 -18.333 -22 -45c0 -52 1.66699 -129.833 5 -233.5s5 -181.5 5 -233.5c0 -20 -9 -31.667 -27 -35c-21.333 -4 -84 -6 -188 -6c-90 0 -147.333 2 -172 6
c-19.333 3.33301 -29 13.666 -29 30.999c0 72 3.5 180.667 10.5 326s10.5 254.333 10.5 327c0 77.333 -3.33301 193.5 -10 348.5s-10 271.167 -10 348.5c0 14.667 7 22 21 22c20.667 0 51.834 -1 93.501 -3s72.834 -3 93.501 -3c21.333 0 53.5 1 96.5 3s75.167 3 96.5 3
c11.333 0 17 -6 17 -18c0 -50 -3.66699 -124.833 -11 -224.5s-11 -174.5 -11 -224.5c0 -23.333 6.33301 -37 19 -41c17.333 -5.33301 102.666 -8 255.999 -8c142.667 0 225.334 2.66699 248.001 8c16 4 24 17.667 24 41c0 48 -2.33301 120.5 -7 217.5s-7 169.833 -7 218.5
c0 20.667 8.33301 31 25 31c19.333 0 48.833 -1 88.5 -3s69.5 -3 89.5 -3c19.333 0 48.833 1 88.5 3s69.5 3 89.5 3c19.333 0 29 -8 29 -24c0 -76.667 -3.16699 -192.334 -9.5 -347.001s-9.5 -270.667 -9.5 -348c0 -72.667 3.5 -181.667 10.5 -327s10.5 -254 10.5 -326z" />
    <glyph glyph-name="I" unicode="I" horiz-adv-x="610" 
d="M498 739c0 -78.667 1.99805 -197.001 5.99805 -355.001s6 -276.333 6 -355c0 -13.333 -3 -21.666 -9 -24.999c-1.33301 -0.666992 -10 -2 -26 -4c-43.333 -5.33301 -101.333 -8 -174 -8c-97.333 0 -159.333 2.66699 -186 8c-19.333 4 -29 14.333 -29 31
c0 -10.667 3 48 9 176c12 270 18 447.333 18 532c0 71.333 -2.33301 178.333 -7 321s-7 249.667 -7 321c0 14.667 7.66699 22 23 22c20.667 0 51.834 -1 93.501 -3s72.834 -3 93.501 -3s51.167 1 91.5 3s70.833 3 91.5 3c19.333 0 29 -7.33301 29 -22
c0 -71.333 -3.83301 -178.333 -11.5 -321s-11.5 -249.667 -11.5 -321z" />
    <glyph glyph-name="J" unicode="J" horiz-adv-x="690" 
d="M582 543c0 -166.667 -13.668 -295.667 -41.001 -387c-49.333 -162 -128.666 -289 -237.999 -381c-12.667 -11.333 -23 -17 -31 -17c-7.33301 0 -14.666 4.33301 -21.999 13l-109 123c-28.667 24 -71 61.333 -127 112c-7.33301 8 -11 14.667 -11 20
c0 6 3.66699 12.333 11 19c49.333 43.333 80.666 73 93.999 89c26 31.333 46 70.666 60 117.999c18.667 64.667 28 171 28 319c0 342.667 -12 608.334 -36 797.001c-1.33301 6.66699 -2 11.667 -2 15c0 12 10.667 18 32 18s52.833 -1 94.5 -3s73.167 -3 94.5 -3
c20 0 49.667 1 89 3s69 3 89 3c19.333 0 29 -8.66699 29 -26c0 -92 -0.666992 -230.5 -2 -415.5s-2 -323.833 -2 -416.5z" />
    <glyph glyph-name="K" unicode="K" horiz-adv-x="1346" 
d="M1323 56c0 -28.667 -12.334 -47.332 -37.001 -55.999c-20 -6.66699 -72.667 -10 -158 -10c-82 0 -142 3.33301 -180 10c-18 3.33301 -29.833 6.83301 -35.5 10.5s-12.834 13.167 -21.501 28.5l-145 268c-79.333 144 -126.666 223.333 -141.999 238
c-72 -26 -108 -44.667 -108 -56c0 -50 2 -125.5 6 -226.5s6 -176.833 6 -227.5c0 -20.667 -9 -32.334 -27 -35.001c-34.667 -5.33301 -97.334 -8 -188.001 -8c-86.667 0 -144 2.66699 -172 8c-19.333 4 -29 14.333 -29 31c0 72 3.5 180.667 10.5 326s10.5 254.333 10.5 327
c0 77.333 -3.33301 193.5 -10 348.5s-10 271.167 -10 348.5c0 14.667 7 22 21 22c20.667 0 51.834 -1 93.501 -3s72.834 -3 93.501 -3c21.333 0 53 1 95 3s73.333 3 94 3c11.333 0 17 -6 17 -18c0 -49.333 -2.5 -123.833 -7.5 -223.5s-7.5 -174.167 -7.5 -223.5
c0 -57.333 15.667 -86 47 -86c79.333 0 141 21.667 185 65c32.667 32 65.667 90.333 99 175c21.333 64.667 56.333 160 105 286c7.33301 16.667 22.333 25 45 25c17.333 0 43.5 -1 78.5 -3s61.167 -3 78.5 -3c18 0 44.833 0.666992 80.5 2s62.167 2 79.5 2
c16 0 24 -7.66699 24 -23c0 -22 -14 -75.667 -42 -161c-82.667 -252 -177.667 -409.333 -285 -472c-22 -12.667 -33 -23 -33 -31c0 0.666992 61.5 -99.333 184.5 -300s184.5 -320 184.5 -358z" />
    <glyph glyph-name="L" unicode="L" horiz-adv-x="1120" 
d="M1011 -17c-57.333 0 -132 1.33398 -224 4.00098l-224 5l-299 4c-30 -0.666992 -73 0.666016 -129 3.99902c-19.333 3.33301 -29 13.666 -29 30.999c0 72.667 1.16699 181.5 3.5 326.5s3.5 253.833 3.5 326.5c0 77.333 -2.33301 193.166 -7 347.499s-7 270.166 -7 347.499
c0 14.667 10 22 30 22s49.833 -1 89.5 -3s69.167 -3 88.5 -3c22 0 54.667 1.16699 98 3.5s76 3.5 98 3.5c10 0 14.667 -6.33301 14 -19l-1 -13c-8 -125.333 -17 -313.666 -27 -564.999l-1 -264c0 -85.333 0.333008 -147.666 1 -186.999l2 -24
c0.666992 -8 5.66699 -13 15 -15h26c60 0 149.833 3.16699 269.5 9.5s209.5 9.5 269.5 9.5c18 0 27 -7.66699 27 -23c0 -114 -8.33301 -212.333 -25 -295c-3.33301 -17.333 -10.333 -27.666 -21 -30.999c-3.33301 -1.33301 -17 -2 -41 -2z" />
    <glyph glyph-name="M" unicode="M" horiz-adv-x="1677" 
d="M1583 31c0 -20.667 -9.66504 -31 -28.998 -31h-354c-19.333 0 -29 11.667 -29 35c0 67.333 2.5 168.333 7.5 303s7.5 235.667 7.5 303c0 19.333 -3 29.666 -9 30.999c-7.33301 -4 -52 -107 -134 -309l-144 -355c-6.66699 -15.333 -15 -24.333 -25 -27
c-3.33301 -0.666992 -16.666 -1 -39.999 -1c-34.667 0 -55.334 6.66699 -62.001 20c-36 73.333 -83.333 180 -142 320c-62.667 148 -109.667 255 -141 321c-1.33301 3.33301 -4.33301 7 -9 11c-4.66699 -6 -7 -15.667 -7 -29c0 -65.333 1.66699 -163.333 5 -294
s5 -228.667 5 -294c0 -23.333 -9.33301 -35 -28 -35h-334c-13.333 0 -21.5 2.16699 -24.5 6.5s-4.5 11.833 -4.5 22.5c0 72.667 3.5 181.834 10.5 327.501s10.5 254.834 10.5 327.501c0 77.333 -3.33301 222.333 -10 435c-0.666992 55.333 -3.66699 137.666 -9 246.999
l-1 17c-0.666992 13.333 13.333 20 42 20c36.667 0 91.667 1.16699 165 3.5s128.333 3.5 165 3.5c7.33301 0 17.666 -14 30.999 -42l292 -641c20.667 -43.333 38 -65 52 -65c7.33301 0 23 25 47 75l299 633c11.333 26 23.666 39 36.999 39c19.333 0 48.5 -1 87.5 -3
s68.5 -3 88.5 -3c16.667 0 42.167 1.66699 76.5 5s59.833 5 76.5 5c20 0 30 -8 30 -24c0 -78.667 -2.83301 -196.167 -8.5 -352.5s-8.5 -273.833 -8.5 -352.5c0 -72.667 3 -181.667 9 -327s9 -254 9 -326z" />
    <glyph glyph-name="N" unicode="N" horiz-adv-x="1524" 
d="M1430 1372c0 -76 -3.16602 -190.168 -9.49902 -342.501s-9.5 -266.833 -9.5 -343.5v-659c0 -18 -9.66699 -27 -29 -27c-16 0 -40.167 -0.666992 -72.5 -2s-56.5 -2 -72.5 -2c-17.333 0 -43.333 1.33301 -78 4s-60.667 4 -78 4c-12 0 -26.333 11 -43 33l-324 430l-210 274
c-2.66699 4 -7.66699 8 -15 12c-5.33301 -4.66699 -8 -12 -8 -22c0 -77.333 2.16699 -193.333 6.5 -348s6.5 -270.667 6.5 -348c0 -23.333 -9 -35 -27 -35h-346c-19.333 0 -29 10.333 -29 31c0 72 3.5 180.667 10.5 326s10.5 254.333 10.5 327
c0 76.667 -3.16699 191.334 -9.5 344.001s-9.5 267 -9.5 343c0 14.667 13 22 39 22c38.667 0 86.334 2.66699 143.001 8c13.333 1.33301 39.666 5.66602 78.999 12.999c33.333 6 59.666 9 78.999 9c8 0 20.333 -11.333 37 -34l373 -511l151 -202
c16.667 -20.667 31 -31 43 -31c8.66699 0 13 26 13 78c0 70 -3.83301 175.333 -11.5 316s-11.5 246.334 -11.5 317.001c0 24.667 7 37 21 37c40 0 100.333 1.66699 181 5s141 5 181 5c12.667 0 19 -10.333 19 -31z" />
    <glyph glyph-name="O" unicode="O" horiz-adv-x="1538" 
d="M1481 700c0 -208 -66.335 -382.333 -199.002 -523c-135.333 -142.667 -306.666 -214 -513.999 -214c-206 0 -377 72 -513 216c-133.333 140.667 -200 314.334 -200 521.001c0 207.333 66.667 381.666 200 522.999c136 144.667 307 217 513 217
c204.667 0 375.334 -72.333 512.001 -217c134 -142.667 201 -317 201 -523zM1102 702c0 100 -30.334 184.999 -91.001 254.999c-63.333 73.333 -144.333 110 -243 110c-94 0 -173.667 -38 -239 -114c-63.333 -73.333 -95 -157.666 -95 -252.999c0 -102 29.667 -187 89 -255
c62.667 -71.333 144.334 -107 245.001 -107c94 0 174 37.667 240 113c62.667 72 94 155.667 94 251z" />
    <glyph glyph-name="P" unicode="P" horiz-adv-x="1335" 
d="M1290 868c0 -161.333 -42.3311 -292 -126.998 -392c-90.667 -106 -215.667 -159 -375 -159c-26.667 0 -66.834 1.5 -120.501 4.5s-93.834 4.5 -120.501 4.5c-28.667 0 -43 -12.333 -43 -37c0 -30.667 3 -76.334 9 -137.001s9 -106 9 -136c0 -15.333 -7 -23 -21 -23
c-40.667 0 -101.667 1.16699 -183 3.5s-142.333 3.5 -183 3.5c-19.333 0 -29 9.66699 -29 29c0 74 1.16699 185.167 3.5 333.5s3.5 259.5 3.5 333.5c0 209.333 -9 429.333 -27 660l-1 14c-1.33301 12.667 8.66699 20.334 30 23.001c52 6.66699 166.667 10 344 10
c104.667 0 205 -1.33301 301 -4c158 -4.66699 285.333 -54.334 382 -149.001c98.667 -97.333 148 -224.666 148 -381.999zM891.002 852c0 155.333 -75.667 233 -227 233c-106.667 0 -162.667 -6 -168 -18c-4.66699 -8.66699 -7 -85.667 -7 -231
c0 -20.667 0.833008 -51.167 2.5 -91.5s2.5 -70.833 2.5 -91.5c0 -13.333 60 -20 180 -20c144.667 0 217 73 217 219z" />
    <glyph glyph-name="Q" unicode="Q" horiz-adv-x="1538" 
d="M1481 700c0 -177.333 -48.333 -329.997 -145 -457.997c-98.667 -131.333 -233.334 -215.333 -404.001 -252c33.333 -68 83 -130.333 149 -187c6 -4.66699 9 -9 9 -13c0 -26.667 -82 -40 -246 -40c-120.667 0 -195 4.66699 -223 14c-15.333 5.33301 -25 17.666 -29 36.999
c-8 38.667 -10.667 103 -8 193c-163.333 40.667 -293 126.667 -389 258c-93.333 127.333 -140 276.666 -140 447.999c0 207.333 66.667 381.666 200 522.999c136 144.667 307 217 513 217c204.667 0 375.334 -72.667 512.001 -218c134 -142 201 -316 201 -522zM1102 702.003
c0 102.667 -29.665 188.333 -88.998 257c-62.667 72 -144.334 108 -245.001 108c-104 0 -186.333 -35.667 -247 -107c-58 -67.333 -87 -154 -87 -260c0 -108 28.333 -194.667 85 -260c59.333 -69.333 142.333 -104 249 -104c103.333 0 185.666 35.667 246.999 107
c58 68 87 154.333 87 259z" />
    <glyph glyph-name="R" unicode="R" horiz-adv-x="1305" 
d="M1284 10c0 -4.66699 -6.66895 -8 -20.002 -10c-25.333 -4 -89 -6 -191 -6c-87.333 0 -146.666 2 -177.999 6c-14.667 2 -23 3.66699 -25 5c-4 2 -8.66699 8.66699 -14 20l-44 116c-26 66.667 -66.667 165 -122 295c-12 26 -39.667 40.333 -83 43
c20 -1.33301 -14.333 -2 -103 -2c-10 0 -15 -17 -15 -51c0 -45.333 4.16699 -113 12.5 -203s12.5 -157.667 12.5 -203c0 -11.333 -3 -18 -9 -20l-28 -2c-39.333 -2.66699 -100.666 -4 -183.999 -4c-95.333 0 -152.666 2 -171.999 6s-29 14.333 -29 31
c0 73.333 3.5 184 10.5 332s10.5 259 10.5 333c0 282 -6.33301 502 -19 660l-1 14c-0.666992 11.333 9.83301 19 31.5 23s123.5 8 305.5 12c123.333 2.66699 221.666 4 294.999 4c152 0 276 -34.333 372 -103c108.667 -77.333 163 -189 163 -335
c0 -97.333 -14 -175 -42 -233s-79.667 -114.333 -155 -169c-15.333 -10.667 -23 -20.667 -23 -30c0 0.666992 40.667 -83 122 -251s122 -260.667 122 -278zM863.998 907c0 81.333 -26.668 137.666 -80.001 168.999c-41.333 24 -106 36 -194 36
c-63.333 0 -97 -9.66699 -101 -29c-4 -22.667 -6 -88 -6 -196c0 -15.333 0.333008 -38 1 -68s1 -52.333 1 -67c0 -3.33301 10.667 -6.66602 32 -9.99902c40.667 -6 83.334 -9 128.001 -9c146 0 219 58 219 174z" />
    <glyph glyph-name="S" unicode="S" horiz-adv-x="848" 
d="M774 460c0 -135.333 -56.998 -251.335 -170.998 -348.002c-100 -85.333 -221.667 -139.666 -365 -162.999c-5.33301 -0.666992 -9.66602 -1 -12.999 -1c-15.333 0 -49.333 46.833 -102 140.5s-79 150.834 -79 171.501c0 7.33301 5 12 15 14
c96.667 22 160.667 40.667 192 56c69.333 34.667 104 86 104 154c0 43.333 -22.667 91.666 -68 144.999c-78.667 90.667 -121.334 141 -128.001 151c-46 69.333 -69 146 -69 230c0 122 56.333 223.333 169 304c92 66.667 205 110 339 130c7.33301 0.666992 13 1 17 1
c10 0 18 -8 24 -24c17.333 -48.667 57.666 -136.667 120.999 -264c2 -4 3 -7.33301 3 -10c0 -11.333 -6 -17 -18 -17c-5.33301 0 -14.333 1 -27 3s-22.334 3 -29.001 3c-48 0 -90 -11 -126 -33c-43.333 -25.333 -65 -60.666 -65 -105.999c0 -40.667 24 -90.667 72 -150
c84.667 -106.667 129 -162.667 133 -168c47.333 -73.333 71 -146.333 71 -219z" />
    <glyph glyph-name="T" unicode="T" horiz-adv-x="1081" 
d="M1066 1097c0 -13.333 -7.33594 -19.998 -22.0029 -19.998c-25.333 0 -125.666 5 -300.999 15c-4 -168.667 -6 -286.334 -6 -353.001c0 -78.667 3.16699 -197 9.5 -355s9.5 -276.333 9.5 -355c0 -12.667 -3 -20.667 -9 -24c-2 -1.33301 -11.333 -3 -28 -5
c-40 -5.33301 -98.667 -8 -176 -8c-86 0 -146.333 2.66699 -181 8c-18.667 3.33301 -28 13.666 -28 30.999c0 78.667 3.33301 196.667 10 354s10 275.333 10 354c0 52 -2.66699 168 -8 348c-133.333 -13.333 -239.666 -20 -318.999 -20c-10.667 0 -16 3.33301 -16 10
c0 8.66699 4.66699 34.334 14 77.001c10.667 46.667 16.667 75 18 85c2 31.333 4.33301 62.666 7 93.999c4.66699 50 12.667 75 24 75c1.33301 0 6 -0.333008 14 -1c108 -14 267.667 -21 479 -21c60 0 170.667 6.33301 332 19c86.667 6.66699 130.334 10 131.001 10
c13.333 0 21 -0.833008 23 -2.5s3.33301 -8.16699 4 -19.5c0 -18 -0.666992 -43 -2 -75c-1.33301 -35.333 -2 -60.333 -2 -75c0 -16.667 2.16699 -41.167 6.5 -73.5s6.5 -56.5 6.5 -72.5z" />
    <glyph glyph-name="U" unicode="U" horiz-adv-x="1391" 
d="M1286 491c0 -170 -20.3291 -285.999 -60.9961 -347.999c-74.667 -113.333 -261 -170 -559 -170c-134.667 0 -238.334 10.333 -311.001 31c-116 33.333 -191.333 97 -226 191c-17.333 46 -26 128 -26 246c0 27.333 1 68 3 122s3 94.333 3 121
c0 77.333 -3.66699 193.333 -11 348s-11 270.334 -11 347.001c0 16 7 24 21 24c40.667 0 102.167 -1.66699 184.5 -5s143.833 -5 184.5 -5c16.667 0 25 -7.33301 25 -22c0 -88 -2.83301 -219.833 -8.5 -395.5s-8.5 -307.5 -8.5 -395.5c0 -104.667 11 -175.334 33 -212.001
c29.333 -50 90.666 -75 183.999 -75c136.667 0 205 66.333 205 199c0 96.667 -2.33301 241.667 -7 435s-7 338.333 -7 435c0 20.667 8.33301 31 25 31c39.333 0 98.666 1.66699 177.999 5s138.666 5 177.999 5c19.333 0 29 -8 29 -24
c0 -76.667 -3.16699 -192.334 -9.5 -347.001s-9.5 -270.667 -9.5 -348c0 -21.333 0.333008 -53.5 1 -96.5s1 -75.167 1 -96.5z" />
    <glyph glyph-name="V" unicode="V" horiz-adv-x="1337" 
d="M657 -4c-90 0 -141.333 1.33008 -154 3.99707s-23.334 12.334 -32.001 29.001l-229 451c-120.667 242 -181 379 -181 411c0 52.667 1.83301 131.834 5.5 237.501s5.5 184.834 5.5 237.501c0 24.667 6.66699 37 20 37c40 0 100.667 -1.66699 182 -5s142.333 -5 183 -5
c16.667 0 25 -7 25 -21c0 -54 -3.83301 -135.167 -11.5 -243.5s-11.5 -189.5 -11.5 -243.5c0 -41.333 67.667 -189 203 -443c36.667 66 78.334 147 125.001 243c62.667 129.333 94 208.666 94 237.999c0 48.667 -0.666992 121.834 -2 219.501s-2 170.834 -2 219.501
c0 18 3 28 9 30h32c36.667 0 92.167 1.83301 166.5 5.5s129.833 5.5 166.5 5.5c20 0 30 -8 30 -24c0 -51.333 -0.833008 -128.833 -2.5 -232.5s-2.5 -181.5 -2.5 -233.5c0 -41.333 -65.667 -193.333 -197 -456l-225 -428c-6.66699 -14.667 -11.167 -22.834 -13.5 -24.501
s-10.833 -3.16699 -25.5 -4.5c-34 -2.66699 -86.667 -4 -158 -4z" />
    <glyph glyph-name="W" unicode="W" horiz-adv-x="1923" 
d="M1868 891c0 -2 -61.999 -136.335 -185.999 -403.002c-126 -272 -198 -425 -216 -459c-6 -12 -9.66699 -18.667 -11 -20c-2.66699 -3.33301 -9 -6.33301 -19 -9c-16.667 -4 -64 -6 -142 -6c-72.667 0 -117 2 -133 6c-13.333 3.33301 -21.333 6 -24 8s-7 8.33301 -13 19
c-4 7.33301 -23 54.333 -57 141l-109 278l-111 -281c-11.333 -32 -30 -78 -56 -138c-6.66699 -11.333 -11.334 -18.166 -14.001 -20.499s-10.334 -4.5 -23.001 -6.5c-22.667 -4 -66.334 -6 -131.001 -6c-80 0 -128 2 -144 6c-11.333 2.66699 -20.666 12.334 -27.999 29.001
c-261.333 536.667 -392 824 -392 862c0 53.333 1.83301 133.166 5.5 239.499s5.5 186.166 5.5 239.499c0 22 6.66699 33 20 33c38 0 95.5 -1.66699 172.5 -5s134.833 -5 173.5 -5c15.333 0 23 -6.33301 23 -19c0 -53.333 -2.5 -133.833 -7.5 -241.5
s-7.5 -188.167 -7.5 -241.5c0 -20 24.333 -83.667 73 -191c44 -96 76 -161 96 -195c10 -17.333 16.667 -26 20 -26c5.33301 0 19 32 41 96c62.667 179.333 94.667 285.333 96 318c2.66699 61.333 3 139.333 1 234c-2 136.667 -3 215 -3 235c0 12.667 1 20.167 3 22.5
s9.33301 4.5 22 6.5c34 4 92.667 6 176 6c127.333 0 191 -9 191 -27c0 -44.667 -1.66699 -114 -5 -208c-3.33301 -91.333 -4.66602 -160.666 -3.99902 -207.999v-51c0 -34 34.333 -142.333 103 -325c23.333 -63.333 37.333 -95 42 -95c3.33301 0 10 8.66699 20 26
c18.667 32.667 48.667 97.334 90 194.001c46 105.333 69 168 69 188c0 54 -2.5 134.833 -7.5 242.5s-7.5 188.167 -7.5 241.5c0 12 7.66699 18 23 18c39.333 0 98.5 1.66699 177.5 5s138.167 5 177.5 5c12.667 0 19 -13.333 19 -40c0 -52.667 1.83301 -131.5 5.5 -236.5
s5.5 -183.5 5.5 -235.5z" />
    <glyph glyph-name="X" unicode="X" horiz-adv-x="1262" 
d="M1196 133c0 -65.333 -3.00195 -104 -9.00195 -116c-7.33301 -14.667 -30 -22 -68 -22h-40c-20 0.666992 -36.833 1 -50.5 1s-34 0.666992 -61 2s-47.167 2 -60.5 2c-10.667 0 -58.667 64 -144 192s-129.666 192.333 -132.999 193c-14 -11.333 -62 -78.666 -144 -201.999
c-78.667 -118 -124.667 -179 -138 -183c-9.33301 -2.66699 -34.333 -4 -75 -4c-136.667 0 -205 7 -205 21s-0.833008 34 -2.5 60s-2.5 45.333 -2.5 58c0 82.667 5 131.334 15 146.001c0.666992 0.666992 55.667 73.667 165 219c88.667 117.333 133 184.333 133 201
s-44.333 82.667 -133 198l-167 215c-6 8.66699 -9.66699 23 -11 43c-0.666992 14 -0.666992 33 0 57c2 28.667 3 44.667 3 48c0 13.333 -1.16699 34 -3.5 62s-3.5 48.667 -3.5 62c0 12.667 11.667 19 35 19c15.333 0 38 -1 68 -3s52.333 -3 67 -3c13.333 0 33 0.666992 59 2
s45.333 2 58 2c10.667 0 59.167 -64.833 145.5 -194.5s131.5 -194.5 135.5 -194.5c13.333 8 62.333 76 147 204c80.667 123.333 127 185 139 185h238c23.333 0 35 -5.66699 35 -17v-243c0 -17.333 -51.5 -93 -154.5 -227s-154.5 -205 -154.5 -213
c0 -11.333 45.333 -77 136 -197c106.667 -140.667 162.334 -214.334 167.001 -221.001c9.33301 -14.667 14 -65.334 14 -152.001z" />
    <glyph glyph-name="Y" unicode="Y" horiz-adv-x="1272" 
d="M1239 1040c0 -28.667 -5.33203 -53.6641 -15.999 -74.9971c-87.333 -172.667 -206.333 -354.334 -357 -545.001c-21.333 -28 -32 -53.333 -32 -76c0 -35.333 2 -88.333 6 -159s6 -123.334 6 -158.001c0 -12 -2.66699 -19.333 -8 -22
c-1.33301 -0.666992 -10.333 -2.33398 -27 -5.00098c-24 -4 -84 -6 -180 -6c-96.667 0 -158.334 2 -185.001 6c-18.667 2.66699 -28 12.334 -28 29.001c0 35.333 3 89.166 9 161.499s9 126.5 9 162.5c0 21.333 -8 44.333 -24 69c-80.667 114 -196 288.667 -346 524
c-15.333 26 -23 47.333 -23 64c0 40 -2 100 -6 180s-6 140 -6 180c0 22 6.66699 33 20 33c40.667 0 102.334 -1.66699 185.001 -5s144.667 -5 186 -5c15.333 0 23 -5 23 -15c0 -34 -1.5 -85.167 -4.5 -153.5s-4.5 -119.5 -4.5 -153.5c0 -20 29.333 -70 88 -150
c46.667 -62.667 85 -111 115 -145c27.333 32 63.666 80 108.999 144c57.333 80 86 128.333 86 145c0 33.333 -2.5 83.833 -7.5 151.5s-7.5 118.167 -7.5 151.5c0 14 3 22 9 24h25c40 0 100.167 1.83301 180.5 5.5s140.833 5.5 181.5 5.5c13.333 0 20 -14.333 20 -43
c0 -35.333 0.666992 -88.5 2 -159.5s2 -124.5 2 -160.5z" />
    <glyph glyph-name="Z" unicode="Z" horiz-adv-x="1106" 
d="M993 -16c-39.333 0 -98.334 1.99902 -177.001 5.99902s-137.667 6 -177 6c-56 0 -139.667 0.666992 -251 2s-195 2 -251 2c-24 0 -37.667 7.66699 -41 23c-1.33301 42.667 -8 106 -20 190c-8 32.667 -12 51 -12 55c0 3.33301 81.667 132.5 245 387.5
s245 392.167 245 411.5c0 10.667 -8.66699 16 -26 16c-46.667 0 -117.167 -1.33301 -211.5 -4s-165.166 -4 -212.499 -4c-14.667 0 -22 7.66699 -22 23c0 24.667 7.5 72.667 22.5 144s22.5 123 22.5 155c0 10.667 9 16 27 16c92 0 230.167 -2 414.5 -6s322.5 -6 414.5 -6
c14 0 23 -7.66699 27 -23c12 -53.333 18 -129.666 18 -228.999c0 -12 -6 -27 -18 -45l-265 -402c-153.333 -236.667 -230 -360.667 -230 -372c0 -5.33301 5.66699 -8 17 -8c135.333 0 239.333 2.66699 312 8c14.667 0.666992 46.667 4.66699 96 12c42 6.66699 73 10 93 10
c9.33301 0 14 -7 14 -21c0 -108.667 -9.66699 -217 -29 -325c-2.66699 -14.667 -11 -22 -25 -22z" />
    <glyph glyph-name="bracketleft" unicode="[" horiz-adv-x="838" 
d="M773 1194c-26.667 0 -66.667 1.33301 -120 4s-93.333 4 -120 4c-30.667 0 -52 -7.33301 -64 -22c-6 -8 -12 -85 -18 -231c-4.66699 -123.333 -7 -213.666 -7 -270.999c0 -474 11.667 -756 35 -846c23.333 0 61.666 -0.333008 114.999 -1c51.333 -0.666992 90 -1 116 -1
c42.667 0 67.334 -2.33301 74.001 -7c10 -6.66699 15 -28.334 15 -65.001c0 -92 -6.33301 -139.667 -19 -143c-245.333 -2.66699 -425.333 -4 -540 -4c-46.667 0 -74.667 6 -84 18c-6.66699 8 -10.334 98.667 -11.001 272v312c-0.666992 64.667 -3.66699 211 -9 439
c-4.66699 181.333 -7 328 -7 440c0 194 11.667 298.333 35 313c5.33301 3.33301 42 5 110 5c46 0 115 0.5 207 1.5s161 1.5 207 1.5c56.667 0 89.334 -4.5 98.001 -13.5s13 -42.167 13 -99.5c0 -54.667 0.666992 -75.667 2 -63c-2 -28.667 -11.333 -43 -28 -43z" />
    <glyph glyph-name="backslash" unicode="\" horiz-adv-x="678" 
d="M437 -128c-9.33301 0 -15.667 3.66699 -19 11c-2.66699 5.33301 -16.667 56.666 -42 153.999l-89 340l-142 485c-70 246 -105 397 -105 453c0 16.667 28.333 37 85 61c52.667 23.333 89.667 35 111 35c8 0 14.667 -3.33301 20 -10c3.33301 -4 45.666 -161 126.999 -471
l142 -499c72.667 -259.333 109 -413.666 109 -462.999l-1 -11c-2.66699 -4.66699 -34.167 -20 -94.5 -46s-94.166 -39 -101.499 -39z" />
    <glyph glyph-name="bracketright" unicode="]" horiz-adv-x="838" 
d="M750 1092c0 -112 -2.33594 -258.666 -7.00293 -439.999c-5.33301 -228 -8.66602 -374.333 -9.99902 -439v-312c-0.666992 -173.333 -4 -264 -10 -272c-10 -12.667 -38 -18.667 -84 -18l-541 4c-12 5.33301 -18 53 -18 143c0 20 1.33301 39.333 4 58
c9.33301 9.33301 49.666 14 120.999 14c22 0 54.833 0.333008 98.5 1s75.5 1 95.5 1c24 90 36 372 36 846c0 57.333 -2.33301 147.666 -7 270.999c-6 146 -12 223 -18 231c-12 14.667 -33.333 22 -64 22c-27.333 0 -68.666 -1.33301 -123.999 -4s-96.666 -4 -123.999 -4
c-12.667 0 -19 35.333 -19 106c0 57.333 4.33301 90.5 13 99.5s41.334 13.5 98.001 13.5c46 0 115.167 -0.5 207.5 -1.5s161.5 -1.5 207.5 -1.5c68 0 104.667 -1.66699 110 -5c23.333 -14.667 35 -119 35 -313z" />
    <glyph glyph-name="asciicircum" unicode="^" horiz-adv-x="1067" 
d="M817 555c-7.33301 0 -17.665 6.66992 -30.998 20.0029c-102.667 112 -185.667 245.333 -249 400c-2.66699 6 -6.33398 9 -11.001 9c-4 0 -7.33301 -3 -10 -9l-31 -87c-46 -115.333 -112.667 -218 -200 -308c-13.333 -14 -23.666 -21 -30.999 -21
c-4.66699 0 -23.334 9.33301 -56.001 28c-38 22 -59 34 -63 36c-60 26.667 -90 42.334 -90 47.001c0 6 5.33301 16.667 16 32c96 139.333 157.333 231.333 184 276c56.667 93.333 104.667 192.666 144 297.999c7.33301 19.333 17.666 29 30.999 29c12 0 30 -1.16699 54 -3.5
s42 -3.5 54 -3.5c13.333 0 33.333 1.16699 60 3.5s46.334 3.5 59.001 3.5c15.333 0 25.666 -9.66699 30.999 -29c26 -96.667 66.333 -188.334 121 -275.001c6.66699 -10.667 49 -70.334 127 -179.001c72 -100.667 108 -152.667 108 -156c0 -4.66699 -4 -8.33398 -12 -11.001
c-14.667 -4 -52.667 -22 -114 -54c-58.667 -30.667 -89 -46 -91 -46z" />
    <glyph glyph-name="underscore" unicode="_" horiz-adv-x="944" 
d="M915 -416c-54 0 -135.332 1.66895 -243.999 5.00195s-190.334 5 -245.001 5c-47.333 0 -118 -1.66699 -212 -5s-164.667 -5 -212 -5c-14.667 0 -22 10.333 -22 31c0 26 2 65.5 6 118.5s6 92.833 6 119.5c0 12 7.33301 18 22 18c50 0 125.167 -1.66699 225.5 -5
s175.5 -5 225.5 -5c52 0 130.167 1 234.5 3s182.5 3 234.5 3c12.667 0 19 -7.33301 19 -22c0 -26.667 -2.16699 -67.334 -6.5 -122.001s-6.5 -95.334 -6.5 -122.001c0 -11.333 -8.33301 -17 -25 -17z" />
    <glyph glyph-name="grave" unicode="`" 
d="M657 1102c0 -12.667 -7.33203 -18.998 -21.999 -18.998h-8c-86.667 8.66699 -185.334 35.667 -296.001 81c-115.333 48 -203 100.333 -263 157c-10 8.66699 -15 16 -15 22c0 5.33301 5 11.666 15 18.999l86 53c16 15.333 41 38 75 68c4 3.33301 10 6.66602 18 9.99902
l197 -139c80 -46 144.333 -79 193 -99c13.333 -5.33301 20 -12 20 -20c0 -7.33301 -1 -18.333 -3 -33s-3 -25.667 -3 -33s1 -18.5 3 -33.5s3 -26.167 3 -33.5z" />
    <glyph glyph-name="a" unicode="a" horiz-adv-x="1204" 
d="M1090 500c0 -51.333 2.99805 -127.666 8.99805 -228.999s9 -177.333 9 -228c0 -26.667 -11.667 -41 -35 -43c-82.667 -6 -177.334 -9 -284.001 -9c-12.667 0 -21.167 19.167 -25.5 57.5s-9.5 57.833 -15.5 58.5c-5.33301 -2.66699 -12.333 -8.33398 -21 -17.001
c-74.667 -75.333 -154.667 -113 -240 -113c-130 0 -237.667 51.333 -323 154c-80.667 96 -121 210.667 -121 344c0 154 41.667 278 125 372c86.667 97.333 205.334 146 356.001 146c104.667 0 187.334 -36.667 248.001 -110c2.66699 -3.33301 5 -5 7 -5
c6 0 12.833 16.167 20.5 48.5s16.834 48.5 27.501 48.5c24.667 0 71.667 -7 141 -21c66 -13.333 113.333 -24.666 142 -33.999c10 -4 15 -9.33301 15 -16c0 -2.66699 -1 -9.66699 -3 -21c-21.333 -120.667 -32 -248.334 -32 -383.001zM767.998 494
c0 56.667 -17.833 103.5 -53.5 140.5s-82.167 55.5 -139.5 55.5s-103.666 -18.333 -138.999 -55s-53 -83.667 -53 -141c0 -54 18.667 -100.333 56 -139s82.666 -58 135.999 -58c56.667 0 103 18.5 139 55.5s54 84.167 54 141.5z" />
    <glyph glyph-name="b" unicode="b" horiz-adv-x="1206" 
d="M1169 489c0 -140 -40 -256.999 -120 -350.999c-85.333 -100 -196.666 -150 -333.999 -150c-100 0 -180.667 28.667 -242 86c-4.66699 4 -8.66699 6 -12 6c-6.66699 0 -12.834 -12.333 -18.501 -37s-12.5 -38.334 -20.5 -41.001c-11.333 -3.33301 -106.333 -5 -285 -5
c-42 0 -63 7.66699 -63 23c0 2 0.666992 7 2 15c13.333 106 20 308 20 606c0 284.667 -10 532.334 -30 743.001l-1 11c0 10.667 10.333 16.667 31 18c14.667 0.666992 72.667 5.66699 174 15c71.333 6.66699 129.333 10 174 10c12.667 0 19 -11 19 -33
c0 -26 -1.66699 -60.333 -5 -103c-4 -52.667 -6.33301 -87.334 -7 -104.001c-3.33301 -66 -5 -156 -5 -270c0 -20.667 5.33301 -31 16 -31c5.33301 0 10.333 2.66699 15 8c60 64 138.667 96 236 96c146 0 260 -49.667 342 -149c76 -92 114 -213 114 -363zM807 500.001
c0 55.333 -16.999 102.167 -50.999 140.5s-78.333 57.5 -133 57.5c-56 0 -100.167 -19.167 -132.5 -57.5s-48.5 -85.833 -48.5 -142.5c0 -58.667 15.667 -106 47 -142c33.333 -38 78.666 -57 135.999 -57c56.667 0 101.667 19.667 135 59c31.333 36.667 47 84 47 142z" />
    <glyph glyph-name="c" unicode="c" horiz-adv-x="852" 
d="M747 658c-0.666992 0 -20.8311 5.33203 -60.498 15.999s-71.834 16 -96.501 16c-59.333 0 -106.666 -17.833 -141.999 -53.5s-53 -83.167 -53 -142.5c0 -61.333 19.333 -109.5 58 -144.5s89 -52.5 151 -52.5c29.333 0 62.333 7.5 99 22.5s54 22.5 52 22.5
c11.333 0 26 -42.333 44 -127c15.333 -77.333 23 -128.666 23 -153.999s-41.333 -47 -124 -65c-64 -14 -115.667 -21 -155 -21c-146.667 0 -267.667 49.333 -363 148s-143 221.667 -143 369c0 146 47.833 268.833 143.5 368.5s216.5 149.5 362.5 149.5
c99.333 0 186.666 -21.333 261.999 -64c17.333 -9.33301 26 -18.333 26 -27s-10 -48 -30 -118c-18.667 -67.333 -30.834 -108 -36.501 -122s-11.5 -21 -17.5 -21z" />
    <glyph glyph-name="d" unicode="d" horiz-adv-x="1208" 
d="M1145 1419c0 14.667 -2.66602 -7.33203 -7.99902 -65.999c-7.33301 -74 -13 -168.667 -17 -284c-5.33301 -130.667 -8 -279.334 -8 -446.001c0 -275.333 7.66699 -471.333 23 -588c1.33301 -12.667 2 -20.667 2 -24c0 -7.33301 -5 -11.666 -15 -12.999
c-24 -3.33301 -112.333 -5 -265 -5c-36 0 -56.667 7 -62 21l-4 76c-0.666992 5.33301 -3.33398 10.666 -8.00098 15.999c-4 -2 -9 -6 -15 -12c-72 -70.667 -162 -106 -270 -106c-140.667 0 -253.334 49.333 -338.001 148c-80.667 94 -121 212.667 -121 356
c0 145.333 39.667 265 119 359c84 100 197.333 150 340 150c100.667 0 179 -32 235 -96c9.33301 -10.667 16 -16 20 -16c6 0 9 8.66699 9 26c0 51.333 -1.33301 128 -4 230s-4 178.333 -4 229c0 19.333 5.33301 30.333 16 33c42.667 2 101.334 6 176.001 12
c133.333 16.667 192.333 25 177 25c14.667 0 22 -8.33301 22 -25zM768.001 500.001c0 52.667 -18.332 98.833 -54.999 138.5s-81 59.5 -133 59.5c-54.667 0 -98.167 -19.833 -130.5 -59.5s-48.5 -87.167 -48.5 -142.5c0 -54 16.333 -99.667 49 -137
c33.333 -40 76.666 -60 129.999 -60s98 20 134 60s54 87 54 141z" />
    <glyph glyph-name="e" unicode="e" horiz-adv-x="1026" 
d="M1001 543c0 -67.333 -21.667 -105.667 -65 -115c-7.33301 -1.33301 -76.333 -8.66602 -207 -21.999c-78.667 -8.66699 -196 -19 -352 -31c9.33301 -43.333 37.666 -76.333 84.999 -99c38.667 -18.667 82.667 -28 132 -28c59.333 0 119 16 179 48l76 48
c14 -6.66699 37.5 -40.667 70.5 -102s49.5 -100.333 49.5 -117c0 -4.66699 -5 -12.334 -15 -23.001c-81.333 -87.333 -207.666 -131 -378.999 -131c-158.667 0 -286.667 46.333 -384 139c-100 94 -150 219.667 -150 377c0 153.333 44.667 279 134 377
c92 101.333 214 152 366 152c128 0 236.667 -46.667 326 -140s134 -204.333 134 -333zM651 603.999c0 41.333 -14.667 77.668 -44 109.001s-64.333 47 -105 47c-42 0 -76.667 -17.667 -104 -53c-25.333 -32.667 -38 -71 -38 -115c0 -18 9.33301 -27 28 -27
c49.333 0 126 7.66699 230 23c22 3.33301 33 8.66602 33 15.999z" />
    <glyph glyph-name="f" unicode="f" horiz-adv-x="723" 
d="M700 645c0 -16 -8.66406 -24 -25.9971 -24c-72 0 -128.667 2 -170 6c2 -50 4 -119.667 6 -209c0.666992 -38 3.66699 -104 9 -198c4.66699 -84.667 7 -150.667 7 -198c0 -14 -9.33301 -22 -28 -24c-22.667 -2.66699 -79.334 -4 -170.001 -4c-75.333 0 -124.333 2 -147 6
s-34 17.667 -34 41v551c0 19.333 -13.333 29 -40 29c-4.66699 0 -12.167 -0.333008 -22.5 -1s-17.833 -1 -22.5 -1c-18.667 0 -28.334 5.33301 -29.001 16c-6 58 -9 142.333 -9 253c0 24.667 12.667 39.667 38 45c22.667 2 45.667 3.66699 69 5
c-3.33301 53.333 -5 95 -5 125c0 114.667 22.333 198 67 250c88.667 103.333 232 155 430 155c13.333 0 21.333 -4 24 -12l23 -133c0.666992 -5.33301 5 -24 13 -56c6 -24.667 9 -43.667 9 -57c0 -16 -23.667 -26.333 -71 -31c-54.667 -6 -88.334 -16 -101.001 -30
c-22 -24 -33 -71 -33 -141c0 -22 1.66699 -42.667 5 -62c18.667 0 47.667 0.666992 87 2s69 2 89 2s30 -7.33301 30 -22c0 -31.333 0.333008 -78.5 1 -141.5s1 -110.167 1 -141.5z" />
    <glyph glyph-name="g" unicode="g" horiz-adv-x="1169" 
d="M1081 260c0 -190 -40.001 -326.335 -120.001 -409.002c-82.667 -84.667 -220 -127 -412 -127c-56 0 -132.333 9 -229 27c-123.333 22.667 -185 49.334 -185 80.001c0 12.667 14.333 78 43 196c4.66699 18.667 12 28 22 28c3.33301 -0.666992 7 -2 11 -4
c102.667 -50.667 197.667 -76 285 -76c48 0 95.667 12 143 36c57.333 28.667 86 64.667 86 108v67c-68 -64 -155.333 -96 -262 -96c-125.333 0 -228.333 45 -309 135c-78 86.667 -117 193.334 -117 320.001c0 127.333 37.333 233 112 317c78 87.333 180 131 306 131
c100.667 0 177.667 -36 231 -108c10.667 -14.667 18 -22 22 -22c6 0 9 12 9 36c0 53.333 6 80 18 80c10.667 0 68.334 -5.5 173.001 -16.5s159 -17.167 163 -18.5c11.333 -4 17 -12.667 17 -26c0 -46 -1.5 -114.667 -4.5 -206s-4.5 -160 -4.5 -206
c0 -27.333 0.333008 -68.333 1 -123s1 -95.667 1 -123zM734.999 536.998c0 48.667 -16.167 90.833 -48.5 126.5s-72.833 53.5 -121.5 53.5s-89.167 -18.167 -121.5 -54.5s-48.5 -78.833 -48.5 -127.5s16.5 -90.667 49.5 -126s73.167 -53 120.5 -53
c48.667 0 89.167 18 121.5 54s48.5 78.333 48.5 127z" />
    <glyph glyph-name="h" unicode="h" horiz-adv-x="1161" 
d="M1083 725l-1.99902 -690c0 -23.333 -9.33301 -36.333 -28 -39c-21.333 -2.66699 -70 -4 -146 -4c-73.333 0 -124.333 2.66699 -153 8c-22 4 -33 18.333 -33 43c0 57.333 1 143.666 3 258.999s3 201.666 3 258.999c0 78 -39.667 117 -119 117
c-26.667 0 -58 -10.667 -94 -32c-39.333 -23.333 -59 -47.666 -59 -72.999v-247c0 -32 0.666992 -80.167 2 -144.5s2 -112.5 2 -144.5c0 -24.667 -10.333 -38.334 -31 -41.001s-78.667 -4 -174 -4c-54.667 0 -94 2.66699 -118 8s-36 17 -36 35
c0 52.667 0.333008 131.834 1 237.501s1 184.834 1 237.501c0 218 -2.33301 398.333 -7 541c-2 50 -3.66699 100 -5 150c-3.33301 58 -9.33301 107.667 -18 149c-2 8.66699 -3 15 -3 19c0 10 5 16.667 15 20c20.667 6 51 9.66699 91 11c53.333 2 84.333 3.66699 93 5l181 21
c10.667 0 16 -7 16 -21c0 -21.333 -1.33301 -50.333 -4 -87c-2.66699 -42.667 -4 -71.667 -4 -87c-4 -150.667 -6 -269.667 -6 -357c0 -13.333 3.33301 -20 10 -20c1.33301 0 18.333 11.667 51 35c38.667 27.333 75.667 49 111 65c52.667 23.333 103.667 35 153 35
c85.333 0 156.666 -22.333 213.999 -67c62 -48 93 -113.667 93 -197z" />
    <glyph glyph-name="i" unicode="i" horiz-adv-x="563" 
d="M481 1202c0 -116 -65.333 -174.001 -196 -174.001c-56 0 -102.333 14.667 -139 44c-40 32 -60 75.333 -60 130c0 52 20.667 94.667 62 128c38 30.667 83.667 46 137 46c52 0 97 -15.667 135 -47c40.667 -33.333 61 -75.666 61 -126.999zM455 458.999
c0 -48.667 1.00098 -121.167 3.00098 -217.5s3 -168.5 3 -216.5c0 -14 -8.33301 -22.333 -25 -25c-22.667 -4 -73.667 -6 -153 -6c-80 0 -131.333 2 -154 6c-14.667 2.66699 -23.667 7 -27 13c-1.33301 2.66699 -2 12.667 -2 30c0 46 1 115.167 3 207.5s3 161.833 3 208.5
c0 189.333 -7.33301 340 -22 452c-1.33301 10.667 -2 17.667 -2 21c0 13.333 9 20 27 20c18.667 0 47.167 -2 85.5 -6s67.166 -6 86.499 -6s48.333 1.66699 87 5s67.667 5 87 5c16 0 24 -6.66699 24 -20c0 -2.66699 -0.666992 -9 -2 -19c-14.667 -130 -22 -280.667 -22 -452
z" />
    <glyph glyph-name="j" unicode="j" horiz-adv-x="569" 
d="M487 1212c0 -112 -66 -168 -198 -168c-56.667 0 -102.667 13.667 -138 41c-39.333 30 -59 72.333 -59 127c0 51.333 20.333 93.333 61 126c38 29.333 83.333 44 136 44s98 -14.667 136 -44c41.333 -32 62 -74 62 -126zM479 211c0 -138 -23.668 -241.667 -71.001 -311
c-52.667 -76.667 -143.667 -128.667 -273 -156c-38.667 -8 -80.334 -12 -125.001 -12c-26.667 0 -40 57.667 -40 173c0 58 8.66699 89.667 26 95c52.667 16 86 31.667 100 47c16.667 18.667 26.334 55.667 29.001 111c2 36 3 128 3 276c0 176 -12 335.667 -36 479
c-0.666992 6 -1 10.667 -1 14c0 16.667 9.33301 25 28 25c66.667 0 118.334 2 155.001 6c106.667 12 165 18 175 18c14 0 22 -8.66699 24 -26c4 -32 6 -162.333 6 -391v-348z" />
    <glyph glyph-name="k" unicode="k" horiz-adv-x="1231" 
d="M1196 653c0 -147.333 -72.332 -259.331 -216.999 -335.998c-13.333 -6.66699 -20 -13.667 -20 -21c0 -11.333 31 -58.5 93 -141.5s93 -126.5 93 -130.5c0 -18 -88.333 -27 -265 -27c-68 0 -107.333 8.66699 -118 26c-26.667 44.667 -68.334 108.667 -125.001 192
c-3.33301 4 -63.333 8.66699 -180 14c0 -20.667 0.333008 -53.667 1 -99s1 -79 1 -101c0 -20 -9.66699 -31 -29 -33c-12 -1.33301 -64.667 -2 -158 -2c-80.667 0 -127.667 1.33301 -141 4c-18 3.33301 -27 17 -27 41v612c0 82 -3 204.667 -9 368s-9 285.666 -9 366.999
c0 16 9 24.333 27 25c35.333 0 88.333 0.666992 159 2c18.667 1.33301 51 5.33301 97 12c40.667 6 72.667 9 96 9c10.667 0 16 -9.66699 16 -29c0 -25.333 -2 -59.666 -6 -102.999c-4.66699 -50.667 -7.33398 -85.334 -8.00098 -104.001c-6 -143.333 -9 -254.333 -9 -333
c0 -18.667 2.33301 -28.334 7 -29.001c6 4 14 11.333 24 22c86.667 90 192 135 316 135c116.667 0 209.334 -26.667 278.001 -80c75.333 -59.333 113 -146 113 -260zM799.001 588.002c0 80.667 -45.667 121 -137 121c-40.667 0 -84 -15.333 -130 -46
c-49.333 -32.667 -74 -68.334 -74 -107.001c0 -55.333 7.66699 -88.666 23 -99.999c12 -8 50.333 -12 115 -12c135.333 0 203 48 203 144z" />
    <glyph glyph-name="l" unicode="l" horiz-adv-x="547" 
d="M449 602c0 -182 0.666016 -321.667 1.99902 -419c0 -15.333 1 -41.666 3 -78.999c2 -34 3 -60.333 3 -79c0 -14 -8.33301 -22.333 -25 -25c-30 -5.33301 -84 -8 -162 -8c-80 0 -131 2.66699 -153 8c-14.667 3.33301 -23 12.333 -25 27v43
c0 59.333 0.666992 148.166 2 266.499s2 206.833 2 265.5c0 280 0.333008 407.667 1 383c-2 147.333 -10.333 274.333 -25 381c-1.33301 7.33301 -2 13 -2 17c0 14.667 8.66699 22 26 22h357c16.667 0 24.334 -7 23.001 -21l-1 -18c-17.333 -288 -26 -542.667 -26 -764z" />
    <glyph glyph-name="m" unicode="m" horiz-adv-x="1788" 
d="M1683 37c0 -23.333 -10.0039 -36.3301 -30.0039 -38.9971s-69.333 -4 -148 -4c-81.333 0 -132 2 -152 6s-30 20.333 -30 49c0 30.667 1 76.5 3 137.5s3 106.833 3 137.5c0 116.667 -1.33301 199.667 -4 249c-4 79.333 -41.667 119 -113 119
c-31.333 0 -62.5 -13.167 -93.5 -39.5s-48.167 -55.5 -51.5 -87.5c-2.66699 -28 -4 -110 -4 -246c0 -31.333 1 -78.833 3 -142.5s3 -111.5 3 -143.5c0 -22 -9.66699 -33 -29 -33h-303c-18.667 0 -28 13.667 -28 41c0 31.333 1 78.333 3 141s3 110 3 142
c0 24.667 -0.666992 62 -2 112s-2 87.667 -2 113c0 95.333 -36.333 143 -109 143c-29.333 0 -61 -11.333 -95 -34c-37.333 -24.667 -56 -50.667 -56 -78c0 -60.667 0.333008 -151.334 1 -272.001s1 -211 1 -271c0 -16.667 -2 -27 -6 -31s-14.333 -6.66699 -31 -8
c-30 -2.66699 -77.333 -4 -142 -4c-42 0 -89.667 2 -143 6c-16 1.33301 -25.5 3.66602 -28.5 6.99902s-4.5 13.333 -4.5 30c0 53.333 0.333008 133.166 1 239.499s1 186.166 1 239.499c0 109.333 -8 232.333 -24 369c-1.33301 8 -2 14 -2 18c0 11.333 4.66699 19 14 23
c14.667 6 42.334 11 83.001 15c50 4.66699 79.667 7.66699 89 9c6.66699 1.33301 33 8.33301 79 21c32.667 9.33301 59 14 79 14c12.667 0 19.334 -23.167 20.001 -69.5s3.33398 -69.5 8.00098 -69.5c6.66699 2.66699 14.334 7.33398 23.001 14.001
c60 46.667 107.333 78.667 142 96c51.333 24.667 107 37 167 37c61.333 0 116 -13.667 164 -41c54 -30.667 89 -73.667 105 -129c35.333 48 84 88.333 146 121s122.333 49 181 49c88 0 159.667 -20.333 215 -61c62.667 -46 94 -111.667 94 -197
c0 -35.333 -1 -88.5 -3 -159.5s-3 -124.167 -3 -159.5c0 -42 1 -105.167 3 -189.5s3 -147.5 3 -189.5z" />
    <glyph glyph-name="n" unicode="n" horiz-adv-x="1161" 
d="M1079 29c0 -18 -9.33301 -28.335 -28 -31.002s-67.334 -4 -146.001 -4c-84 0 -136 2 -156 6s-30 17.667 -30 41c0 31.333 1 78.666 3 141.999s3 111 3 143c0 24.667 -0.666992 61.5 -2 110.5s-2 85.833 -2 110.5c0 91.333 -39.667 137 -119 137
c-26 0 -56.333 -11.333 -91 -34c-37.333 -25.333 -56 -50.333 -56 -75v-540c0 -22 -10.333 -34.333 -31 -37c-23.333 -2.66699 -71 -4 -143 -4c-78 0 -128.667 2 -152 6c-20.667 3.33301 -31 14.333 -31 33c0 52 0.333008 130.333 1 235s1 183.334 1 236.001
c0 166 -13 296.333 -39 391c-1.33301 6 -2 11 -2 15c0 10.667 5 18 15 22c42 4.66699 98 12 168 22c106 20.667 165.667 31 179 31c7.33301 0 13 -22.5 17 -67.5s9.66699 -67.5 17 -67.5c-7.33301 0 28.5 23.167 107.5 69.5s148.167 69.5 207.5 69.5
c84.667 0 155.334 -20 212.001 -60c63.333 -46 95 -110 95 -192v-319c0 -43.333 0.333008 -108.166 1 -194.499s1 -151.166 1 -194.499z" />
    <glyph glyph-name="o" unicode="o" horiz-adv-x="1083" 
d="M1047 492c0 -152 -46.5 -275.333 -139.5 -370s-215.167 -142 -366.5 -142c-146.667 0 -267.334 46.667 -362.001 140s-142 213.333 -142 360c0 154.667 45.333 280.167 136 376.5s213.334 144.5 368.001 144.5c150.667 0 272.667 -47.167 366 -141.5
s140 -216.833 140 -367.5zM719 492c0 52.667 -16.333 99.167 -49 139.5s-75 60.5 -127 60.5c-52.667 0 -96 -20.667 -130 -62c-32 -38.667 -48 -84.667 -48 -138c0 -54 16 -100.333 48 -139c34 -41.333 77.333 -62 130 -62c52 0 95 20.667 129 62
c31.333 38.667 47 85 47 139z" />
    <glyph glyph-name="p" unicode="p" horiz-adv-x="1233" 
d="M1188 481c0 -142.667 -41.999 -261.001 -125.999 -355.001c-86.667 -97.333 -200.334 -146 -341.001 -146c-51.333 0 -106.333 12.667 -165 38s-85.334 38 -80.001 38c-8.66699 0 -13 -10 -13 -30c0 -34 1.66699 -85.167 5 -153.5s5 -119.5 5 -153.5
c0 -21.333 -11 -32 -33 -32l-204 -1c-46 0 -75.667 1.66699 -89 5c-20 4.66699 -30 17 -30 37l2 770c0 155.333 -11.667 286.333 -35 393c-1.33301 6.66699 -2 12.334 -2 17.001c0 10 4 16.667 12 20c26 10 75.667 20.667 149 32c71.333 11.333 123 17 155 17
c26 0 40.833 -17.167 44.5 -51.5s8.16699 -51.5 13.5 -51.5c-6.66699 0 21.833 18.167 85.5 54.5s121.5 54.5 173.5 54.5c144.667 0 260.334 -47.667 347.001 -143c84 -92 126 -211.667 126 -359zM817.001 482.999c0 53.333 -16.332 100 -48.999 140
c-35.333 42 -79 63 -131 63c-53.333 0 -96 -21 -128 -63c-28 -38 -42 -84.667 -42 -140c0 -56.667 14.667 -103.667 44 -141c31.333 -40.667 74.666 -61 129.999 -61c117.333 0 176 67.333 176 202z" />
    <glyph glyph-name="q" unicode="q" horiz-adv-x="1212" 
d="M1102 365l0.000976562 -142c0 -54 1.66699 -135.833 5 -245.5s5 -191.5 5 -245.5c0 -20 -10.333 -31 -31 -33c-28.667 -2.66699 -76.334 -4 -143.001 -4c-18 0 -45 -1.33301 -81 -4s-63 -4 -81 -4c-13.333 0 -20 10 -20 30c0 39.333 0.333008 98.5 1 177.5
s1 138.167 1 177.5c0 9.33301 -3 14 -9 14c10.667 0 -16.333 -18.167 -81 -54.5s-127 -54.5 -187 -54.5c-132 0 -240 51.667 -324 155c-78.667 96.667 -118 212.334 -118 347.001c0 144.667 38 265.334 114 362.001c82 104 193.333 156 334 156
c107.333 0 188.666 -30.667 243.999 -92c4 -5.33301 10.667 -11.333 20 -18c6 6 9.33301 19.333 10 40v43c2 25.333 13.333 38 34 38c54.667 0 116.334 -3.33301 185.001 -10c96 -8.66699 144 -20.334 144 -35.001l-2 -23c-13.333 -178.667 -20 -370.334 -20 -575.001z
M752.001 496c0 58 -15.001 105.334 -45.001 142.001c-32 40 -76.667 60 -134 60c-53.333 0 -96 -20.333 -128 -61c-29.333 -38 -44 -84.333 -44 -139c0 -56 16.333 -102.667 49 -140c34.667 -39.333 79.334 -59 134.001 -59s97 19.333 127 58
c27.333 35.333 41 81.666 41 138.999z" />
    <glyph glyph-name="r" unicode="r" horiz-adv-x="780" 
d="M748 623c0 -26 -14.333 -39 -43 -39c-12.667 0 -31.167 0.833008 -55.5 2.5s-42.5 2.5 -54.5 2.5c-55.333 0 -93 -8.66699 -113 -26s-30 -52.333 -30 -105c0 -28.667 0.5 -72.167 1.5 -130.5s1.5 -101.833 1.5 -130.5c0 -19.333 1.33301 -48.166 4 -86.499
s4 -66.833 4 -85.5c0 -16 -11 -25 -33 -27c-32 -2.66699 -81 -4 -147 -4c-63.333 0 -114 2 -152 6c-22 2.66699 -33 13.667 -33 33c0 53.333 0.333008 133.166 1 239.499s1 186.166 1 239.499c0 156.667 -14.333 285.667 -43 387c-1.33301 6 -2 11 -2 15
c0 10 5 16.667 15 20c36.667 4 90.334 11.333 161.001 22c105.333 20.667 159.666 31 162.999 31c12 0 19.667 -21 23 -63s9.33301 -63 18 -63c-9.33301 0 18 17.5 82 52.5s125.667 52.5 185 52.5c37.333 0 56 -8 56 -24c0 -19.333 -2 -46.666 -6 -81.999
c-4 -38 -6.33301 -65.333 -7 -82c0 -19.333 0.333008 -45 1 -77c1.33301 -39.333 2 -65.333 2 -78z" />
    <glyph glyph-name="s" unicode="s" horiz-adv-x="729" 
d="M670 809c0 -6.66699 -5 -15.668 -15 -27.001c-18.667 4.66699 -37.334 7 -56.001 7c-39.333 0 -72.333 -8.66699 -99 -26c-32 -20 -48 -48.333 -48 -85c0 -23.333 17 -53 51 -89c51.333 -54 83 -90.333 95 -109c34 -50.667 51 -105 51 -163c0 -34 -6.66699 -70 -20 -108
c-15.333 -42 -34.666 -72.667 -57.999 -92c-49.333 -42.667 -107 -78.667 -173 -108c-71.333 -30.667 -137 -46 -197 -46c-13.333 0 -43.166 36.167 -89.499 108.5s-69.5 116.5 -69.5 132.5c0 6 3.66699 9.66699 11 11l141 26c58.667 18.667 88 49.334 88 92.001
c0 29.333 -17 63.333 -51 102c-60.667 67.333 -92.334 103 -95.001 107c-34 48 -51 98.667 -51 152c0 100 50.667 185 152 255c90.667 62 187.667 93 291 93c10.667 0 37 -35.833 79 -107.5s63 -113.5 63 -125.5z" />
    <glyph glyph-name="t" unicode="t" horiz-adv-x="774" 
d="M754 293c0 -20 -2.50098 -50.333 -7.50098 -91s-7.5 -70.5 -7.5 -89.5s-2 -31.167 -6 -36.5s-15 -13 -33 -23c-86 -47.333 -181.333 -71 -286 -71c-192.667 0 -289 73.667 -289 221c0 44 1.66699 110.167 5 198.5s5 154.5 5 198.5c0 29.333 -17 44 -51 44h-13
c-6 -0.666992 -10.333 -1 -13 -1c-25.333 0 -38 9 -38 27c0 10.667 0.833008 27 2.5 49s2.5 38.333 2.5 49c0 14 -0.833008 35.333 -2.5 64s-2.5 50 -2.5 64c0 13.333 21.333 20.666 64 21.999c24 0.666992 37 7.33398 39 20.001c4 25.333 5.33301 65.333 4 120
c-2.66699 86 -4 127 -4 123c0 77.333 7.33301 116 22 116c18 0 43.667 -4 77 -12c38 -8.66699 64.333 -13.667 79 -15c34 -4.66699 85.333 -11 154 -19c16.667 -1.33301 25 -7 25 -17c0 -26.667 -2.16699 -67 -6.5 -121s-6.5 -94.667 -6.5 -122
c0 -32.667 9.66699 -49 29 -49c23.333 0 58.666 1 105.999 3s83 3 107 3c14.667 0 22 -5 22 -15c0 -15.333 -1.66699 -38.333 -5 -69s-5 -53.667 -5 -69c0 -16 0.333008 -39.333 1 -70s1 -54 1 -70c0 -14 -9.66699 -21 -29 -21c-13.333 0 -35.666 0.5 -66.999 1.5
s-53.666 1.5 -66.999 1.5h-75c-10 0 -15 -14.667 -15 -44v-71c0.666992 -32 1 -55.667 1 -71c0 -56 6.33301 -94.667 19 -116c18 -28.667 53.333 -43 106 -43c16.667 0 40.5 3.83301 71.5 11.5s52.833 11.5 65.5 11.5c14 0 21 -7.33301 21 -22z" />
    <glyph glyph-name="u" unicode="u" horiz-adv-x="1194" 
d="M1114 909c0 -49.333 -2.33105 -123.333 -6.99805 -222s-7 -172.667 -7 -222c0 -48 1.66699 -120 5 -216s5 -167.667 5 -215c0 -18 -8.33301 -29.333 -25 -34c-25.333 -6.66699 -79 -10 -161 -10c-72.667 0 -123.334 2 -152.001 6c-12.667 2 -20.667 10 -24 24l-6 60
c-3.33301 30.667 -8 46 -14 46c9.33301 0 -24.334 -22.667 -101.001 -68s-146.334 -68 -209.001 -68c-176.667 0 -281.334 79.667 -314.001 239c-14.667 74 -22 181.333 -22 322c0 152 12.333 272 37 360c7.33301 27.333 21 41 41 41c30.667 0 77.334 -0.333008 140.001 -1
s109.334 -1 140.001 -1c20.667 0 31 -8.66699 31 -26c0 -4.66699 -0.666992 -11.667 -2 -21c-14 -90.667 -21 -182.667 -21 -276c0 -116 3.66699 -195.333 11 -238c12 -73.333 55.667 -110 131 -110c29.333 0 61.166 13 95.499 39s52.166 53 53.499 81
c1.33301 24.667 2 192 2 502c0 22 1.66699 35 5 39c4 6.66699 16 10 36 10c32.667 0 81.834 -0.333008 147.501 -1s114.834 -1 147.501 -1c20 0 31.667 -5 35 -15c1.33301 -5.33301 2 -13.333 2 -24z" />
    <glyph glyph-name="v" unicode="v" horiz-adv-x="1098" 
d="M1047 694c0 -114 -3.66992 -181.33 -11.0029 -201.997c-15.333 -47.333 -61.333 -127.666 -138 -240.999c-66.667 -97.333 -123.667 -173.333 -171 -228c-17.333 -20.667 -69.666 -31 -156.999 -31c-76 0 -125.333 2.66699 -148 8c-14 3.33301 -25.667 10 -35 20
c-40 43.333 -97 118.666 -171 225.999c-79.333 115.333 -126.666 194.333 -141.999 237c-16.667 46 -25 115 -25 207c0 26 0.333008 65.167 1 117.5s1 91.833 1 118.5c0 17.333 11.667 26 35 26c34 0 85.167 -1 153.5 -3s119.5 -3 153.5 -3c15.333 0 23 -10.333 23 -31
c0 -18.667 -1.33301 -46.834 -4 -84.501s-4 -66.167 -4 -85.5c0 -69.333 2 -126 6 -170c2 -22.667 21.333 -65.334 58 -128.001c38 -66 65.667 -99 83 -99c16.667 0 43.334 32.333 80.001 97c35.333 60.667 54.333 102 57 124c5.33301 47.333 8 104.666 8 171.999
c0 19.333 -2 48.5 -6 87.5s-6 67.833 -6 86.5c0 20.667 7 31 21 31c16 0 39.833 -0.333008 71.5 -1s55.5 -1 71.5 -1s40.167 1.33301 72.5 4s56.5 4 72.5 4c16.667 0 27.667 -8.66699 33 -26c11.333 -38 17 -115.333 17 -232z" />
    <glyph glyph-name="w" unicode="w" horiz-adv-x="1550" 
d="M1520 700c0 -104 -8.33301 -176.33 -25 -216.997c-17.333 -42.667 -60.666 -122 -129.999 -238c-70.667 -119.333 -119.334 -193.333 -146.001 -222c-18 -19.333 -62 -29 -132 -29c-58 0 -94.667 2 -110 6c-12.667 3.33301 -24.334 10 -35.001 20
c-38 37.333 -96.667 129 -176 275c-84 -150 -141.333 -241.667 -172 -275c-16 -17.333 -59.667 -26 -131 -26c-50.667 0 -83.334 2 -98.001 6c-33.333 9.33301 -89.666 81.666 -168.999 216.999c-64.667 110.667 -111 199.334 -139 266.001c-17.333 42.667 -26 115 -26 217
c0 123.333 3.33301 198.666 10 225.999c4.66699 17.333 16.334 26 35.001 26c30.667 0 76.667 -1 138 -3s107.333 -3 138 -3c15.333 0 23 -11 23 -33c0 -19.333 -0.666992 -48.833 -2 -88.5s-2 -69.167 -2 -88.5c0 -80.667 2 -140.334 6 -179.001
c1.33301 -14.667 19.166 -52.167 53.499 -112.5s55.5 -90.5 63.5 -90.5c12 0 34 29.667 66 89c26 50 43 87.167 51 111.5s12 84.5 12 180.5c0 20 -1.83301 49.833 -5.5 89.5s-5.5 69.167 -5.5 88.5c0 20.667 7.66699 31 23 31c18.667 0 55.667 0.333008 111 1l41 1
c-0.666992 0 -1.83398 0.166992 -3.50098 0.5s-2.16699 0.166016 -1.5 -0.500977h7h26c25.333 0.666992 62.333 0 111 -2c14.667 -2 22 -12.333 22 -31c0 -25.333 -1.66699 -63.833 -5 -115.5s-5 -90.167 -5 -115.5c0 -68 2.66699 -111 8 -129
c7.33301 -22.667 23.333 -59 48 -109c30 -60 51 -90 63 -90s34.333 30.333 67 91c31.333 58 48 96 50 114c2.66699 25.333 4 143.333 4 354c0 23.333 6.66699 35 20 35c30.667 0 76.834 1 138.501 3s107.834 3 138.501 3c18 0 29.333 -9.33301 34 -28
c7.33301 -28 11 -103.333 11 -226z" />
    <glyph glyph-name="x" unicode="x" horiz-adv-x="1001" 
d="M967 27c0 -14.667 -10.999 -23.665 -32.999 -26.998c-39.333 -5.33301 -81 -8 -125 -8c-46.667 0 -85.667 2.66699 -117 8c-8 1.33301 -20.333 8 -37 20l-149 209l-164 -206c-8.66699 -12 -21 -19.667 -37 -23c-23.333 -5.33301 -60 -8 -110 -8
c-105.333 0 -158 11.667 -158 35c0 19.333 0.333008 48.833 1 88.5s1 69.5 1 89.5c0 11.333 6 23.666 18 36.999l230 245l-139 134c-74 72.667 -111 115.667 -111 129v176c0 17.333 11.667 26 35 26c26.667 0 66.5 -1 119.5 -3s92.833 -3 119.5 -3
c13.333 0 25.666 -7.33301 36.999 -22c36.667 -48.667 88 -110.334 154 -185.001c60 72.667 107.667 134.334 143 185.001c10 13.333 22.333 20 37 20c28 0 69.667 1.33301 125 4s97 4 125 4c23.333 0 35 -8.66699 35 -26v-176c0 -12.667 -5.66699 -24.334 -17 -35.001
l-225 -234l225 -241c11.333 -12.667 17 -25 17 -37v-176z" />
    <glyph glyph-name="y" unicode="y" horiz-adv-x="1102" 
d="M1067 713c0 -129.333 -4 -207.998 -12 -235.998c-10 -33.333 -83 -154 -219 -362c-21.333 -32.667 -76.333 -108.334 -165 -227.001c-98 -130.667 -153.667 -199.667 -167 -207c-16 -10 -118.333 -15 -307 -15c-28.667 0 -48 3.33301 -58 10
c-8.66699 27.333 -19.667 59.666 -33 96.999l-32 71c-15.333 34.667 -23 57.667 -23 69c0 12.667 5.66699 19 17 19c185.333 0 278 42.333 278 127c0 7.33301 -45.333 73.666 -136 198.999c-94 128.667 -145.667 210 -155 244c-5.33301 19.333 -8 88.333 -8 207
c0 24 0.666992 60.167 2 108.5s2 84.5 2 108.5c0 17.333 11 26 33 26c34 0 85.5 -1 154.5 -3s120.5 -3 154.5 -3c14 0 21 -10.333 21 -31c0 -18.667 -1 -46.834 -3 -84.501s-3 -65.834 -3 -84.501c0 -84 1.33301 -141 4 -171c2 -23.333 22 -66.666 60 -129.999
c40 -66 69 -99 87 -99c15.333 0 41.333 32.667 78 98c34 62 52.333 103.667 55 125c6.66699 58.667 10 122.334 10 191.001c0 18 -1.66699 45.333 -5 82s-5 64.334 -5 83.001c0 12.667 7 19 21 19c34 0 84.833 1.33301 152.5 4s118.5 4 152.5 4c17.333 0 29 -8.66699 35 -26
c9.33301 -30.667 14 -101.667 14 -213z" />
    <glyph glyph-name="z" unicode="z" horiz-adv-x="958" 
d="M855 -13c-22.667 0 -54.6689 2.33105 -96.002 6.99805c-44.667 4.66699 -76.334 7.33398 -95.001 8.00098c-43.333 1.33301 -112.333 2 -207 2c-109.333 0 -186.666 -1.33301 -231.999 -4c-9.33301 -0.666992 -32.666 -2.66699 -69.999 -6
c-29.333 -3.33301 -53 -5 -71 -5c-12 0 -18 8.33301 -18 25c-0.666992 16.667 -0.666992 39 0 67c1.33301 32.667 2 54.667 2 66c0 12.667 -2.16699 31.334 -6.5 56.001s-6.5 42.667 -6.5 54c0 8.66699 5 17.334 15 26.001c136 116 260.667 234.667 374 356
c-15.333 0 -38.666 0.666992 -69.999 2s-55 2 -71 2c-24 0 -60.5 -1.16699 -109.5 -3.5s-85.5 -3.5 -109.5 -3.5c-11.333 0 -17 4 -17 12c0 15.333 10.333 60.166 31 134.499s31 129.5 31 165.5c0 11.333 11.667 17 35 17c2 0 41.667 -4.33301 119 -13
c64 -6.66699 150.667 -10 260 -10c36 0 89.833 0.666992 161.5 2s125.5 2 161.5 2c22 0 33 -9.33301 33 -28v-216c0 -22.667 -127 -157.667 -381 -405c196 0 329.333 6.66699 400 20c6 1.33301 10.333 2 13 2c9.33301 0 14 -3.66699 14 -11c0 10.667 -14 -42 -42 -158
c-4.66699 -32 -12.667 -79.333 -24 -142c-3.33301 -14 -11.333 -21 -24 -21z" />
    <glyph glyph-name="braceleft" unicode="{" horiz-adv-x="801" 
d="M726 -390c0 -4 -6.33203 -7.66504 -18.999 -10.998c-32.667 -10 -92.334 -15 -179.001 -15c-114.667 0 -200.667 17 -258 51c-73.333 43.333 -110 119.333 -110 228c0 37.333 17.667 106.166 53 206.499s53 167.833 53 202.5c0 43.333 -19.333 78.666 -58 105.999
c-35.333 24 -75.333 36 -120 36c-18 0 -27 6.66699 -27 20c0 8.66699 2.16699 21.834 6.5 39.501s6.5 31.167 6.5 40.5s-2.16699 22.833 -6.5 40.5s-6.5 30.834 -6.5 39.501c0 13.333 9 20 27 20c45.333 0 86 12.667 122 38c40 28 60 64 60 108
c0 33.333 -18.333 100 -55 200s-55 168.333 -55 205c0 108.667 36.667 184.667 110 228c56.667 34 142.667 51 258 51c86.667 0 146.334 -4.66699 179.001 -14c12.667 -4 19 -8 19 -12c0 -11.333 -1.83301 -28.5 -5.5 -51.5s-5.5 -40.167 -5.5 -51.5
c0 -10.667 0.333008 -26.5 1 -47.5s1 -36.5 1 -46.5c0 -15.333 -7.66699 -23 -23 -23c-18 0 -45.167 2.33301 -81.5 7s-63.833 7 -82.5 7c-46.667 0 -70 -34 -70 -102c0 -32 12 -86 36 -162s36 -132 36 -168c0 -52 -11.333 -105.667 -34 -161
c-29.333 -70 -67 -105 -113 -105c45.333 0 84.333 -24.667 117 -74c29.333 -44.667 44 -90.334 44 -137.001c0 -42 -14.333 -108.5 -43 -199.5s-43 -154.5 -43 -190.5c0 -70.667 25.667 -106 77 -106c18.667 0 46.667 4 84 12s64.666 12 81.999 12c10.667 0 16 -8 16 -24
c0 -10.667 -1 -26.834 -3 -48.501s-3 -38.167 -3 -49.5s2.16699 -28 6.5 -50s6.5 -38.333 6.5 -49z" />
    <glyph glyph-name="bar" unicode="|" horiz-adv-x="637" 
d="M443 -95c0.666992 -10 -3.66797 -16.667 -13.001 -20c-133.333 -16.667 -205.666 -25 -216.999 -25c-7.33301 0 -12 7.66699 -14 23c0.666992 -4.66699 1 37 1 125l1 709c0 72 -2.5 179.667 -7.5 323s-7.5 250.666 -7.5 321.999c0 18 4.33301 29.667 13 35
c28.667 17.333 73.667 26 135 26c62 0 94 -10 96 -30c2 -20.667 2 -62.334 0 -125.001c-2.66699 -80.667 -4 -124.667 -4 -132c0 -51.333 0.333008 -128.666 1 -231.999s1 -180.666 1 -231.999c0 -316 4.66699 -568.667 14 -758z" />
    <glyph glyph-name="braceright" unicode="}" horiz-adv-x="801" 
d="M739 434c0 -13.333 -8.66699 -20.002 -26 -20.002c-45.333 0 -85.333 -12 -120 -36c-38.667 -27.333 -58 -62.666 -58 -105.999c0 -34.667 17.667 -102.167 53 -202.5s53 -169.166 53 -206.499c0 -108.667 -36.667 -184.667 -110 -228
c-57.333 -34 -143.666 -51 -258.999 -51c-86 0 -145.333 5 -178 15c-12.667 3.33301 -19 7 -19 11c0 10.667 2.16699 27 6.5 49s6.5 38.667 6.5 50s-1 27.833 -3 49.5s-3 37.834 -3 48.501c0 16 5.33301 24 16 24c17.333 0 44.666 -4 81.999 -12s65.333 -12 84 -12
c51.333 0 77 35.333 77 106c0 36 -14.5 99.5 -43.5 190.5s-43.5 157.5 -43.5 199.5c0 46.667 15 92.334 45 137.001c32.667 49.333 71.667 74 117 74c-46 0 -83.667 35 -113 105c-23.333 55.333 -35 109 -35 161c0 36 12.167 92 36.5 168s36.5 130 36.5 162
c0 68 -23.667 102 -71 102c-18 0 -45.167 -2.33301 -81.5 -7s-63.833 -7 -82.5 -7c-14.667 0 -22 7.66699 -22 23c0 10 0.333008 25.5 1 46.5s1 36.833 1 47.5c0 11.333 -1.83301 28.5 -5.5 51.5s-5.5 40.167 -5.5 51.5c0 4 6.33301 8 19 12c32.667 9.33301 92 14 178 14
c116 0 202.333 -17 259 -51c73.333 -43.333 110 -119.333 110 -228c0 -36.667 -18.5 -105 -55.5 -205s-55.5 -166.667 -55.5 -200c0 -44 20.333 -80 61 -108c36 -25.333 76.667 -38 122 -38c17.333 0 26 -6.66699 26 -20c0 -8.66699 -2 -21.834 -6 -39.501
s-6 -31.167 -6 -40.5s2 -22.833 6 -40.5s6 -30.834 6 -39.501z" />
    <glyph glyph-name="asciitilde" unicode="~" horiz-adv-x="1106" 
d="M1107 612c0 -10.667 -26.665 -37 -79.998 -79c-40 -32 -72.333 -56 -97 -72c-78.667 -52 -148.334 -78 -209.001 -78c-54 0 -107.833 16.167 -161.5 48.5s-94.167 48.5 -121.5 48.5c-29.333 0 -70.333 -21.5 -123 -64.5s-81.334 -64.5 -86.001 -64.5
c-6.66699 0 -14 5.33301 -22 16c-18 26.667 -46 66 -84 118c-18 23.333 -51.333 59 -100 107c-8 7.33301 -12 13.666 -12 18.999c0 20.667 58.333 72.334 175 155.001c85.333 60.667 160 91 224 91c46 0 91.333 -17.667 136 -53s82.667 -53 114 -53
c39.333 0 91.5 23.667 156.5 71s98.167 71 99.5 71c6 0 12.667 -6.33301 20 -19l92 -139c52.667 -78 79 -119 79 -123z" />
    <glyph glyph-name="nonbreakingspace" unicode="&#xa0;" horiz-adv-x="256" 
 />
    <glyph glyph-name="exclamdown" unicode="&#xa1;" horiz-adv-x="573" 
d="M473 1221c0 -56.667 -17.333 -103 -52 -139s-80 -54 -136 -54s-101.5 18.167 -136.5 54.5s-52.5 82.5 -52.5 138.5s17.5 102.333 52.5 139s80.5 55 136.5 55s101.333 -18.167 136 -54.5s52 -82.833 52 -139.5zM475 571c0 -26.667 -1.33301 -67.165 -4 -121.498
s-4 -94.833 -4 -121.5c0 -34.667 1 -86.667 3 -156s3 -121.333 3 -156c0 -24 -6 -36 -18 -36c-18.667 0 -46.667 1.33301 -84 4s-65.333 4 -84 4s-46.667 -1.33301 -84 -4s-65.333 -4 -84 -4c-12.667 0 -19 12 -19 36c0 27.333 -0.333008 68.333 -1 123s-1 95.667 -1 123
c0 121.333 11.333 235.666 34 342.999l79 327c5.33301 24.667 32 37 80 37c26 0 45 -1.33301 57 -4c17.333 -4 28.333 -13.667 33 -29c62.667 -202.667 94 -324.334 94 -365.001z" />
    <glyph glyph-name="cent" unicode="&#xa2;" horiz-adv-x="836" 
d="M743 795c-3.33301 0 -21.834 5.16602 -55.501 15.499s-56.834 15.833 -69.501 16.5l-69 -428c8.66699 -1.33301 21 -2 37 -2c30.667 0 67 8.5 109 25.5s61.333 25.5 58 25.5c6.66699 0 13 -6.66699 19 -20c0.666992 -1.33301 7.16699 -41.666 19.5 -120.999
s18.5 -121 18.5 -125c0 -28 -45.333 -50.333 -136 -67c-66.667 -12.667 -124.667 -19 -174 -19c-11.333 -62.667 -18.666 -94 -21.999 -94c-69.333 0 -108 2.66699 -116 8c-3.33301 2.66699 -5 7.33398 -5 14.001c0 11.333 5.33301 43 16 95
c-109.333 34 -195.333 96.333 -258 187c-60 88 -90 190 -90 306c0 150.667 48.667 274.667 146 372s221.333 146 372 146c4 35.333 12.333 70.666 25 105.999c0.666992 0 21.667 -5.66699 63 -17c32 -8.66699 48 -16 48 -22c0 9.33301 -4.33301 -17.667 -13 -81
c101.333 -26.667 152 -52 152 -76c0 -2.66699 -8.66699 -38.5 -26 -107.5s-27.333 -107.5 -30 -115.5c-5.33301 -14.667 -11.666 -22 -18.999 -22zM488.999 816.999c-88.667 -28.667 -133 -96.333 -133 -203c0 -71.333 24 -126.333 72 -165z" />
    <glyph glyph-name="sterling" unicode="&#xa3;" horiz-adv-x="997" 
d="M506 -2c-92 0 -176.003 -3.33301 -252.003 -10c-85.333 -8 -121.333 -12 -108 -12c-8.66699 0 -15 6 -19 18c-6.66699 19.333 -14.834 59.166 -24.501 119.499s-14.5 100.5 -14.5 120.5c0 12.667 8.33301 20 25 22c142.667 16 214 69 214 159
c0 10.667 -1 20.334 -3 29.001c-27.333 -2.66699 -80.666 -4 -159.999 -4h-73c-12 5.33301 -18 27.666 -18 66.999c0 100 3.66699 160.333 11 181c5.33301 15.333 15 23 29 23c7.33301 0 18.833 -0.333008 34.5 -1s27.167 -1 34.5 -1c-45.333 79.333 -68 146 -68 200
c0 107.333 48.333 191 145 251c82 51.333 180 77 294 77c142 0 260 -34 354 -102c10 -7.33301 15 -17.333 15 -30c0 2.66699 -7 -25 -21 -83c-4 -16.667 -9.33301 -55.667 -16 -117c-0.666992 -10 -5 -21.667 -13 -35c-1.33301 -0.666992 -4 -1 -8 -1
c6 0 -29.167 19 -105.5 57s-142.833 57 -199.5 57c-79.333 0 -119 -39 -119 -117c0 -41.333 25.333 -93.666 76 -156.999c29.333 -1.33301 121 -2 275 -2c24 0 36 -44 36 -132c0 -90 -15 -135 -45 -135c-50 0 -97 1.33301 -141 4c4 -19.333 6 -37 6 -53
c0 -54 -25.333 -96.333 -76 -127c46.667 0 117.834 0.666992 213.501 2s167.167 2 214.5 2c18 0 27 -3.66699 27 -11c0 -42.667 -10.333 -121.667 -31 -237c-2 -13.333 -11.333 -20 -28 -20c-51.333 0 -128.166 -0.333008 -230.499 -1s-179.166 -1 -230.499 -1z" />
    <glyph glyph-name="currency" unicode="&#xa4;" horiz-adv-x="1221" 
d="M1095 1099l-177 -178v-395l177 -177l-118 -118l-194 194h-330l-193 -194l-118 118l177 178v395l-177 177l118 118l194 -194h330l193 194zM754 574v302h-271v-303z" />
    <glyph glyph-name="yen" unicode="&#xa5;" horiz-adv-x="1450" 
d="M1423 952c0 -9.33301 -0.666992 -23.3301 -2 -41.9971s-2 -32.667 -2 -42v-71c0 -10.667 -51 -14.334 -153 -11.001c-36 -52.667 -88 -133 -156 -241c26.667 0 66.834 1.33301 120.501 4s94.167 4 121.5 4c12 0 18 -4.66699 18 -14c0 -18.667 0.666992 -46.5 2 -83.5
s2 -64.5 2 -82.5c0 -10 -7.33301 -15 -22 -15h-369l-42 -54c-14 -21.333 -21 -42 -21 -62c0 -25.333 2 -62.833 6 -112.5s6 -86.834 6 -111.501c0 -16 -69.667 -24 -209 -24c-90 0 -149.333 2 -178 6c-19.333 2.66699 -29 12.334 -29 29.001c0 24 3.16699 60.667 9.5 110
s9.5 86.333 9.5 111c0 30 -18 66 -54 108h-383c-18.667 0 -28 31.667 -28 95c0 47.333 -0.333008 67 -1 59c2 27.333 9.66699 41 23 41c28 0 70 -1 126 -3s98 -3 126 -3l-151 239c-16 0 -39.5 -0.666992 -70.5 -2s-54.167 -2 -69.5 -2c-18 0 -27 18.667 -27 56
c0 17.333 -0.666992 36.5 -2 57.5s-2 33.5 -2 37.5c0 19.333 6.66699 30.333 20 33c4 0.666992 35 1 93 1c-0.666992 16.667 -3 56 -7 118c-3.33301 49.333 -5 89 -5 119c0 22 6.66699 33 20 33c40 0 100.167 -1.66699 180.5 -5s140.5 -5 180.5 -5c15.333 0 23 -5 23 -15
c0 -30.667 -1.33301 -72.334 -4 -125.001c-2.66699 -61.333 -4.33398 -103.333 -5.00098 -126h426c-9.33301 172 -14 252.333 -14 241c0 14 2.66699 22 8 24c0.666992 0.666992 9 1 25 1c38 0 95.333 1.66699 172 5s134 5 172 5c13.333 0 20 -14.333 20 -43
c0 -24.667 0.666992 -62.334 2 -113.001s2 -88.667 2 -114h83c6 0 9 -5 9 -15zM866 793.003h-256c28.667 -43.333 74.667 -105.666 138 -186.999c28.667 35.333 68 97.666 118 186.999z" />
    <glyph glyph-name="brokenbar" unicode="&#xa6;" horiz-adv-x="580" 
d="M427 709c0 -6.66699 -6.33301 -10.667 -19 -12c-74.667 -8.66699 -152 -13 -232 -13c-5.33301 0 -8 3.66699 -8 11v427c0 44 -1.66699 110.333 -5 199s-5 155 -5 199c0 21.333 37.333 32 112 32c88 0 134.333 -3.66699 139 -11c2.66699 -5.33301 4 -15.333 4 -30
c0 -17.333 -1 -43 -3 -77s-3 -59.667 -3 -77c0 -108 1 -204 3 -288c0.666992 -34.667 3.66699 -94.667 9 -180c5.33301 -76 8 -136 8 -180zM427 -325c0 -7.33301 -6.33301 -11.667 -19 -13c-74.667 -8.66699 -152 -13 -232 -13c-5.33301 0 -8 3.66699 -8 11v427
c0 44 -1.66699 110.333 -5 199s-5 155 -5 199c0 21.333 37.333 32 112 32c88 0 134.333 -3.66699 139 -11c2.66699 -5.33301 4 -15.333 4 -30c0 -17.333 -1 -43 -3 -77s-3 -59.667 -3 -77c0 -107.333 1 -203 3 -287c0.666992 -34.667 3.66699 -94.667 9 -180
c5.33301 -76.667 8 -136.667 8 -180z" />
    <glyph glyph-name="section" unicode="&#xa7;" horiz-adv-x="983" 
d="M920 682c0 -56 -7.33496 -99.001 -22.002 -129.001c-15.333 -32.667 -45 -64.667 -89 -96c-12.667 -9.33301 -19 -17.666 -19 -24.999c0 -6.66699 9.66699 -18.667 29 -36c23.333 -21.333 41 -44 53 -68c19.333 -38.667 29 -87.334 29 -146.001
c0 -114.667 -47 -203 -141 -265c-80.667 -52.667 -181.667 -79 -303 -79c-70 0 -137.333 9 -202 27c-81.333 22.667 -139 55.334 -173 98.001c-12 14.667 -18 26.334 -18 35.001c0 -0.666992 37.333 65 112 197c4.66699 7.33301 9.66699 11 15 11
c-3.33301 0 24.334 -19.667 83.001 -59s112 -59 160 -59c74 0 111 26.667 111 80c0 35.333 -42 68.333 -126 99c-127.333 47.333 -205.333 79.666 -234 96.999c-84 52 -126 120.333 -126 205c0 52 11.333 98.667 34 140c14.667 27.333 35.334 54 62.001 80
c22 22 33 34.333 33 37c0 6.66699 -10.333 20 -31 40c-25.333 23.333 -44.333 47.666 -57 72.999c-20 40.667 -30 90 -30 148c0 114.667 44.667 202 134 262c76.667 50.667 175.334 76 296.001 76c59.333 0 118.666 -9 177.999 -27c69.333 -22 121.333 -51.667 156 -89
c8 -8.66699 12 -17 12 -25c0 -2 -16 -33 -48 -93c-34 -63.333 -52.667 -98.833 -56 -106.5s-7.33301 -11.5 -12 -11.5c-1.33301 0 -30 17.833 -86 53.5s-104.667 53.5 -146 53.5c-66 0 -99 -23.333 -99 -70c0 -43.333 45 -85 135 -125l251 -113
c90 -53.333 135 -116.666 135 -189.999zM597.998 607.999c0 28 -23.666 57.333 -70.999 88c-44 28 -81 42 -111 42c-16.667 0 -30.5 -6.66699 -41.5 -20s-16.5 -28.333 -16.5 -45c0 -27.333 23 -55.333 69 -84c42 -26.667 78 -40 108 -40c15.333 0 29.666 6 42.999 18
s20 25.667 20 41z" />
    <glyph glyph-name="dieresis" unicode="&#xa8;" 
d="M782 1307c0 -16 2.49902 -39.668 7.49902 -71.001s7.5 -54.666 7.5 -69.999c0 -10.667 -13.333 -17.667 -40 -21c-18.667 -2.66699 -44.667 -3.66699 -78 -3c-51.333 2 -71.666 3 -60.999 3c-13.333 0 -33.333 -0.666992 -60 -2s-46.667 -2 -60 -2
c-24.667 0 -37 12.667 -37 38c0 14.667 0.666992 36 2 64s2 49.333 2 64c0 15.333 -0.833008 38.833 -2.5 70.5s-2.5 55.167 -2.5 70.5c0 23.333 9.66699 35 29 35c16.667 0 41.667 -1.33301 75 -4s58.333 -4 75 -4c13.333 0 33.5 0.5 60.5 1.5s47.167 1.5 60.5 1.5
c22.667 0 34 -7.33301 34 -22c0 -16.667 -2 -41.5 -6 -74.5s-6 -57.833 -6 -74.5zM286.999 1303c0 -16.667 2.00293 -40.833 6.00293 -72.5s6 -55.5 6 -71.5c0 -12.667 -9.66699 -19 -29 -19c-16.667 0 -41.5 0.833008 -74.5 2.5s-57.833 2.5 -74.5 2.5
c-14.667 0 -36.334 -1 -65.001 -3s-50.334 -3 -65.001 -3c-17.333 0 -26 8.33301 -26 25c0 14 1 35 3 63s3 49 3 63c0 18 -1.33301 44.833 -4 80.5s-4 62.5 -4 80.5c0 19.333 11 29 33 29c28.667 0 71.667 -0.5 129 -1.5s100.166 -1.5 128.499 -1.5s42.5 -9.33301 42.5 -28
c0 -16 -1.5 -40.333 -4.5 -73s-4.5 -57 -4.5 -73z" />
    <glyph glyph-name="copyright" unicode="&#xa9;" horiz-adv-x="1368" 
d="M1282 778c0 -169.333 -56.665 -315.667 -169.998 -439c-116.667 -126 -259.334 -189 -428.001 -189s-311.334 63 -428.001 189c-114.667 123.333 -172 269.666 -172 438.999c0 172 56.667 319.667 170 443c116.667 126.667 260 190 430 190
c169.333 0 312.333 -63.667 429 -191c112.667 -123.333 169 -270.666 169 -441.999zM1157 781.999c0 136 -44.333 254 -133 354c-92.667 104 -206 156 -340 156c-136 0 -250 -51.333 -342 -154c-88.667 -100 -133 -218.667 -133 -356s44.333 -255.333 133 -354
c92 -102.667 206 -154 342 -154c134.667 0 248 51.667 340 155c88.667 99.333 133 217 133 353zM950.002 1108c0 -10 -9.49805 -41.499 -28.498 -94.499s-30.833 -79.5 -35.5 -79.5c-2 0 -4.33301 0.666992 -7 2c-38.667 16.667 -83.334 25 -134.001 25
c-44.667 0 -82.334 -16.667 -113.001 -50s-46 -72.666 -46 -117.999c0 -50.667 14.5 -92 43.5 -124s68.5 -48 118.5 -48c22.667 0 50.667 4.16699 84 12.5s50.333 12.5 51 12.5c4 0 7.16699 -2.16699 9.5 -6.5s11.5 -35.333 27.5 -93s24 -88.834 24 -93.501
c0 -16.667 -33.333 -32.334 -100 -47.001c-54 -11.333 -95 -17 -123 -17c-108.667 0 -201.334 38.667 -278.001 116s-115 170.333 -115 279c0 115.333 36.333 210.5 109 285.5s166.667 112.5 282 112.5c36.667 0 80.334 -5.66699 131.001 -17
c66.667 -14.667 100 -33.667 100 -57z" />
    <glyph glyph-name="ordfeminine" unicode="&#xaa;" horiz-adv-x="1016" 
d="M930 1024c0 -70 3.99902 -161.332 11.999 -273.999c6.66699 -94.667 10 -136.334 10 -125.001c0 -18.667 -9.33301 -29 -28 -31c-14 -1.33301 -54.333 -2 -121 -2c-14.667 0 -36.334 -1 -65.001 -3s-50 -3 -64 -3c-20 0 -30.667 15.167 -32 45.5
s-6.66602 45.5 -15.999 45.5c6 0 -18 -17.333 -72 -52s-106.333 -52 -157 -52c-111.333 0 -202.333 44.333 -273 133c-66 82.667 -99 181 -99 295c0 130.667 34.667 235 104 313c72.667 81.333 173 122 301 122c63.333 0 126 -23 188 -69
c26.667 -19.333 39.334 -29 38.001 -29c5.33301 0 10.333 15.667 15 47s13.667 47 27 47c50.667 0 136 -16 256 -48c8.66699 -2 13 -6.33301 13 -13c0 -2.66699 -0.666992 -9 -2 -19c-23.333 -140 -35 -249.333 -35 -328zM923.999 249.001
c-48 0 -120.502 1.83301 -217.502 5.5s-170.167 5.5 -219.5 5.5c-43.333 0 -108.166 -1.66699 -194.499 -5s-151.166 -5 -194.499 -5c-12 0 -18 8 -18 24c0 110.667 2.66699 177 8 199c2.66699 9.33301 8.66699 14 18 14c46 0 115 -1.33301 207 -4s161 -4 207 -4
s114.667 1 206 3s160 3 206 3c10 0 15 -5.33301 15 -16c0 -8 -3 -41.333 -9 -100c2 -26.667 1.33301 -63 -2 -109c-2 -7.33301 -6 -11 -12 -11zM624.997 1016c0 42 -11.6689 78.666 -35.002 109.999c-25.333 34.667 -58 52 -98 52c-43.333 0 -78.666 -17 -105.999 -51
c-25.333 -31.333 -38 -69 -38 -113c0 -47.333 12.333 -86.333 37 -117c26 -32.667 62.333 -49 109 -49c40.667 0 73.334 18.333 98.001 55c22 32.667 33 70.334 33 113.001z" />
    <glyph glyph-name="guillemotleft" unicode="&#xab;" horiz-adv-x="1167" 
d="M1129 761c0 -24 -46.333 -60.666 -139 -109.999l-141 -73l138 -71c90.667 -50.667 136 -90 136 -118c0 -3.33301 -1.66699 -8.66602 -5 -15.999c-12.667 -20.667 -30.334 -52 -53.001 -94c-12.667 -30 -24.334 -62.333 -35.001 -97c-2.66699 -9.33301 -7 -14 -13 -14
s-14.667 5.33301 -26 16c-88 88.667 -208.667 168 -362 238c-18 8 -27 19.667 -27 35c0 13.333 1 33.666 3 60.999s3 48 3 62c0 12 -1 30 -3 54s-3 42 -3 54c0 15.333 9 27 27 35c138.667 63.333 261.334 143.333 368.001 240c11.333 10 20 15 26 15
c4.66699 0 8.33398 -5 11.001 -15c4 -16 21.333 -53.667 52 -113c28.667 -56.667 43 -86.334 43 -89.001zM597 761.001c0 -24.667 -46.6689 -61.665 -140.002 -110.998l-141 -72l139 -70c90.667 -50.667 136 -90 136 -118c0 -3.33301 -1.66699 -9 -5 -17
c-22.667 -40 -52 -103.667 -88 -191c-3.33301 -9.33301 -7.66602 -14 -12.999 -14c-6 0 -14.667 5.33301 -26 16c-101.333 94.667 -222.333 174 -363 238c-17.333 8 -26 19.667 -26 35c0 13.333 1 33.666 3 60.999s3 48 3 62c0 12 -1 30 -3 54s-3 42 -3 54
c0 15.333 8.66699 27 26 35c116 51.333 239 131.333 369 240c11.333 9.33301 20 14 26 14c4.66699 0 8.33398 -4.66699 11.001 -14c4 -16.667 21 -54.334 51 -113.001c29.333 -55.333 44 -85 44 -89z" />
    <glyph glyph-name="logicalnot" unicode="&#xac;" horiz-adv-x="942" 
d="M823 332h-124v292h-580v124h704v-416z" />
    <glyph glyph-name="minus" unicode="&#xad;" horiz-adv-x="864" 
d="M806 732c0 -16 -1.99707 -59.667 -5.99707 -131c-4 -74 -7 -113.667 -9 -119c-2.66699 -8 -7 -12 -13 -12c-40.667 0 -101.334 1.5 -182.001 4.5s-141 4.5 -181 4.5c-38 0 -95 -1.33301 -171 -4s-133 -4 -171 -4c-11.333 0 -17 6.33301 -17 19
c0 158 7.33301 244.667 22 260c2.66699 2.66699 7 4 13 4c37.333 0 92.666 -2.83301 165.999 -8.5s128.666 -8.5 165.999 -8.5c40.667 0 101.5 1.83301 182.5 5.5s141.5 5.5 181.5 5.5c12.667 0 19 -5.33301 19 -16z" />
    <glyph glyph-name="minus" unicode="&#x2212;" horiz-adv-x="864" 
d="M806 732c0 -16 -1.99707 -59.667 -5.99707 -131c-4 -74 -7 -113.667 -9 -119c-2.66699 -8 -7 -12 -13 -12c-40.667 0 -101.334 1.5 -182.001 4.5s-141 4.5 -181 4.5c-38 0 -95 -1.33301 -171 -4s-133 -4 -171 -4c-11.333 0 -17 6.33301 -17 19
c0 158 7.33301 244.667 22 260c2.66699 2.66699 7 4 13 4c37.333 0 92.666 -2.83301 165.999 -8.5s128.666 -8.5 165.999 -8.5c40.667 0 101.5 1.83301 182.5 5.5s141.5 5.5 181.5 5.5c12.667 0 19 -5.33301 19 -16z" />
    <glyph glyph-name="registered" unicode="&#xae;" horiz-adv-x="1368" 
d="M1280 778c0 -170 -56.666 -316.665 -169.999 -439.998c-116.667 -125.333 -259.334 -188 -428.001 -188c-168 0 -310.333 63 -427 189c-114 123.333 -171 269.666 -171 438.999c0 171.333 56.333 318.666 169 441.999c116.667 127.333 259.667 191 429 191
c170 0 313 -63.333 429 -190c112.667 -123.333 169 -271 169 -443zM1157 776.002c0 142 -43.333 262.331 -130 360.998c-90 103.333 -205 155 -345 155c-100 0 -186 -26.667 -258 -80c-5.33301 -4 -8 -8.33301 -8 -13c2 -6 5.33301 -9 10 -9c14 0 34.833 1 62.5 3
s48.5 3 62.5 3c152 0 257.667 -8.66699 317 -26c117.333 -35.333 176 -110.666 176 -225.999c0 -56.667 -9 -101 -27 -133s-50.333 -63.333 -97 -94c-9.33301 -6 -14 -12 -14 -18c0 -1.33301 42.667 -89.666 128 -264.999c82 94.667 123 208.667 123 342zM801.001 909
c0 51.333 -15.333 85.665 -46 102.998c-20.667 12 -58 18 -112 18c-36 0 -57 -4.66699 -63 -14c0 -13.333 -0.833008 -33.166 -2.5 -59.499s-2.5 -46.166 -2.5 -59.499c0 -10 0.333008 -24.333 1 -43c1.33301 -20.667 2 -35 2 -43c36.667 -5.33301 68 -8 94 -8
c86 0 129 35.333 129 106zM975.001 394.999l-159.999 -0.00195312c-10.667 0 -18 5 -22 15l-97 233c-6 14.667 -14 23.334 -24 26.001c-3.33301 0.666992 -16.333 1 -39 1s-35.334 -0.666992 -38.001 -2c-8.66699 -2.66699 -13 -12.334 -13 -29.001
c0 -27.333 2.33301 -68.166 7 -122.499s7 -95.166 7 -122.499c0 -4 -3.33301 -6 -10 -6c-13.333 0 -34 1.16699 -62 3.5s-49 3.5 -63 3.5c-27.333 0 -54.666 -1.33301 -81.999 -4c86.667 -78 187.667 -117 303 -117c112.667 0 207 31 283 93
c9.33301 7.33301 14.666 15 15.999 23zM358.002 790.997c0 165.333 -4.66699 282.001 -14 350.001c-90 -94.667 -135 -216.334 -135 -365.001c0 -126 34.667 -231 104 -315c5.33301 -6.66699 11.333 -10 18 -10c8.66699 0 13.667 5.33301 15 16c8 60.667 12 168.667 12 324z
" />
    <glyph glyph-name="macron" unicode="&#xaf;" 
d="M442 1106c-58 0 -150.663 -7.66797 -277.996 -23.001c-79.333 -9.33301 -117 -14 -113 -14c-19.333 0 -29 12.667 -29 38c0 12.667 12 53.667 36 123c23.333 66.667 38.666 107.334 45.999 122.001c5.33301 9.33301 13.666 14 24.999 14
c21.333 0 53.166 -1.83301 95.499 -5.5s74.166 -5.5 95.499 -5.5c45.333 0 113.5 6.33301 204.5 19s158.5 19 202.5 19c12.667 0 19 -5.33301 19 -16c0 -12 -12.333 -59.333 -37 -142c-3.33301 -28 -10.333 -68.333 -21 -121c-2.66699 -8 -10.667 -12 -24 -12
c-24.667 0 -61.667 0.666992 -111 2s-86.333 2 -111 2z" />
    <glyph glyph-name="macron" unicode="&#x2c9;" 
d="M442 1106c-58 0 -150.663 -7.66797 -277.996 -23.001c-79.333 -9.33301 -117 -14 -113 -14c-19.333 0 -29 12.667 -29 38c0 12.667 12 53.667 36 123c23.333 66.667 38.666 107.334 45.999 122.001c5.33301 9.33301 13.666 14 24.999 14
c21.333 0 53.166 -1.83301 95.499 -5.5s74.166 -5.5 95.499 -5.5c45.333 0 113.5 6.33301 204.5 19s158.5 19 202.5 19c12.667 0 19 -5.33301 19 -16c0 -12 -12.333 -59.333 -37 -142c-3.33301 -28 -10.333 -68.333 -21 -121c-2.66699 -8 -10.667 -12 -24 -12
c-24.667 0 -61.667 0.666992 -111 2s-86.333 2 -111 2z" />
    <glyph glyph-name="degree" unicode="&#xb0;" horiz-adv-x="852" 
d="M784 1049c0 -103.333 -34.334 -192.001 -103.001 -266.001c-70.667 -75.333 -157 -113 -259 -113c-101.333 0 -187.333 38 -258 114c-68.667 74 -103 162.333 -103 265s34.333 191.334 103 266.001c70 78 156 117 258 117c102.667 0 189.334 -38.667 260.001 -116
c68 -74.667 102 -163.667 102 -267zM583.999 1049c0 51.333 -13.999 93.999 -41.999 127.999c-30 37.333 -70 56 -120 56c-48.667 0 -88 -19 -118 -57c-28 -35.333 -42 -77.666 -42 -126.999c0 -47.333 14.667 -88.333 44 -123c31.333 -37.333 70 -56 116 -56
c49.333 0 88.666 17.333 117.999 52s44 77 44 127z" />
    <glyph glyph-name="plusminus" unicode="&#xb1;" horiz-adv-x="838" 
d="M768 650h-289v-254h-119v254h-290v114h290v264h119v-264h289v-114zM772 190h-704v123h704v-123z" />
    <glyph glyph-name="twosuperior" unicode="&#xb2;" horiz-adv-x="811" 
d="M780 530c0 -64.667 -4.33203 -111.67 -12.999 -141.003c-2 -6 -8.33301 -9 -19 -9c-28 0 -70 2.33301 -126 7s-98 7 -126 7c-45.333 0 -112.833 -1.83301 -202.5 -5.5s-156.834 -5.5 -201.501 -5.5c-12.667 0 -21.334 9 -26.001 27c-22.667 91.333 -34 150 -34 176
c0 14 17.333 23 52 27c24 0.666992 47.667 1.66699 71 3c33.333 32.667 73.666 84.334 120.999 155.001c54 81.333 81 138.333 81 171c0 39.333 -19.333 59 -58 59c-39.333 0 -84.666 -13.5 -135.999 -40.5s-74.333 -40.5 -69 -40.5l-11 4
c-1.33301 0.666992 -9.66602 33.834 -24.999 99.501s-23 102.5 -23 110.5c0 24.667 47.667 47.334 143 68.001c78 16.667 138 25 180 25c58 0 110.667 -10.667 158 -32c71.333 -34 116.333 -60 135 -78c32.667 -32 49 -80.667 49 -146c0 -106 -70.667 -220.667 -212 -344
c29.333 0 75 2 137 6c60 4 105.333 6 136 6c12.667 0 19 -36.333 19 -109z" />
    <glyph glyph-name="threesuperior" unicode="&#xb3;" horiz-adv-x="795" 
d="M741 630c0 -91.333 -41.668 -159 -125.001 -203c-64.667 -33.333 -147.667 -50 -249 -50c-42 0 -103.667 6.33301 -185 19c-100 15.333 -150 32 -150 50c0 -14 14.333 32 43 138c10.667 38.667 19 58 25 58c8 0 35.5 -7.33301 82.5 -22s84.167 -22 111.5 -22
c97.333 0 146 25.667 146 77c0 53.333 -54 80 -162 80c-17.333 0 -39.666 -0.666992 -66.999 -2s-44.333 -2 -51 -2c-28 0 -42 7.66699 -42 23c0 98.667 10 148 30 148c18 0 44.333 -2 79 -6s61 -6 79 -6c46 0 69 19 69 57c0 42.667 -42 64 -126 64
c-22.667 0 -52.667 -4.66699 -90 -14s-59.333 -14 -66 -14c-4 0 -7.66699 6.66699 -11 20c-8 35.333 -12 84 -12 146c0 24 41.333 42.667 124 56c56.667 9.33301 109 14 157 14c84 0 160 -16 228 -48c86.667 -40.667 130 -98 130 -172c0 -86.667 -39.667 -148.667 -119 -186
c100.667 -37.333 151 -105 151 -203z" />
    <glyph glyph-name="acute" unicode="&#xb4;" 
d="M128 1083c-12.667 -0.666992 -19.001 6.33496 -19.001 21.002c0 5.33301 0.666992 13.666 2 24.999s2 20 2 26c0 8 -1.16699 20.333 -3.5 37s-3.5 29 -3.5 37c0 9.33301 7 16.666 21 21.999c32.667 12.667 96 45.667 190 99l185 131c4 3.33301 10.667 6.66602 20 9.99902
c4.66699 -1.33301 10.334 -4.66602 17.001 -9.99902c15.333 -16 39.666 -38.667 72.999 -68c18.667 -10.667 46 -27.667 82 -51c10.667 -7.33301 16 -14 16 -20c0 -5.33301 -4.66699 -12.333 -14 -21c-58.667 -55.333 -146.667 -107.833 -264 -157.5
s-215.666 -76.5 -294.999 -80.5h-9z" />
    <glyph glyph-name="mu" unicode="&#xb5;" horiz-adv-x="784" 
d="M676 0h-131v28c-45.333 -19.333 -106.666 -29 -183.999 -29c-62.667 0 -103 13.333 -121 40v-408h-131v1342h131v-720c0 -92.667 46 -139 138 -139c63.333 0 118.666 5.33301 165.999 16v843h132v-973z" />
    <glyph glyph-name="mu" unicode="&#x3bc;" horiz-adv-x="784" 
d="M676 0h-131v28c-45.333 -19.333 -106.666 -29 -183.999 -29c-62.667 0 -103 13.333 -121 40v-408h-131v1342h131v-720c0 -92.667 46 -139 138 -139c63.333 0 118.666 5.33301 165.999 16v843h132v-973z" />
    <glyph glyph-name="paragraph" unicode="&#xb6;" horiz-adv-x="1204" 
d="M1108 1317c0 -63.333 -0.334961 -158.333 -1.00195 -285s-1 -221.334 -1 -284.001c0 -383.333 -148 -635.333 -444 -756c-107.333 -44 -216.666 -66 -327.999 -66c-29.333 0 -47.666 9.66699 -54.999 29c-16 38 -24 63.667 -24 77c0 12 8 19 24 21
c54.667 5.33301 109.334 10.333 164.001 15c62 7.33301 115.667 21 161 41c139.333 60.667 235 163.334 287 308.001c36.667 103.333 55 247.333 55 432c0 109.333 -1.33301 185.333 -4 228c-16 28 -50 44.333 -102 49c0 -224 -7 -382.333 -21 -475
c-31.333 -213.333 -116.666 -358 -255.999 -434c-82.667 -45.333 -174.334 -68 -275.001 -68c-62 0 -93 50.667 -93 152c0 26 7 39 21 39c5.33301 0 13.333 -2 24 -6c40.667 -15.333 91.667 -23 153 -23c86 0 151.5 29.333 196.5 88s67.5 107 67.5 145c0 18 -5 27 -15 27
c4.66699 0 -21 -10.833 -77 -32.5s-102.333 -32.5 -139 -32.5c-114 0 -203.333 36.333 -268 109c-61.333 70 -92 163.333 -92 280c0 164 47.667 294.167 143 390.5s225 144.5 389 144.5c69.333 0 162.666 -9.33301 279.999 -28c153.333 -24 230 -52.333 230 -85z
M689.998 874c0 29.333 -0.667969 72.832 -2.00098 130.499s-2 101.167 -2 130.5c0 10.667 -17.667 16 -53 16c-68 0 -121.333 -23 -160 -69c-36.667 -43.333 -55 -99.666 -55 -168.999c0 -58 13.667 -104.667 41 -140c30 -40 73 -60 129 -60c28.667 0 59.334 6 92.001 18
c6.66699 33.333 10 81 10 143z" />
    <glyph glyph-name="periodcentered" unicode="&#xb7;" horiz-adv-x="575" 
d="M522 739c0 -65.333 -22.8311 -121.5 -68.498 -168.5s-101.167 -70.5 -166.5 -70.5c-64.667 0 -119.834 23.667 -165.501 71s-68.5 103.333 -68.5 168c0 65.333 22.667 121.333 68 168s100.666 70 165.999 70s120.833 -23.167 166.5 -69.5s68.5 -102.5 68.5 -168.5z" />
    <glyph glyph-name="periodcentered" unicode="&#x2219;" horiz-adv-x="575" 
d="M522 739c0 -65.333 -22.8311 -121.5 -68.498 -168.5s-101.167 -70.5 -166.5 -70.5c-64.667 0 -119.834 23.667 -165.501 71s-68.5 103.333 -68.5 168c0 65.333 22.667 121.333 68 168s100.666 70 165.999 70s120.833 -23.167 166.5 -69.5s68.5 -102.5 68.5 -168.5z" />
    <glyph glyph-name="cedilla" unicode="&#xb8;" 
d="M571 -113c0 -200.667 -95.999 -301.001 -287.999 -301.001c-24 0 -57.333 11.667 -100 35c-45.333 24.667 -68 46.334 -68 65.001c0 2 15.667 20 47 54c10 16 20.333 31.667 31 47c15.333 23.333 27.333 35 36 35c2.66699 0 13.167 -7 31.5 -21s35.166 -21 50.499 -21
c22 0 41.667 8.16699 59 24.5s26 35.5 26 57.5c0 56 -27 100 -81 132l193 -23c14.667 -18 35.667 -46 63 -84z" />
    <glyph glyph-name="onesuperior" unicode="&#xb9;" horiz-adv-x="546" 
d="M464 1206c0 0.666992 -0.333984 -4.33105 -1.00098 -14.998c-9.33301 -83.333 -14 -208 -14 -374c0 -43.333 0.333008 -107.833 1 -193.5s1 -149.834 1 -192.501c0 -22.667 -12.667 -34 -38 -34c-27.333 0 -68.166 -0.5 -122.499 -1.5s-94.833 -1.5 -121.5 -1.5
c-18 0 -27 6.66699 -27 20c0 55.333 2 138.166 6 248.499s6 193.166 6 248.499c0 9.33301 -5.33301 15.333 -16 18c-8 2 -19.667 2.33301 -35 1c-20 -1.33301 -29.667 -2 -29 -2c-28 0 -42 6.66699 -42 20v155c0 10 5.66699 17.333 17 22c58 23.333 102.5 50 133.5 80
s48.5 45 52.5 45c36.667 0 91.667 -7.33301 165 -22c42.667 -9.33301 64 -16.666 64 -21.999z" />
    <glyph glyph-name="ordmasculine" unicode="&#xba;" horiz-adv-x="938" 
d="M895 993c0 -115.333 -42.5 -217.833 -127.5 -307.5s-185.167 -134.5 -300.5 -134.5c-126 0 -228.833 42 -308.5 126s-119.5 189.333 -119.5 316c0 115.333 42.667 218.333 128 309s185.333 136 300 136c122 0 224.333 -43.667 307 -131c80.667 -86 121 -190.667 121 -314
zM840 249l-10.999 1.00098c-133.333 6.66699 -261.666 10 -384.999 10c-38.667 0 -96.667 -1.66699 -174 -5s-135.333 -5 -174 -5c-12 0 -18 8 -18 24c0 111.333 2.66699 177.666 8 198.999c2.66699 9.33301 8.66699 14 18 14c41.333 0 103.5 -1.33301 186.5 -4
s145.167 -4 186.5 -4s103.166 1 185.499 3s144.166 3 185.499 3c10 0 15 -5.33301 15 -16c0 -8 -3 -41.333 -9 -100c2 -26.667 1.33301 -63 -2 -109c-2 -7.33301 -6 -11 -12 -11zM606.001 995.001c0 117.333 -45.668 176 -137.001 176c-46.667 0 -83 -18.333 -109 -55
c-22.667 -32 -34 -72.333 -34 -121c0 -113.333 47.667 -170 143 -170c44.667 0 79.334 17.667 104.001 53c22 31.333 33 70.333 33 117z" />
    <glyph glyph-name="guillemotright" unicode="&#xbb;" horiz-adv-x="1167" 
d="M1114 688c0 -12 -0.999023 -30.335 -2.99902 -55.002s-3 -43 -3 -55c0 -14 0.666992 -34.333 2 -61s2 -46.667 2 -60c0 -15.333 -9 -27 -27 -35c-140 -64 -260 -143.333 -360 -238c-11.333 -10.667 -20.333 -16 -27 -16s-11.334 4.66699 -14.001 14
c-9.33301 30.667 -38.666 94.334 -87.999 191.001c-3.33301 6.66699 -5 12 -5 16c0 24 37 58.333 111 103c57.333 34.667 106.666 59.667 147.999 75c4.66699 1.33301 9.66699 5 15 11l-145 76c-90 47.333 -135 83 -135 107c0 6.66699 9 25.334 27 56.001
c21.333 35.333 33 56 35 62c27.333 65.333 42.333 98 45 98c6 0 15 -4.66699 27 -14c127.333 -106 250 -186 368 -240c18 -8 27 -19.667 27 -35zM582.001 456.998c0 -14.667 -9.66895 -26.335 -29.002 -35.002c-146 -66 -266 -145.333 -360 -238
c-11.333 -10.667 -20.666 -16 -27.999 -16c-6 0 -10.333 4.66699 -13 14c-12 38 -40.667 101.667 -86 191c-4 7.33301 -6 13.333 -6 18c0 22.667 37 56.334 111 101.001c58.667 35.333 107.334 60.333 146.001 75c5.33301 1.33301 10.666 5 15.999 11l-144 75
c-90 48 -135 84.333 -135 109c0 7.33301 8.66699 26 26 56c20.667 34.667 32.334 55 35.001 61c27.333 66 42.333 99 45 99c6 0 14.667 -5 26 -15c108.667 -97.333 231.667 -177.333 369 -240c18 -8 27 -19.667 27 -35c0 -12 -1.16699 -30 -3.5 -54s-3.5 -42 -3.5 -54
c0 -14 1.16699 -34.667 3.5 -62s3.5 -47.666 3.5 -60.999z" />
    <glyph glyph-name="onequarter" unicode="&#xbc;" horiz-adv-x="1760" 
d="M464 1206c0 0.666992 -0.333984 -4.33105 -1.00098 -14.998c-9.33301 -83.333 -14 -208 -14 -374c0 -43.333 0.333008 -107.833 1 -193.5s1 -149.834 1 -192.501c0 -22.667 -12.667 -34 -38 -34c-27.333 0 -68.166 -0.5 -122.499 -1.5s-94.833 -1.5 -121.5 -1.5
c-18 0 -27 6.66699 -27 20c0 55.333 2 138.166 6 248.499s6 193.166 6 248.499c0 9.33301 -5.33301 15.333 -16 18c-8 2 -19.667 2.33301 -35 1c-20 -1.33301 -29.667 -2 -29 -2c-28 0 -42 6.66699 -42 20v155c0 10 5.66699 17.333 17 22c58 23.333 102.5 50 133.5 80
s48.5 45 52.5 45c36.667 0 91.667 -7.33301 165 -22c42.667 -9.33301 64 -16.666 64 -21.999zM1162 1164c0 -4.66699 -1.99902 -11.333 -5.99902 -20l-288 -584l-201 -453l-55 -127c-31.333 -68 -52.333 -102 -63 -102c-2 0 -32.833 17.5 -92.5 52.5
s-92.334 54.833 -98.001 59.5s-8.5 9 -8.5 13l335 690l187 408l43 102c24 54.667 40.333 82 49 82c16 0 53 -17 111 -51s87 -57.333 87 -70zM1692 137.003c0 -10.667 -12.334 -16.332 -37.001 -16.999c46.667 1.33301 30.334 2 -48.999 2c-14 0 -21.667 -10.667 -23 -32v-47
c-1.33301 -15.333 -6 -25.666 -14 -30.999c-29.333 -20.667 -117.333 -31 -264 -31c-36.667 0 -55 8 -55 24c0 12 2.66699 29.167 8 51.5s8 39.166 8 50.499c0 12 -7 18 -21 18c-34 0 -84.833 -3.66699 -152.5 -11s-118.834 -11 -153.501 -11c-31.333 0 -47 24.667 -47 74
c0 94.667 2.33301 147 7 157c10 20 33.333 53.667 70 101c52 67.333 78.667 102 80 104c43.333 60 99 148 167 264l16 33c8 16 15.333 24 22 24c26.667 0 77.334 -6.66699 152.001 -20l159 -29c17.333 -2.66699 26 -11 26 -25c0 -23.333 -2.16699 -58.333 -6.5 -105
s-6.5 -81.667 -6.5 -105c0 -16.667 -0.333008 -44.334 -1 -83.001c-0.666992 -36 -1 -63.667 -1 -83l1 -69c10.667 0 27.167 1.33301 49.5 4s39.5 4 51.5 4c6.66699 0 10 -22.667 10 -68c0 -16 0.666992 -40 2 -72s2 -56 2 -72zM1301 601.005l-4.00098 8.99902l-202 -279
c60.667 14 123.334 18.333 188.001 13c4.66699 56.667 10.667 142.334 18 257.001z" />
    <glyph glyph-name="onehalf" unicode="&#xbd;" horiz-adv-x="1825" 
d="M464 1206c0 0.666992 -0.333984 -4.33105 -1.00098 -14.998c-9.33301 -83.333 -14 -208 -14 -374c0 -43.333 0.333008 -107.833 1 -193.5s1 -149.834 1 -192.501c0 -22.667 -12.667 -34 -38 -34c-27.333 0 -68.166 -0.5 -122.499 -1.5s-94.833 -1.5 -121.5 -1.5
c-18 0 -27 6.66699 -27 20c0 55.333 2 138.166 6 248.499s6 193.166 6 248.499c0 9.33301 -5.33301 15.333 -16 18c-8 2 -19.667 2.33301 -35 1c-20 -1.33301 -29.667 -2 -29 -2c-28 0 -42 6.66699 -42 20v155c0 10 5.66699 17.333 17 22c58 23.333 102.5 50 133.5 80
s48.5 45 52.5 45c36.667 0 91.667 -7.33301 165 -22c42.667 -9.33301 64 -16.666 64 -21.999zM1150 1164c0 -4.66699 -1.99902 -11.333 -5.99902 -20l-288 -584l-201 -453l-55 -127c-31.333 -68 -52.333 -102 -63 -102c-2 0 -32.833 17.5 -92.5 52.5
s-92.334 54.833 -98.001 59.5s-8.5 9 -8.5 13l335 690l187 408l43 102c24 54.667 40.333 82 49 82c16 0 53 -17 111 -51s87 -57.333 87 -70zM1787 145.003c0 -64.667 -4.33203 -111.67 -12.999 -141.003c-2 -6 -8.33301 -9 -19 -9c-28 0 -70 2.33301 -126 7s-98 7 -126 7
c-45.333 0 -112.833 -1.83301 -202.5 -5.5s-156.834 -5.5 -201.501 -5.5c-12.667 0 -21.334 9 -26.001 27c-22.667 91.333 -34 150 -34 176c0 14 17.333 23 52 27c24 0.666992 47.667 1.66699 71 3c33.333 32.667 73.666 84.334 120.999 155.001
c54 81.333 81 138.333 81 171c0 39.333 -19.333 59 -58 59c-39.333 0 -84.666 -13.5 -135.999 -40.5s-74.333 -40.5 -69 -40.5l-11 4c-1.33301 0.666992 -9.66602 33.834 -24.999 99.501s-23 102.5 -23 110.5c0 24.667 47.667 47.334 143 68.001c78 16.667 138 25 180 25
c58 0 110.667 -10.667 158 -32c71.333 -34 116.333 -60 135 -78c32.667 -32 49 -80.667 49 -146c0 -106 -70.667 -220.667 -212 -344c29.333 0 75 2 137 6c60 4 105.333 6 136 6c12.667 0 19 -36.333 19 -109z" />
    <glyph glyph-name="threequarters" unicode="&#xbe;" horiz-adv-x="1878" 
d="M1337 1164c0 -4.66699 -1.99902 -11.333 -5.99902 -20l-288 -584l-201 -453l-55 -127c-31.333 -68 -52.333 -102 -63 -102c-2 0 -32.833 17.5 -92.5 52.5s-92.334 54.833 -98.001 59.5s-8.5 9 -8.5 13l335 690l187 408l43 102c24 54.667 40.333 82 49 82
c16 0 53 -17 111 -51s87 -57.333 87 -70zM1846 131.001c0 -10.667 -12.334 -16.332 -37.001 -16.999c46.667 1.33301 30.334 2 -48.999 2c-14 0 -21.667 -10.667 -23 -32v-47c-1.33301 -15.333 -6 -25.666 -14 -30.999c-29.333 -20.667 -117.333 -31 -264 -31
c-36.667 0 -55 8 -55 24c0 12 2.66699 29.167 8 51.5s8 39.166 8 50.499c0 12 -7 18 -21 18c-34 0 -84.833 -3.66699 -152.5 -11s-118.834 -11 -153.501 -11c-31.333 0 -47 24.667 -47 74c0 94.667 2.33301 147 7 157c10 20 33.333 53.667 70 101
c52 67.333 78.667 102 80 104c43.333 60 99 148 167 264l16 33c8 16 15.333 24 22 24c26.667 0 77.334 -6.66699 152.001 -20l159 -29c17.333 -2.66699 26 -11 26 -25c0 -23.333 -2.16699 -58.333 -6.5 -105s-6.5 -81.667 -6.5 -105c0 -16.667 -0.333008 -44.334 -1 -83.001
c-0.666992 -36 -1 -63.667 -1 -83l1 -69c10.667 0 27.167 1.33301 49.5 4s39.5 4 51.5 4c6.66699 0 10 -22.667 10 -68c0 -16 0.666992 -40 2 -72s2 -56 2 -72zM1455 595.003l-4.00098 8.99902l-202 -279c60.667 14 123.334 18.333 188.001 13
c4.66699 56.667 10.667 142.334 18 257.001zM694.999 630.002c0 -91.333 -41.668 -159 -125.001 -203c-64.667 -33.333 -147.667 -50 -249 -50c-42 0 -103.667 6.33301 -185 19c-100 15.333 -150 32 -150 50c0 -14 14.333 32 43 138c10.667 38.667 19 58 25 58
c8 0 35.5 -7.33301 82.5 -22s84.167 -22 111.5 -22c97.333 0 146 25.667 146 77c0 53.333 -54 80 -162 80c-17.333 0 -39.666 -0.666992 -66.999 -2s-44.333 -2 -51 -2c-28 0 -42 7.66699 -42 23c0 98.667 10 148 30 148c18 0 44.333 -2 79 -6s61 -6 79 -6c46 0 69 19 69 57
c0 42.667 -42 64 -126 64c-22.667 0 -52.667 -4.66699 -90 -14s-59.333 -14 -66 -14c-4 0 -7.66699 6.66699 -11 20c-8 35.333 -12 84 -12 146c0 24 41.333 42.667 124 56c56.667 9.33301 109 14 157 14c84 0 160 -16 228 -48c86.667 -40.667 130 -98 130 -172
c0 -86.667 -39.667 -148.667 -119 -186c100.667 -37.333 151 -105 151 -203z" />
    <glyph glyph-name="questiondown" unicode="&#xbf;" horiz-adv-x="864" 
d="M672 1219c0 -52 -17.833 -96.167 -53.5 -132.5s-79.5 -54.5 -131.5 -54.5c-51.333 0 -94.833 18.167 -130.5 54.5s-53.5 80.5 -53.5 132.5c0 51.333 17.833 95.5 53.5 132.5s79.167 55.5 130.5 55.5s95 -18.5 131 -55.5s54 -81.167 54 -132.5zM459 -29
c-121.333 0 -221.666 33.667 -300.999 101c-83.333 72 -125 167.333 -125 286c0 166.667 66.667 288.334 200 365.001c101.333 58 156 116 164 174l6 47c4 14 15.667 21 35 21c68 0 116.667 4 146 12c6 1.33301 10.333 2 13 2c24 0 36 -32.667 36 -98
c0 -56 -32.833 -126 -98.5 -210s-98.5 -154 -98.5 -210c0 -86.667 45.667 -130 137 -130c37.333 0 85.666 11.5 144.999 34.5s86.333 34.5 81 34.5c29.333 0 44 -85.333 44 -256c0 -18.667 -1 -32.667 -3 -42c-9.33301 -44.667 -65.333 -79.334 -168 -104.001
c-74 -18 -145 -27 -213 -27z" />
    <glyph glyph-name="Agrave" unicode="&#xc0;" horiz-adv-x="1421" 
d="M1411 25c0 -12 -8.33594 -20.332 -25.0029 -24.999c-20 -5.33301 -82 -8 -186 -8c-95.333 0 -156.666 2.66699 -183.999 8c-22.667 4.66699 -37 19.667 -43 45c-22.667 96 -40.334 147.333 -53.001 154c-10.667 4.66699 -100 7 -268 7
c-113.333 0 -173.666 -3 -180.999 -9c-11.333 -10.667 -24 -46.334 -38 -107.001c-12.667 -55.333 -28 -85.333 -46 -90c-22.667 -5.33301 -98.667 -8 -228 -8c-102 0 -153 9.66699 -153 29c0 17.333 75.333 230.333 226 639c163.333 442 252 685 266 729
c8 25.333 17.333 38 28 38c18 0 45.833 -1.66699 83.5 -5s65.834 -5 84.501 -5c18 0 44.5 1.16699 79.5 3.5s61.167 3.5 78.5 3.5c12.667 0 24.334 -11 35.001 -33c32.667 -70 128 -310 286 -720c158.667 -412.667 238 -628 238 -646zM701.997 936.001
c-14 -29.333 -37.667 -93 -71 -191c-36 -104 -54 -165 -54 -183c0 -12 20 -18.667 60 -20c20.667 -1.33301 54.667 -2 102 -2c44 0 68.333 5.33301 73 16c1.33301 3.33301 2 8 2 14c0 22 -15.333 82.667 -46 182c-30 96 -52 157.333 -66 184zM932.997 1469
c0 -12.667 -7.33203 -18.998 -21.999 -18.998h-8c-86.667 8.66699 -185.334 35.667 -296.001 81c-115.333 48 -203 100.333 -263 157c-10 8.66699 -15 16 -15 22c0 5.33301 5 11.666 15 18.999l86 53c16 15.333 41 38 75 68c4 3.33301 10 6.66602 18 9.99902l197 -139
c80 -46 144.333 -79 193 -99c13.333 -5.33301 20 -12 20 -20c0 -7.33301 -1 -18.333 -3 -33s-3 -25.667 -3 -33s1 -18.5 3 -33.5s3 -26.167 3 -33.5z" />
    <glyph glyph-name="Aacute" unicode="&#xc1;" horiz-adv-x="1421" 
d="M1411 25c0 -12 -8.33594 -20.332 -25.0029 -24.999c-20 -5.33301 -82 -8 -186 -8c-95.333 0 -156.666 2.66699 -183.999 8c-22.667 4.66699 -37 19.667 -43 45c-22.667 96 -40.334 147.333 -53.001 154c-10.667 4.66699 -100 7 -268 7
c-113.333 0 -173.666 -3 -180.999 -9c-11.333 -10.667 -24 -46.334 -38 -107.001c-12.667 -55.333 -28 -85.333 -46 -90c-22.667 -5.33301 -98.667 -8 -228 -8c-102 0 -153 9.66699 -153 29c0 17.333 75.333 230.333 226 639c163.333 442 252 685 266 729
c8 25.333 17.333 38 28 38c18 0 45.833 -1.66699 83.5 -5s65.834 -5 84.501 -5c18 0 44.5 1.16699 79.5 3.5s61.167 3.5 78.5 3.5c12.667 0 24.334 -11 35.001 -33c32.667 -70 128 -310 286 -720c158.667 -412.667 238 -628 238 -646zM701.997 936.001
c-14 -29.333 -37.667 -93 -71 -191c-36 -104 -54 -165 -54 -183c0 -12 20 -18.667 60 -20c20.667 -1.33301 54.667 -2 102 -2c44 0 68.333 5.33301 73 16c1.33301 3.33301 2 8 2 14c0 22 -15.333 82.667 -46 182c-30 96 -52 157.333 -66 184zM516.997 1433
c-12.667 -0.666992 -19.001 6.33496 -19.001 21.002c0 5.33301 0.666992 13.666 2 24.999s2 20 2 26c0 8 -1.16699 20.333 -3.5 37s-3.5 29 -3.5 37c0 9.33301 7 16.666 21 21.999c32.667 12.667 96 45.667 190 99l185 131c4 3.33301 10.667 6.66602 20 9.99902
c4.66699 -1.33301 10.334 -4.66602 17.001 -9.99902c15.333 -16 39.666 -38.667 72.999 -68c18.667 -10.667 46 -27.667 82 -51c10.667 -7.33301 16 -14 16 -20c0 -5.33301 -4.66699 -12.333 -14 -21c-58.667 -55.333 -146.667 -107.833 -264 -157.5
s-215.666 -76.5 -294.999 -80.5h-9z" />
    <glyph glyph-name="Acircumflex" unicode="&#xc2;" horiz-adv-x="1421" 
d="M1411 25c0 -12 -8.33594 -20.332 -25.0029 -24.999c-20 -5.33301 -82 -8 -186 -8c-95.333 0 -156.666 2.66699 -183.999 8c-22.667 4.66699 -37 19.667 -43 45c-22.667 96 -40.334 147.333 -53.001 154c-10.667 4.66699 -100 7 -268 7
c-113.333 0 -173.666 -3 -180.999 -9c-11.333 -10.667 -24 -46.334 -38 -107.001c-12.667 -55.333 -28 -85.333 -46 -90c-22.667 -5.33301 -98.667 -8 -228 -8c-102 0 -153 9.66699 -153 29c0 17.333 75.333 230.333 226 639c163.333 442 252 685 266 729
c8 25.333 17.333 38 28 38c18 0 45.833 -1.66699 83.5 -5s65.834 -5 84.501 -5c18 0 44.5 1.16699 79.5 3.5s61.167 3.5 78.5 3.5c12.667 0 24.334 -11 35.001 -33c32.667 -70 128 -310 286 -720c158.667 -412.667 238 -628 238 -646zM701.997 936.001
c-14 -29.333 -37.667 -93 -71 -191c-36 -104 -54 -165 -54 -183c0 -12 20 -18.667 60 -20c20.667 -1.33301 54.667 -2 102 -2c44 0 68.333 5.33301 73 16c1.33301 3.33301 2 8 2 14c0 22 -15.333 82.667 -46 182c-30 96 -52 157.333 -66 184zM893.997 1452
c-34 0 -101.999 62.001 -203.999 186.001l-8 -6c-12 -28 -38.333 -63.333 -79 -106c-45.333 -46.667 -80.333 -70 -105 -70c-0.666992 0 -30.334 11 -89.001 33c-45.333 17.333 -68 27.666 -68 30.999s3.66699 9.33301 11 18l128 144c52.667 63.333 87 117 103 161
c4.66699 12.667 13 19 25 19h174c11.333 0 19 -6.33301 23 -19c14 -44 43.333 -93 88 -147l161 -176c-1.33301 -2 -27 -13.833 -77 -35.5s-77.667 -32.5 -83 -32.5z" />
    <glyph glyph-name="Atilde" unicode="&#xc3;" horiz-adv-x="1421" 
d="M1411 25c0 -12 -8.33594 -20.332 -25.0029 -24.999c-20 -5.33301 -82 -8 -186 -8c-95.333 0 -156.666 2.66699 -183.999 8c-22.667 4.66699 -37 19.667 -43 45c-22.667 96 -40.334 147.333 -53.001 154c-10.667 4.66699 -100 7 -268 7
c-113.333 0 -173.666 -3 -180.999 -9c-11.333 -10.667 -24 -46.334 -38 -107.001c-12.667 -55.333 -28 -85.333 -46 -90c-22.667 -5.33301 -98.667 -8 -228 -8c-102 0 -153 9.66699 -153 29c0 17.333 75.333 230.333 226 639c163.333 442 252 685 266 729
c8 25.333 17.333 38 28 38c18 0 45.833 -1.66699 83.5 -5s65.834 -5 84.501 -5c18 0 44.5 1.16699 79.5 3.5s61.167 3.5 78.5 3.5c12.667 0 24.334 -11 35.001 -33c32.667 -70 128 -310 286 -720c158.667 -412.667 238 -628 238 -646zM701.997 936.001
c-14 -29.333 -37.667 -93 -71 -191c-36 -104 -54 -165 -54 -183c0 -12 20 -18.667 60 -20c20.667 -1.33301 54.667 -2 102 -2c44 0 68.333 5.33301 73 16c1.33301 3.33301 2 8 2 14c0 22 -15.333 82.667 -46 182c-30 96 -52 157.333 -66 184zM1049 1633
c-84 -94.667 -172.329 -142.001 -264.996 -142.001c-26 0 -58.833 13.833 -98.5 41.5s-72.167 41.5 -97.5 41.5c-23.333 0 -47.666 -11.333 -72.999 -34s-42 -34 -50 -34c-18.667 6.66699 -47.334 28.667 -86.001 66s-58.334 64 -59.001 80
c7.33301 28 41.666 60.333 102.999 97s108 55 140 55c28 0 64.667 -12.333 110 -37s81.666 -37 108.999 -37c23.333 0 50.666 11.667 81.999 35s52 35 62 35s33.333 -23.667 70 -71s55 -76.666 55 -87.999z" />
    <glyph glyph-name="Adieresis" unicode="&#xc4;" horiz-adv-x="1421" 
d="M1411 25c0 -12 -8.33594 -20.332 -25.0029 -24.999c-20 -5.33301 -82 -8 -186 -8c-95.333 0 -156.666 2.66699 -183.999 8c-22.667 4.66699 -37 19.667 -43 45c-22.667 96 -40.334 147.333 -53.001 154c-10.667 4.66699 -100 7 -268 7
c-113.333 0 -173.666 -3 -180.999 -9c-11.333 -10.667 -24 -46.334 -38 -107.001c-12.667 -55.333 -28 -85.333 -46 -90c-22.667 -5.33301 -98.667 -8 -228 -8c-102 0 -153 9.66699 -153 29c0 17.333 75.333 230.333 226 639c163.333 442 252 685 266 729
c8 25.333 17.333 38 28 38c18 0 45.833 -1.66699 83.5 -5s65.834 -5 84.501 -5c18 0 44.5 1.16699 79.5 3.5s61.167 3.5 78.5 3.5c12.667 0 24.334 -11 35.001 -33c32.667 -70 128 -310 286 -720c158.667 -412.667 238 -628 238 -646zM701.997 936.001
c-14 -29.333 -37.667 -93 -71 -191c-36 -104 -54 -165 -54 -183c0 -12 20 -18.667 60 -20c20.667 -1.33301 54.667 -2 102 -2c44 0 68.333 5.33301 73 16c1.33301 3.33301 2 8 2 14c0 22 -15.333 82.667 -46 182c-30 96 -52 157.333 -66 184zM1093 1645
c0 -16 2.49902 -39.668 7.49902 -71.001s7.5 -54.666 7.5 -69.999c0 -10.667 -13.333 -17.667 -40 -21c-18.667 -2.66699 -44.667 -3.66699 -78 -3c-51.333 2 -71.666 3 -60.999 3c-13.333 0 -33.333 -0.666992 -60 -2s-46.667 -2 -60 -2c-24.667 0 -37 12.667 -37 38
c0 14.667 0.666992 36 2 64s2 49.333 2 64c0 15.333 -0.833008 38.833 -2.5 70.5s-2.5 55.167 -2.5 70.5c0 23.333 9.66699 35 29 35c16.667 0 41.667 -1.33301 75 -4s58.333 -4 75 -4c13.333 0 33.5 0.5 60.5 1.5s47.167 1.5 60.5 1.5c22.667 0 34 -7.33301 34 -22
c0 -16.667 -2 -41.5 -6 -74.5s-6 -57.833 -6 -74.5zM597.996 1641c0 -16.667 2.00293 -40.833 6.00293 -72.5s6 -55.5 6 -71.5c0 -12.667 -9.66699 -19 -29 -19c-16.667 0 -41.5 0.833008 -74.5 2.5s-57.833 2.5 -74.5 2.5c-14.667 0 -36.334 -1 -65.001 -3
s-50.334 -3 -65.001 -3c-17.333 0 -26 8.33301 -26 25c0 14 1 35 3 63s3 49 3 63c0 18 -1.33301 44.833 -4 80.5s-4 62.5 -4 80.5c0 19.333 11 29 33 29c28.667 0 71.667 -0.5 129 -1.5s100.166 -1.5 128.499 -1.5s42.5 -9.33301 42.5 -28c0 -16 -1.5 -40.333 -4.5 -73
s-4.5 -57 -4.5 -73z" />
    <glyph glyph-name="Aring" unicode="&#xc5;" horiz-adv-x="1421" 
d="M1411 25c0 -22 -70.3311 -32.999 -210.998 -32.999c-101.333 0 -162.5 2.66699 -183.5 8s-35.5 20.333 -43.5 45c-8 27.333 -15.667 55 -23 83c-12.667 42.667 -22.667 66.334 -30 71.001c-10 4.66699 -99.333 7 -268 7c-114 0 -174.5 -3.33301 -181.5 -10
s-22.5 -52.334 -46.5 -137.001l-10 -35c-4.66699 -10.667 -13.834 -18.667 -27.501 -24s-73.5 -8 -179.5 -8c-134 0 -201 9.33301 -201 28c0 9.33301 72.333 215 217 617c142 392.667 226.667 624 254 694c-61.333 54.667 -92 123.667 -92 207
c0 82.667 32 152.334 96 209.001c61.333 54.667 133.666 82 216.999 82c84 0 156.333 -27.333 217 -82c63.333 -56.667 95 -126.334 95 -209.001c0 -80.667 -31.667 -150.334 -95 -209.001c50 -120.667 141.333 -353.667 274 -699c148 -386 222 -587.667 222 -605z
M827.002 1536c0 37.333 -12.167 68.166 -36.5 92.499s-55.166 36.5 -92.499 36.5c-36.667 0 -67.667 -12 -93 -36s-38 -54.333 -38 -91c0 -33.333 13.167 -62.5 39.5 -87.5s56.166 -37.5 89.499 -37.5c35.333 0 66 11.833 92 35.5s39 52.834 39 87.501zM702.002 936.001
c-14 -29.333 -37.667 -93 -71 -191c-36 -104 -54 -165 -54 -183c0 -14.667 54 -22 162 -22c50 0 75 10 75 30c0 22 -15.333 82.667 -46 182c-30 96 -52 157.333 -66 184z" />
    <glyph glyph-name="AE" unicode="&#xc6;" horiz-adv-x="1772" 
d="M1733 311c0 -28 -5.66797 -80.6689 -17.001 -158.002c-12.667 -84 -23.667 -133.667 -33 -149c-8 -12.667 -19 -19 -33 -19c-6 0 -16 1 -30 3c-47.333 6.66699 -162 10 -344 10c-50 0 -124.5 0.333008 -223.5 1s-173.5 1 -223.5 1c-8.66699 0 -15.334 1 -20.001 3
c-6.66699 3.33301 -10 12 -10 26c0 28 0.666992 64.333 2 109c2 58.667 3.33301 95.334 4 110.001c-48.667 5.33301 -86.334 8 -113.001 8c-127.333 0 -216 -2.66699 -266 -8c-12.667 -1.33301 -20.667 -3.16602 -24 -5.49902s-7.66602 -8.83301 -12.999 -19.5
c-25.333 -54 -50.666 -120.667 -75.999 -200c-2.66699 -10 -5.16699 -15.833 -7.5 -17.5s-8.5 -3.5 -18.5 -5.5c-25.333 -4 -69 -6 -131 -6s-107.333 2 -136 6c-20 2.66699 -30 11.667 -30 27c0 16 1.33301 40.167 4 72.5s4 56.5 4 72.5s2.66699 31 8 45
c0.666992 1.33301 35.334 75.333 104.001 222l346 771c18 37.333 42 93.333 72 168c8.66699 26 21 39 37 39c37.333 0 90.666 -2.33301 159.999 -7c73.333 -5.33301 126.666 -8.33301 159.999 -9c22 -0.666992 84 -2 186 -4c76 -1.33301 138 -2 186 -2
c40 0 99.833 1.33301 179.5 4s139.5 4 179.5 4c34.667 0 54.334 -13 59.001 -39c4 -18 9.5 -64.667 16.5 -140s10.5 -122.333 10.5 -141c0 -14 -7 -21 -21 -21c-26 0 -64 2.66699 -114 8c-52.667 6 -91 9 -115 9c-17.333 0.666992 -48.666 2 -93.999 4
c-39.333 1.33301 -70.666 2 -93.999 2c-35.333 0 -57 -8.33301 -65 -25c-3.33301 -8 -5 -33.667 -5 -77c0 -45.333 6.66699 -75.333 20 -90c11.333 -12.667 33 -19 65 -19c7.33301 0 20.5 0.5 39.5 1.5s34.833 1.5 47.5 1.5c70.667 0 132 2 184 6c7.33301 0 24 2 50 6
c20.667 2.66699 37 4 49 4c16 0 24 -7.66699 24 -23c0 13.333 -6 -37.667 -18 -153c-5.33301 -53.333 -8 -106.666 -8 -159.999c0 -13.333 -10 -20 -30 -20c0.666992 0 -29 3.33301 -89 10c-38 4 -105 6 -201 6c-14 0 -30.333 0.666992 -49 2s-30.334 2 -35.001 2
c-19.333 0 -32.333 -5.5 -39 -16.5s-10 -34.167 -10 -69.5c0 -50.667 3.33301 -83.334 10 -98.001c12 -25.333 54.667 -40.333 128 -45c-1.33301 0 47.667 0 147 0c26 0 64.833 3.16699 116.5 9.5s90.167 9.5 115.5 9.5c14.667 0 22 -12 22 -36zM820.999 1104
c0 36.667 -7.66699 55.001 -23 55.001c-12 0 -24 -14.333 -36 -43c-18 -42.667 -54 -136 -108 -280c-60 -159.333 -90 -244.333 -90 -255c0 -17.333 16 -26 48 -26c20 0 49.5 -0.5 88.5 -1.5s68.5 -1.5 88.5 -1.5c12.667 0 22 0.333008 28 1
c2.66699 81.333 4 148.666 4 201.999v349z" />
    <glyph glyph-name="Ccedilla" unicode="&#xc7;" horiz-adv-x="1276" 
d="M1260 226c0 -10.667 -7 -24.666 -21 -41.999c-122.667 -146 -285.667 -219 -489 -219c-208 0 -376.667 71 -506 213c-126 137.333 -189 310.666 -189 519.999c0 202.667 61.667 374.667 185 516c128.667 148 292.334 222 491.001 222c216 0 385.333 -66.333 508 -199
c13.333 -14.667 20 -27.667 20 -39c0 -12.667 -23.167 -59.667 -69.5 -141s-75.5 -127 -87.5 -137c-5.33301 -5.33301 -12 -8 -20 -8c-3.33301 0 -20 13.333 -50 40c-36 32 -71.333 57 -106 75c-52.667 26.667 -107.334 40 -164.001 40c-98 0 -176.333 -36.667 -235 -110
c-54 -68 -81 -152 -81 -252c0 -101.333 27 -186.333 81 -255c58.667 -74.667 137 -112 235 -112c58 0 113 12.667 165 38c34 16.667 68.667 40 104 70c29.333 25.333 45.666 38 48.999 38c6.66699 0 13.334 -3.66699 20.001 -11c10.667 -12 39.667 -53.667 87 -125
c48.667 -74 73 -114.667 73 -122zM902 -112.999c0 -200.667 -95.999 -301.001 -287.999 -301.001c-24 0 -57.333 11.667 -100 35c-45.333 24.667 -68 46.334 -68 65.001c0 2 15.667 20 47 54c10 16 20.333 31.667 31 47c15.333 23.333 27.333 35 36 35
c2.66699 0 13.167 -7 31.5 -21s35.166 -21 50.499 -21c22 0 41.667 8.16699 59 24.5s26 35.5 26 57.5c0 56 -27 100 -81 132l193 -23c14.667 -18 35.667 -46 63 -84z" />
    <glyph glyph-name="Egrave" unicode="&#xc8;" horiz-adv-x="1157" 
d="M1116 311c0 -28.667 -5.6709 -81.334 -17.0039 -158.001c-12 -83.333 -22.667 -133 -32 -149c-8 -12.667 -19 -19 -33 -19c-6 0 -16 1 -30 3c-48.667 6.66699 -190.667 10 -426 10c-51.333 0 -127.666 0.333008 -228.999 1s-177.333 1 -228 1c-22 0 -33 9.66699 -33 29
c0 74.667 4.16699 186.834 12.5 336.501s12.5 261.834 12.5 336.501c0 76 -4 217.667 -12 425c-2 53.333 -5.66699 133 -11 239l-1 14c-1.33301 15.333 7 23 25 23c49.333 0 123.5 -1.33301 222.5 -4s173.167 -4 222.5 -4c48.667 0 122 1.33301 220 4s171.333 4 220 4
c34.667 0 54.667 -13 60 -39c3.33301 -15.333 8.5 -61.833 15.5 -139.5s10.5 -124.834 10.5 -141.501c0 -14 -6.66699 -21 -20 -21c-4 0 -11 0.333008 -21 1c-177.333 14.667 -336.666 22 -477.999 22c-35.333 0 -57 -8.33301 -65 -25c-3.33301 -8 -5 -33.667 -5 -77
c0 -45.333 6.66699 -75.333 20 -90c11.333 -12.667 33 -19 65 -19c6.66699 0 19.667 0.5 39 1.5s35.333 1.5 48 1.5c84 0 169 2.33301 255 7l55 5c22.667 2.66699 40.667 4 54 4c16 0 24 -7.66699 24 -23c0 14 -6 -37 -18 -153c-5.33301 -53.333 -8 -106.666 -8 -159.999
c0 -13.333 -9.66699 -20 -29 -20l-90 10c-38 4 -124.667 6 -260 6h-106c-27.333 0 -43.333 -6.66699 -48 -20c-0.666992 -3.33301 -1 -24 -1 -62c0 -50.667 3.33301 -83.334 10 -98.001c11.333 -25.333 54 -40.333 128 -45c-1.33301 0 47.334 0 146.001 0
c35.333 0 87.833 3.16699 157.5 9.5s121.834 9.5 156.501 9.5c14.667 0 22 -12 22 -36zM844.996 1460c0 -12.667 -7.33203 -18.998 -21.999 -18.998h-8c-86.667 8.66699 -185.334 35.667 -296.001 81c-115.333 48 -203 100.333 -263 157c-10 8.66699 -15 16 -15 22
c0 5.33301 5 11.666 15 18.999l86 53c16 15.333 41 38 75 68c4 3.33301 10 6.66602 18 9.99902l197 -139c80 -46 144.333 -79 193 -99c13.333 -5.33301 20 -12 20 -20c0 -7.33301 -1 -18.333 -3 -33s-3 -25.667 -3 -33s1 -18.5 3 -33.5s3 -26.167 3 -33.5z" />
    <glyph glyph-name="Eacute" unicode="&#xc9;" horiz-adv-x="1157" 
d="M1116 311c0 -28.667 -5.6709 -81.334 -17.0039 -158.001c-12 -83.333 -22.667 -133 -32 -149c-8 -12.667 -19 -19 -33 -19c-6 0 -16 1 -30 3c-48.667 6.66699 -190.667 10 -426 10c-51.333 0 -127.666 0.333008 -228.999 1s-177.333 1 -228 1c-22 0 -33 9.66699 -33 29
c0 74.667 4.16699 186.834 12.5 336.501s12.5 261.834 12.5 336.501c0 76 -4 217.667 -12 425c-2 53.333 -5.66699 133 -11 239l-1 14c-1.33301 15.333 7 23 25 23c49.333 0 123.5 -1.33301 222.5 -4s173.167 -4 222.5 -4c48.667 0 122 1.33301 220 4s171.333 4 220 4
c34.667 0 54.667 -13 60 -39c3.33301 -15.333 8.5 -61.833 15.5 -139.5s10.5 -124.834 10.5 -141.501c0 -14 -6.66699 -21 -20 -21c-4 0 -11 0.333008 -21 1c-177.333 14.667 -336.666 22 -477.999 22c-35.333 0 -57 -8.33301 -65 -25c-3.33301 -8 -5 -33.667 -5 -77
c0 -45.333 6.66699 -75.333 20 -90c11.333 -12.667 33 -19 65 -19c6.66699 0 19.667 0.5 39 1.5s35.333 1.5 48 1.5c84 0 169 2.33301 255 7l55 5c22.667 2.66699 40.667 4 54 4c16 0 24 -7.66699 24 -23c0 14 -6 -37 -18 -153c-5.33301 -53.333 -8 -106.666 -8 -159.999
c0 -13.333 -9.66699 -20 -29 -20l-90 10c-38 4 -124.667 6 -260 6h-106c-27.333 0 -43.333 -6.66699 -48 -20c-0.666992 -3.33301 -1 -24 -1 -62c0 -50.667 3.33301 -83.334 10 -98.001c11.333 -25.333 54 -40.333 128 -45c-1.33301 0 47.334 0 146.001 0
c35.333 0 87.833 3.16699 157.5 9.5s121.834 9.5 156.501 9.5c14.667 0 22 -12 22 -36zM377.996 1439c-12.667 -0.666992 -19.001 6.33496 -19.001 21.002c0 5.33301 0.666992 13.666 2 24.999s2 20 2 26c0 8 -1.16699 20.333 -3.5 37s-3.5 29 -3.5 37
c0 9.33301 7 16.666 21 21.999c32.667 12.667 96 45.667 190 99l185 131c4 3.33301 10.667 6.66602 20 9.99902c4.66699 -1.33301 10.334 -4.66602 17.001 -9.99902c15.333 -16 39.666 -38.667 72.999 -68c18.667 -10.667 46 -27.667 82 -51c10.667 -7.33301 16 -14 16 -20
c0 -5.33301 -4.66699 -12.333 -14 -21c-58.667 -55.333 -146.667 -107.833 -264 -157.5s-215.666 -76.5 -294.999 -80.5h-9z" />
    <glyph glyph-name="Ecircumflex" unicode="&#xca;" horiz-adv-x="1157" 
d="M1116 311c0 -28.667 -5.6709 -81.334 -17.0039 -158.001c-12 -83.333 -22.667 -133 -32 -149c-8 -12.667 -19 -19 -33 -19c-6 0 -16 1 -30 3c-48.667 6.66699 -190.667 10 -426 10c-51.333 0 -127.666 0.333008 -228.999 1s-177.333 1 -228 1c-22 0 -33 9.66699 -33 29
c0 74.667 4.16699 186.834 12.5 336.501s12.5 261.834 12.5 336.501c0 76 -4 217.667 -12 425c-2 53.333 -5.66699 133 -11 239l-1 14c-1.33301 15.333 7 23 25 23c49.333 0 123.5 -1.33301 222.5 -4s173.167 -4 222.5 -4c48.667 0 122 1.33301 220 4s171.333 4 220 4
c34.667 0 54.667 -13 60 -39c3.33301 -15.333 8.5 -61.833 15.5 -139.5s10.5 -124.834 10.5 -141.501c0 -14 -6.66699 -21 -20 -21c-4 0 -11 0.333008 -21 1c-177.333 14.667 -336.666 22 -477.999 22c-35.333 0 -57 -8.33301 -65 -25c-3.33301 -8 -5 -33.667 -5 -77
c0 -45.333 6.66699 -75.333 20 -90c11.333 -12.667 33 -19 65 -19c6.66699 0 19.667 0.5 39 1.5s35.333 1.5 48 1.5c84 0 169 2.33301 255 7l55 5c22.667 2.66699 40.667 4 54 4c16 0 24 -7.66699 24 -23c0 14 -6 -37 -18 -153c-5.33301 -53.333 -8 -106.666 -8 -159.999
c0 -13.333 -9.66699 -20 -29 -20l-90 10c-38 4 -124.667 6 -260 6h-106c-27.333 0 -43.333 -6.66699 -48 -20c-0.666992 -3.33301 -1 -24 -1 -62c0 -50.667 3.33301 -83.334 10 -98.001c11.333 -25.333 54 -40.333 128 -45c-1.33301 0 47.334 0 146.001 0
c35.333 0 87.833 3.16699 157.5 9.5s121.834 9.5 156.501 9.5c14.667 0 22 -12 22 -36zM785.996 1438c-34 0 -101.999 62.001 -203.999 186.001l-8 -6c-12 -28 -38.333 -63.333 -79 -106c-45.333 -46.667 -80.333 -70 -105 -70c-0.666992 0 -30.334 11 -89.001 33
c-45.333 17.333 -68 27.666 -68 30.999s3.66699 9.33301 11 18l128 144c52.667 63.333 87 117 103 161c4.66699 12.667 13 19 25 19h174c11.333 0 19 -6.33301 23 -19c14 -44 43.333 -93 88 -147l161 -176c-1.33301 -2 -27 -13.833 -77 -35.5s-77.667 -32.5 -83 -32.5z" />
    <glyph glyph-name="Edieresis" unicode="&#xcb;" horiz-adv-x="1157" 
d="M1116 311c0 -28.667 -5.6709 -81.334 -17.0039 -158.001c-12 -83.333 -22.667 -133 -32 -149c-8 -12.667 -19 -19 -33 -19c-6 0 -16 1 -30 3c-48.667 6.66699 -190.667 10 -426 10c-51.333 0 -127.666 0.333008 -228.999 1s-177.333 1 -228 1c-22 0 -33 9.66699 -33 29
c0 74.667 4.16699 186.834 12.5 336.501s12.5 261.834 12.5 336.501c0 76 -4 217.667 -12 425c-2 53.333 -5.66699 133 -11 239l-1 14c-1.33301 15.333 7 23 25 23c49.333 0 123.5 -1.33301 222.5 -4s173.167 -4 222.5 -4c48.667 0 122 1.33301 220 4s171.333 4 220 4
c34.667 0 54.667 -13 60 -39c3.33301 -15.333 8.5 -61.833 15.5 -139.5s10.5 -124.834 10.5 -141.501c0 -14 -6.66699 -21 -20 -21c-4 0 -11 0.333008 -21 1c-177.333 14.667 -336.666 22 -477.999 22c-35.333 0 -57 -8.33301 -65 -25c-3.33301 -8 -5 -33.667 -5 -77
c0 -45.333 6.66699 -75.333 20 -90c11.333 -12.667 33 -19 65 -19c6.66699 0 19.667 0.5 39 1.5s35.333 1.5 48 1.5c84 0 169 2.33301 255 7l55 5c22.667 2.66699 40.667 4 54 4c16 0 24 -7.66699 24 -23c0 14 -6 -37 -18 -153c-5.33301 -53.333 -8 -106.666 -8 -159.999
c0 -13.333 -9.66699 -20 -29 -20l-90 10c-38 4 -124.667 6 -260 6h-106c-27.333 0 -43.333 -6.66699 -48 -20c-0.666992 -3.33301 -1 -24 -1 -62c0 -50.667 3.33301 -83.334 10 -98.001c11.333 -25.333 54 -40.333 128 -45c-1.33301 0 47.334 0 146.001 0
c35.333 0 87.833 3.16699 157.5 9.5s121.834 9.5 156.501 9.5c14.667 0 22 -12 22 -36zM997.996 1624c0 -16 2.49902 -39.668 7.49902 -71.001s7.5 -54.666 7.5 -69.999c0 -10.667 -13.333 -17.667 -40 -21c-18.667 -2.66699 -44.667 -3.66699 -78 -3
c-51.333 2 -71.666 3 -60.999 3c-13.333 0 -33.333 -0.666992 -60 -2s-46.667 -2 -60 -2c-24.667 0 -37 12.667 -37 38c0 14.667 0.666992 36 2 64s2 49.333 2 64c0 15.333 -0.833008 38.833 -2.5 70.5s-2.5 55.167 -2.5 70.5c0 23.333 9.66699 35 29 35
c16.667 0 41.667 -1.33301 75 -4s58.333 -4 75 -4c13.333 0 33.5 0.5 60.5 1.5s47.167 1.5 60.5 1.5c22.667 0 34 -7.33301 34 -22c0 -16.667 -2 -41.5 -6 -74.5s-6 -57.833 -6 -74.5zM502.995 1620c0 -16.667 2.00293 -40.833 6.00293 -72.5s6 -55.5 6 -71.5
c0 -12.667 -9.66699 -19 -29 -19c-16.667 0 -41.5 0.833008 -74.5 2.5s-57.833 2.5 -74.5 2.5c-14.667 0 -36.334 -1 -65.001 -3s-50.334 -3 -65.001 -3c-17.333 0 -26 8.33301 -26 25c0 14 1 35 3 63s3 49 3 63c0 18 -1.33301 44.833 -4 80.5s-4 62.5 -4 80.5
c0 19.333 11 29 33 29c28.667 0 71.667 -0.5 129 -1.5s100.166 -1.5 128.499 -1.5s42.5 -9.33301 42.5 -28c0 -16 -1.5 -40.333 -4.5 -73s-4.5 -57 -4.5 -73z" />
    <glyph glyph-name="Igrave" unicode="&#xcc;" horiz-adv-x="610" 
d="M498 739c0 -78.667 1.99805 -197.001 5.99805 -355.001s6 -276.333 6 -355c0 -13.333 -3 -21.666 -9 -24.999c-1.33301 -0.666992 -10 -2 -26 -4c-43.333 -5.33301 -101.333 -8 -174 -8c-97.333 0 -159.333 2.66699 -186 8c-19.333 4 -29 14.333 -29 31
c0 -10.667 3 48 9 176c12 270 18 447.333 18 532c0 71.333 -2.33301 178.333 -7 321s-7 249.667 -7 321c0 14.667 7.66699 22 23 22c20.667 0 51.834 -1 93.501 -3s72.834 -3 93.501 -3s51.167 1 91.5 3s70.833 3 91.5 3c19.333 0 29 -7.33301 29 -22
c0 -71.333 -3.83301 -178.333 -11.5 -321s-11.5 -249.667 -11.5 -321zM543.998 1467c0 -12.667 -7.33203 -18.998 -21.999 -18.998h-8c-86.667 8.66699 -185.334 35.667 -296.001 81c-115.333 48 -203 100.333 -263 157c-10 8.66699 -15 16 -15 22
c0 5.33301 5 11.666 15 18.999l86 53c16 15.333 41 38 75 68c4 3.33301 10 6.66602 18 9.99902l197 -139c80 -46 144.333 -79 193 -99c13.333 -5.33301 20 -12 20 -20c0 -7.33301 -1 -18.333 -3 -33s-3 -25.667 -3 -33s1 -18.5 3 -33.5s3 -26.167 3 -33.5z" />
    <glyph glyph-name="Iacute" unicode="&#xcd;" horiz-adv-x="610" 
d="M498 739c0 -78.667 1.99805 -197.001 5.99805 -355.001s6 -276.333 6 -355c0 -13.333 -3 -21.666 -9 -24.999c-1.33301 -0.666992 -10 -2 -26 -4c-43.333 -5.33301 -101.333 -8 -174 -8c-97.333 0 -159.333 2.66699 -186 8c-19.333 4 -29 14.333 -29 31
c0 -10.667 3 48 9 176c12 270 18 447.333 18 532c0 71.333 -2.33301 178.333 -7 321s-7 249.667 -7 321c0 14.667 7.66699 22 23 22c20.667 0 51.834 -1 93.501 -3s72.834 -3 93.501 -3s51.167 1 91.5 3s70.833 3 91.5 3c19.333 0 29 -7.33301 29 -22
c0 -71.333 -3.83301 -178.333 -11.5 -321s-11.5 -249.667 -11.5 -321zM111.998 1443c-12.667 -0.666992 -19.001 6.33496 -19.001 21.002c0 5.33301 0.666992 13.666 2 24.999s2 20 2 26c0 8 -1.16699 20.333 -3.5 37s-3.5 29 -3.5 37c0 9.33301 7 16.666 21 21.999
c32.667 12.667 96 45.667 190 99l185 131c4 3.33301 10.667 6.66602 20 9.99902c4.66699 -1.33301 10.334 -4.66602 17.001 -9.99902c15.333 -16 39.666 -38.667 72.999 -68c18.667 -10.667 46 -27.667 82 -51c10.667 -7.33301 16 -14 16 -20
c0 -5.33301 -4.66699 -12.333 -14 -21c-58.667 -55.333 -146.667 -107.833 -264 -157.5s-215.666 -76.5 -294.999 -80.5h-9z" />
    <glyph glyph-name="Icircumflex" unicode="&#xce;" horiz-adv-x="610" 
d="M498 739c0 -78.667 1.99805 -197.001 5.99805 -355.001s6 -276.333 6 -355c0 -13.333 -3 -21.666 -9 -24.999c-1.33301 -0.666992 -10 -2 -26 -4c-43.333 -5.33301 -101.333 -8 -174 -8c-97.333 0 -159.333 2.66699 -186 8c-19.333 4 -29 14.333 -29 31
c0 -10.667 3 48 9 176c12 270 18 447.333 18 532c0 71.333 -2.33301 178.333 -7 321s-7 249.667 -7 321c0 14.667 7.66699 22 23 22c20.667 0 51.834 -1 93.501 -3s72.834 -3 93.501 -3s51.167 1 91.5 3s70.833 3 91.5 3c19.333 0 29 -7.33301 29 -22
c0 -71.333 -3.83301 -178.333 -11.5 -321s-11.5 -249.667 -11.5 -321zM510.998 1448c-34 0 -101.999 62.001 -203.999 186.001l-8 -6c-12 -28 -38.333 -63.333 -79 -106c-45.333 -46.667 -80.333 -70 -105 -70c-0.666992 0 -30.334 11 -89.001 33
c-45.333 17.333 -68 27.666 -68 30.999s3.66699 9.33301 11 18l128 144c52.667 63.333 87 117 103 161c4.66699 12.667 13 19 25 19h174c11.333 0 19 -6.33301 23 -19c14 -44 43.333 -93 88 -147l161 -176c-1.33301 -2 -27 -13.833 -77 -35.5s-77.667 -32.5 -83 -32.5z" />
    <glyph glyph-name="Idieresis" unicode="&#xcf;" horiz-adv-x="610" 
d="M498 739c0 -78.667 1.99805 -197.001 5.99805 -355.001s6 -276.333 6 -355c0 -13.333 -3 -21.666 -9 -24.999c-1.33301 -0.666992 -10 -2 -26 -4c-43.333 -5.33301 -101.333 -8 -174 -8c-97.333 0 -159.333 2.66699 -186 8c-19.333 4 -29 14.333 -29 31
c0 -10.667 3 48 9 176c12 270 18 447.333 18 532c0 71.333 -2.33301 178.333 -7 321s-7 249.667 -7 321c0 14.667 7.66699 22 23 22c20.667 0 51.834 -1 93.501 -3s72.834 -3 93.501 -3s51.167 1 91.5 3s70.833 3 91.5 3c19.333 0 29 -7.33301 29 -22
c0 -71.333 -3.83301 -178.333 -11.5 -321s-11.5 -249.667 -11.5 -321zM718.998 1624c0 -16 2.49902 -39.668 7.49902 -71.001s7.5 -54.666 7.5 -69.999c0 -10.667 -13.333 -17.667 -40 -21c-18.667 -2.66699 -44.667 -3.66699 -78 -3c-51.333 2 -71.666 3 -60.999 3
c-13.333 0 -33.333 -0.666992 -60 -2s-46.667 -2 -60 -2c-24.667 0 -37 12.667 -37 38c0 14.667 0.666992 36 2 64s2 49.333 2 64c0 15.333 -0.833008 38.833 -2.5 70.5s-2.5 55.167 -2.5 70.5c0 23.333 9.66699 35 29 35c16.667 0 41.667 -1.33301 75 -4s58.333 -4 75 -4
c13.333 0 33.5 0.5 60.5 1.5s47.167 1.5 60.5 1.5c22.667 0 34 -7.33301 34 -22c0 -16.667 -2 -41.5 -6 -74.5s-6 -57.833 -6 -74.5zM223.997 1620c0 -16.667 2.00293 -40.833 6.00293 -72.5s6 -55.5 6 -71.5c0 -12.667 -9.66699 -19 -29 -19
c-16.667 0 -41.5 0.833008 -74.5 2.5s-57.833 2.5 -74.5 2.5c-14.667 0 -36.334 -1 -65.001 -3s-50.334 -3 -65.001 -3c-17.333 0 -26 8.33301 -26 25c0 14 1 35 3 63s3 49 3 63c0 18 -1.33301 44.833 -4 80.5s-4 62.5 -4 80.5c0 19.333 11 29 33 29
c28.667 0 71.667 -0.5 129 -1.5s100.166 -1.5 128.499 -1.5s42.5 -9.33301 42.5 -28c0 -16 -1.5 -40.333 -4.5 -73s-4.5 -57 -4.5 -73z" />
    <glyph glyph-name="Eth" unicode="&#xd0;" horiz-adv-x="1460" 
d="M1397 709c0 -196 -62.999 -365.999 -188.999 -509.999c-111.333 -128.667 -267.666 -196.334 -468.999 -203.001c-38.667 -1.33301 -145 -2 -319 -2c-32.667 0 -81.834 1 -147.501 3s-114.834 3 -147.501 3c-19.333 0 -29 7.66699 -29 23
c0 73.333 2.83301 183.5 8.5 330.5s8.5 257.167 8.5 330.5c0 76.667 -2.83301 191.5 -8.5 344.5s-8.5 267.5 -8.5 343.5c0 14 9.66699 22.333 29 25c47.333 5.33301 125 8 233 8c205.333 0 338.333 -3 399 -9c158 -16 281.667 -56 371 -120c84 -60 150.333 -144 199 -252
c46.667 -102 70 -207 70 -315zM1014 709.001c0 112.667 -33.667 204.667 -101 276c-68 74 -158 111 -270 111c-102.667 0 -154 -13.667 -154 -41c0 -39.333 -0.666992 -98.5 -2 -177.5s-2 -138.167 -2 -177.5c0 -38.667 0.666992 -96.834 2 -174.501s2 -136.167 2 -175.5
c0 -28.667 53.333 -43 160 -43c115.333 0 206 38.333 272 115c62 72.667 93 168.334 93 287.001zM778.001 820.001c0 -28.667 -3.33398 -71.667 -10.001 -129s-10 -100.333 -10 -129c0 -12 -6.66699 -18 -20 -18l-9 2c-4 0 -99.667 2.33301 -287 7l-86 2h4h3h1l-5 -1h-14
l-60 -3c-149.333 -6.66699 -234.666 -10 -255.999 -10c-16.667 0 -25 9.33301 -25 28c0 12.667 9 101.667 27 267c4.66699 13.333 14 20 28 20c196 0 307 -3.66699 333 -11h-11h-9l384 11c14.667 -10 22 -22 22 -36z" />
    <glyph glyph-name="Ntilde" unicode="&#xd1;" horiz-adv-x="1524" 
d="M1430 1372c0 -76 -3.16602 -190.168 -9.49902 -342.501s-9.5 -266.833 -9.5 -343.5v-659c0 -18 -9.66699 -27 -29 -27c-16 0 -40.167 -0.666992 -72.5 -2s-56.5 -2 -72.5 -2c-17.333 0 -43.333 1.33301 -78 4s-60.667 4 -78 4c-12 0 -26.333 11 -43 33l-324 430l-210 274
c-2.66699 4 -7.66699 8 -15 12c-5.33301 -4.66699 -8 -12 -8 -22c0 -77.333 2.16699 -193.333 6.5 -348s6.5 -270.667 6.5 -348c0 -23.333 -9 -35 -27 -35h-346c-19.333 0 -29 10.333 -29 31c0 72 3.5 180.667 10.5 326s10.5 254.333 10.5 327
c0 76.667 -3.16699 191.334 -9.5 344.001s-9.5 267 -9.5 343c0 14.667 13 22 39 22c38.667 0 86.334 2.66699 143.001 8c13.333 1.33301 39.666 5.66602 78.999 12.999c33.333 6 59.666 9 78.999 9c8 0 20.333 -11.333 37 -34l373 -511l151 -202
c16.667 -20.667 31 -31 43 -31c8.66699 0 13 26 13 78c0 70 -3.83301 175.333 -11.5 316s-11.5 246.334 -11.5 317.001c0 24.667 7 37 21 37c40 0 100.333 1.66699 181 5s141 5 181 5c12.667 0 19 -10.333 19 -31zM1147 1581
c-84 -94.667 -172.329 -142.001 -264.996 -142.001c-26 0 -58.833 13.833 -98.5 41.5s-72.167 41.5 -97.5 41.5c-23.333 0 -47.666 -11.333 -72.999 -34s-42 -34 -50 -34c-18.667 6.66699 -47.334 28.667 -86.001 66s-58.334 64 -59.001 80
c7.33301 28 41.666 60.333 102.999 97s108 55 140 55c28 0 64.667 -12.333 110 -37s81.666 -37 108.999 -37c23.333 0 50.666 11.667 81.999 35s52 35 62 35s33.333 -23.667 70 -71s55 -76.666 55 -87.999z" />
    <glyph glyph-name="Ograve" unicode="&#xd2;" horiz-adv-x="1538" 
d="M1481 700c0 -208 -66.335 -382.333 -199.002 -523c-135.333 -142.667 -306.666 -214 -513.999 -214c-206 0 -377 72 -513 216c-133.333 140.667 -200 314.334 -200 521.001c0 207.333 66.667 381.666 200 522.999c136 144.667 307 217 513 217
c204.667 0 375.334 -72.333 512.001 -217c134 -142.667 201 -317 201 -523zM1102 702c0 100 -30.334 184.999 -91.001 254.999c-63.333 73.333 -144.333 110 -243 110c-94 0 -173.667 -38 -239 -114c-63.333 -73.333 -95 -157.666 -95 -252.999c0 -102 29.667 -187 89 -255
c62.667 -71.333 144.334 -107 245.001 -107c94 0 174 37.667 240 113c62.667 72 94 155.667 94 251zM1038 1489c0 -12.667 -7.33203 -18.998 -21.999 -18.998h-8c-86.667 8.66699 -185.334 35.667 -296.001 81c-115.333 48 -203 100.333 -263 157c-10 8.66699 -15 16 -15 22
c0 5.33301 5 11.666 15 18.999l86 53c16 15.333 41 38 75 68c4 3.33301 10 6.66602 18 9.99902l197 -139c80 -46 144.333 -79 193 -99c13.333 -5.33301 20 -12 20 -20c0 -7.33301 -1 -18.333 -3 -33s-3 -25.667 -3 -33s1 -18.5 3 -33.5s3 -26.167 3 -33.5z" />
    <glyph glyph-name="Oacute" unicode="&#xd3;" horiz-adv-x="1538" 
d="M1481 700c0 -208 -66.335 -382.333 -199.002 -523c-135.333 -142.667 -306.666 -214 -513.999 -214c-206 0 -377 72 -513 216c-133.333 140.667 -200 314.334 -200 521.001c0 207.333 66.667 381.666 200 522.999c136 144.667 307 217 513 217
c204.667 0 375.334 -72.333 512.001 -217c134 -142.667 201 -317 201 -523zM1102 702c0 100 -30.334 184.999 -91.001 254.999c-63.333 73.333 -144.333 110 -243 110c-94 0 -173.667 -38 -239 -114c-63.333 -73.333 -95 -157.666 -95 -252.999c0 -102 29.667 -187 89 -255
c62.667 -71.333 144.334 -107 245.001 -107c94 0 174 37.667 240 113c62.667 72 94 155.667 94 251zM602.997 1470c-12.667 -0.666992 -19.001 6.33496 -19.001 21.002c0 5.33301 0.666992 13.666 2 24.999s2 20 2 26c0 8 -1.16699 20.333 -3.5 37s-3.5 29 -3.5 37
c0 9.33301 7 16.666 21 21.999c32.667 12.667 96 45.667 190 99l185 131c4 3.33301 10.667 6.66602 20 9.99902c4.66699 -1.33301 10.334 -4.66602 17.001 -9.99902c15.333 -16 39.666 -38.667 72.999 -68c18.667 -10.667 46 -27.667 82 -51c10.667 -7.33301 16 -14 16 -20
c0 -5.33301 -4.66699 -12.333 -14 -21c-58.667 -55.333 -146.667 -107.833 -264 -157.5s-215.666 -76.5 -294.999 -80.5h-9z" />
    <glyph glyph-name="Ocircumflex" unicode="&#xd4;" horiz-adv-x="1538" 
d="M1481 700c0 -208 -66.335 -382.333 -199.002 -523c-135.333 -142.667 -306.666 -214 -513.999 -214c-206 0 -377 72 -513 216c-133.333 140.667 -200 314.334 -200 521.001c0 207.333 66.667 381.666 200 522.999c136 144.667 307 217 513 217
c204.667 0 375.334 -72.333 512.001 -217c134 -142.667 201 -317 201 -523zM1102 702c0 100 -30.334 184.999 -91.001 254.999c-63.333 73.333 -144.333 110 -243 110c-94 0 -173.667 -38 -239 -114c-63.333 -73.333 -95 -157.666 -95 -252.999c0 -102 29.667 -187 89 -255
c62.667 -71.333 144.334 -107 245.001 -107c94 0 174 37.667 240 113c62.667 72 94 155.667 94 251zM971.997 1460c-34 0 -101.999 62.001 -203.999 186.001l-8 -6c-12 -28 -38.333 -63.333 -79 -106c-45.333 -46.667 -80.333 -70 -105 -70
c-0.666992 0 -30.334 11 -89.001 33c-45.333 17.333 -68 27.666 -68 30.999s3.66699 9.33301 11 18l128 144c52.667 63.333 87 117 103 161c4.66699 12.667 13 19 25 19h174c11.333 0 19 -6.33301 23 -19c14 -44 43.333 -93 88 -147l161 -176
c-1.33301 -2 -27 -13.833 -77 -35.5s-77.667 -32.5 -83 -32.5z" />
    <glyph glyph-name="Otilde" unicode="&#xd5;" horiz-adv-x="1538" 
d="M1481 700c0 -208 -66.335 -382.333 -199.002 -523c-135.333 -142.667 -306.666 -214 -513.999 -214c-206 0 -377 72 -513 216c-133.333 140.667 -200 314.334 -200 521.001c0 207.333 66.667 381.666 200 522.999c136 144.667 307 217 513 217
c204.667 0 375.334 -72.333 512.001 -217c134 -142.667 201 -317 201 -523zM1102 702c0 100 -30.334 184.999 -91.001 254.999c-63.333 73.333 -144.333 110 -243 110c-94 0 -173.667 -38 -239 -114c-63.333 -73.333 -95 -157.666 -95 -252.999c0 -102 29.667 -187 89 -255
c62.667 -71.333 144.334 -107 245.001 -107c94 0 174 37.667 240 113c62.667 72 94 155.667 94 251zM1137 1616c-84 -94.667 -172.329 -142.001 -264.996 -142.001c-26 0 -58.833 13.833 -98.5 41.5s-72.167 41.5 -97.5 41.5c-23.333 0 -47.666 -11.333 -72.999 -34
s-42 -34 -50 -34c-18.667 6.66699 -47.334 28.667 -86.001 66s-58.334 64 -59.001 80c7.33301 28 41.666 60.333 102.999 97s108 55 140 55c28 0 64.667 -12.333 110 -37s81.666 -37 108.999 -37c23.333 0 50.666 11.667 81.999 35s52 35 62 35s33.333 -23.667 70 -71
s55 -76.666 55 -87.999z" />
    <glyph glyph-name="Odieresis" unicode="&#xd6;" horiz-adv-x="1538" 
d="M1481 700c0 -208 -66.335 -382.333 -199.002 -523c-135.333 -142.667 -306.666 -214 -513.999 -214c-206 0 -377 72 -513 216c-133.333 140.667 -200 314.334 -200 521.001c0 207.333 66.667 381.666 200 522.999c136 144.667 307 217 513 217
c204.667 0 375.334 -72.333 512.001 -217c134 -142.667 201 -317 201 -523zM1102 702c0 100 -30.334 184.999 -91.001 254.999c-63.333 73.333 -144.333 110 -243 110c-94 0 -173.667 -38 -239 -114c-63.333 -73.333 -95 -157.666 -95 -252.999c0 -102 29.667 -187 89 -255
c62.667 -71.333 144.334 -107 245.001 -107c94 0 174 37.667 240 113c62.667 72 94 155.667 94 251zM1173 1631c0 -16 2.49902 -39.668 7.49902 -71.001s7.5 -54.666 7.5 -69.999c0 -10.667 -13.333 -17.667 -40 -21c-18.667 -2.66699 -44.667 -3.66699 -78 -3
c-51.333 2 -71.666 3 -60.999 3c-13.333 0 -33.333 -0.666992 -60 -2s-46.667 -2 -60 -2c-24.667 0 -37 12.667 -37 38c0 14.667 0.666992 36 2 64s2 49.333 2 64c0 15.333 -0.833008 38.833 -2.5 70.5s-2.5 55.167 -2.5 70.5c0 23.333 9.66699 35 29 35
c16.667 0 41.667 -1.33301 75 -4s58.333 -4 75 -4c13.333 0 33.5 0.5 60.5 1.5s47.167 1.5 60.5 1.5c22.667 0 34 -7.33301 34 -22c0 -16.667 -2 -41.5 -6 -74.5s-6 -57.833 -6 -74.5zM677.996 1627c0 -16.667 2.00293 -40.833 6.00293 -72.5s6 -55.5 6 -71.5
c0 -12.667 -9.66699 -19 -29 -19c-16.667 0 -41.5 0.833008 -74.5 2.5s-57.833 2.5 -74.5 2.5c-14.667 0 -36.334 -1 -65.001 -3s-50.334 -3 -65.001 -3c-17.333 0 -26 8.33301 -26 25c0 14 1 35 3 63s3 49 3 63c0 18 -1.33301 44.833 -4 80.5s-4 62.5 -4 80.5
c0 19.333 11 29 33 29c28.667 0 71.667 -0.5 129 -1.5s100.166 -1.5 128.499 -1.5s42.5 -9.33301 42.5 -28c0 -16 -1.5 -40.333 -4.5 -73s-4.5 -57 -4.5 -73z" />
    <glyph glyph-name="multiply" unicode="&#xd7;" horiz-adv-x="968" 
d="M891 821c0 -14.667 -32.999 -53.332 -98.999 -115.999c-57.333 -54 -99 -90 -125 -108c146 -120.667 219 -194.667 219 -222c0 -18 -26.333 -54.5 -79 -109.5s-87.667 -82.5 -105 -82.5c-13.333 0 -51.666 33.667 -114.999 101c-56.667 59.333 -93.334 101 -110.001 125
c-20.667 -26.667 -56.667 -67.334 -108 -122.001c-62 -65.333 -99.333 -98 -112 -98c-14 0 -49.333 27.5 -106 82.5s-85 89.5 -85 103.5c0 16.667 73 90 219 220c-25.333 20 -65 56.667 -119 110c-63.333 62.667 -95 100 -95 112c0 13.333 27.5 48.5 82.5 105.5
s89.5 85.5 103.5 85.5c22 0 95.667 -74 221 -222c125.333 146 199 219 221 219c17.333 0 53.666 -26.333 108.999 -79s83 -87.667 83 -105z" />
    <glyph glyph-name="Oslash" unicode="&#xd8;" horiz-adv-x="1538" 
d="M1481 700c0 -208 -66.335 -382.333 -199.002 -523c-135.333 -142.667 -306.666 -214 -513.999 -214c-206 0 -377 72 -513 216c-133.333 140.667 -200 314.334 -200 521.001c0 207.333 66.667 381.666 200 522.999c136 144.667 307 217 513 217
c204.667 0 375.334 -72.333 512.001 -217c134 -142.667 201 -317 201 -523zM1102 702c0 100 -30.334 184.999 -91.001 254.999c-63.333 73.333 -144.333 110 -243 110c-94 0 -173.667 -38 -239 -114c-63.333 -73.333 -95 -157.666 -95 -252.999c0 -102 29.667 -187 89 -255
c62.667 -71.333 144.334 -107 245.001 -107c94 0 174 37.667 240 113c62.667 72 94 155.667 94 251zM1405 1262c0 -8 -8.33203 -21.002 -24.999 -39.002l-184 -187l-810 -826l-212 -220c-7.33301 -7.33301 -15.333 -11 -24 -11l-13 5c-46 50.667 -69 89.334 -69 116.001
c0 8.66699 7.33301 20.334 22 35.001l851 868l357 365c5.33301 4.66699 13.666 9.66699 24.999 15c8 -2 23.667 -20.833 47 -56.5s35 -57.167 35 -64.5z" />
    <glyph glyph-name="Ugrave" unicode="&#xd9;" horiz-adv-x="1391" 
d="M1286 491c0 -170 -20.3291 -285.999 -60.9961 -347.999c-74.667 -113.333 -261 -170 -559 -170c-134.667 0 -238.334 10.333 -311.001 31c-116 33.333 -191.333 97 -226 191c-17.333 46 -26 128 -26 246c0 27.333 1 68 3 122s3 94.333 3 121
c0 77.333 -3.66699 193.333 -11 348s-11 270.334 -11 347.001c0 16 7 24 21 24c40.667 0 102.167 -1.66699 184.5 -5s143.833 -5 184.5 -5c16.667 0 25 -7.33301 25 -22c0 -88 -2.83301 -219.833 -8.5 -395.5s-8.5 -307.5 -8.5 -395.5c0 -104.667 11 -175.334 33 -212.001
c29.333 -50 90.666 -75 183.999 -75c136.667 0 205 66.333 205 199c0 96.667 -2.33301 241.667 -7 435s-7 338.333 -7 435c0 20.667 8.33301 31 25 31c39.333 0 98.666 1.66699 177.999 5s138.666 5 177.999 5c19.333 0 29 -8 29 -24
c0 -76.667 -3.16699 -192.334 -9.5 -347.001s-9.5 -270.667 -9.5 -348c0 -21.333 0.333008 -53.5 1 -96.5s1 -75.167 1 -96.5zM952.004 1464c0 -12.667 -7.33203 -18.998 -21.999 -18.998h-8c-86.667 8.66699 -185.334 35.667 -296.001 81
c-115.333 48 -203 100.333 -263 157c-10 8.66699 -15 16 -15 22c0 5.33301 5 11.666 15 18.999l86 53c16 15.333 41 38 75 68c4 3.33301 10 6.66602 18 9.99902l197 -139c80 -46 144.333 -79 193 -99c13.333 -5.33301 20 -12 20 -20c0 -7.33301 -1 -18.333 -3 -33
s-3 -25.667 -3 -33s1 -18.5 3 -33.5s3 -26.167 3 -33.5z" />
    <glyph glyph-name="Uacute" unicode="&#xda;" horiz-adv-x="1391" 
d="M1286 491c0 -170 -20.3291 -285.999 -60.9961 -347.999c-74.667 -113.333 -261 -170 -559 -170c-134.667 0 -238.334 10.333 -311.001 31c-116 33.333 -191.333 97 -226 191c-17.333 46 -26 128 -26 246c0 27.333 1 68 3 122s3 94.333 3 121
c0 77.333 -3.66699 193.333 -11 348s-11 270.334 -11 347.001c0 16 7 24 21 24c40.667 0 102.167 -1.66699 184.5 -5s143.833 -5 184.5 -5c16.667 0 25 -7.33301 25 -22c0 -88 -2.83301 -219.833 -8.5 -395.5s-8.5 -307.5 -8.5 -395.5c0 -104.667 11 -175.334 33 -212.001
c29.333 -50 90.666 -75 183.999 -75c136.667 0 205 66.333 205 199c0 96.667 -2.33301 241.667 -7 435s-7 338.333 -7 435c0 20.667 8.33301 31 25 31c39.333 0 98.666 1.66699 177.999 5s138.666 5 177.999 5c19.333 0 29 -8 29 -24
c0 -76.667 -3.16699 -192.334 -9.5 -347.001s-9.5 -270.667 -9.5 -348c0 -21.333 0.333008 -53.5 1 -96.5s1 -75.167 1 -96.5zM527.004 1454c-12.667 -0.666992 -19.001 6.33496 -19.001 21.002c0 5.33301 0.666992 13.666 2 24.999s2 20 2 26c0 8 -1.16699 20.333 -3.5 37
s-3.5 29 -3.5 37c0 9.33301 7 16.666 21 21.999c32.667 12.667 96 45.667 190 99l185 131c4 3.33301 10.667 6.66602 20 9.99902c4.66699 -1.33301 10.334 -4.66602 17.001 -9.99902c15.333 -16 39.666 -38.667 72.999 -68c18.667 -10.667 46 -27.667 82 -51
c10.667 -7.33301 16 -14 16 -20c0 -5.33301 -4.66699 -12.333 -14 -21c-58.667 -55.333 -146.667 -107.833 -264 -157.5s-215.666 -76.5 -294.999 -80.5h-9z" />
    <glyph glyph-name="Ucircumflex" unicode="&#xdb;" horiz-adv-x="1391" 
d="M1286 491c0 -170 -20.3291 -285.999 -60.9961 -347.999c-74.667 -113.333 -261 -170 -559 -170c-134.667 0 -238.334 10.333 -311.001 31c-116 33.333 -191.333 97 -226 191c-17.333 46 -26 128 -26 246c0 27.333 1 68 3 122s3 94.333 3 121
c0 77.333 -3.66699 193.333 -11 348s-11 270.334 -11 347.001c0 16 7 24 21 24c40.667 0 102.167 -1.66699 184.5 -5s143.833 -5 184.5 -5c16.667 0 25 -7.33301 25 -22c0 -88 -2.83301 -219.833 -8.5 -395.5s-8.5 -307.5 -8.5 -395.5c0 -104.667 11 -175.334 33 -212.001
c29.333 -50 90.666 -75 183.999 -75c136.667 0 205 66.333 205 199c0 96.667 -2.33301 241.667 -7 435s-7 338.333 -7 435c0 20.667 8.33301 31 25 31c39.333 0 98.666 1.66699 177.999 5s138.666 5 177.999 5c19.333 0 29 -8 29 -24
c0 -76.667 -3.16699 -192.334 -9.5 -347.001s-9.5 -270.667 -9.5 -348c0 -21.333 0.333008 -53.5 1 -96.5s1 -75.167 1 -96.5zM896.004 1458c-34 0 -101.999 62.001 -203.999 186.001l-8 -6c-12 -28 -38.333 -63.333 -79 -106c-45.333 -46.667 -80.333 -70 -105 -70
c-0.666992 0 -30.334 11 -89.001 33c-45.333 17.333 -68 27.666 -68 30.999s3.66699 9.33301 11 18l128 144c52.667 63.333 87 117 103 161c4.66699 12.667 13 19 25 19h174c11.333 0 19 -6.33301 23 -19c14 -44 43.333 -93 88 -147l161 -176
c-1.33301 -2 -27 -13.833 -77 -35.5s-77.667 -32.5 -83 -32.5z" />
    <glyph glyph-name="Udieresis" unicode="&#xdc;" horiz-adv-x="1391" 
d="M1286 491c0 -170 -20.3291 -285.999 -60.9961 -347.999c-74.667 -113.333 -261 -170 -559 -170c-134.667 0 -238.334 10.333 -311.001 31c-116 33.333 -191.333 97 -226 191c-17.333 46 -26 128 -26 246c0 27.333 1 68 3 122s3 94.333 3 121
c0 77.333 -3.66699 193.333 -11 348s-11 270.334 -11 347.001c0 16 7 24 21 24c40.667 0 102.167 -1.66699 184.5 -5s143.833 -5 184.5 -5c16.667 0 25 -7.33301 25 -22c0 -88 -2.83301 -219.833 -8.5 -395.5s-8.5 -307.5 -8.5 -395.5c0 -104.667 11 -175.334 33 -212.001
c29.333 -50 90.666 -75 183.999 -75c136.667 0 205 66.333 205 199c0 96.667 -2.33301 241.667 -7 435s-7 338.333 -7 435c0 20.667 8.33301 31 25 31c39.333 0 98.666 1.66699 177.999 5s138.666 5 177.999 5c19.333 0 29 -8 29 -24
c0 -76.667 -3.16699 -192.334 -9.5 -347.001s-9.5 -270.667 -9.5 -348c0 -21.333 0.333008 -53.5 1 -96.5s1 -75.167 1 -96.5zM1101 1605c0 -16 2.49902 -39.668 7.49902 -71.001s7.5 -54.666 7.5 -69.999c0 -10.667 -13.333 -17.667 -40 -21
c-18.667 -2.66699 -44.667 -3.66699 -78 -3c-51.333 2 -71.666 3 -60.999 3c-13.333 0 -33.333 -0.666992 -60 -2s-46.667 -2 -60 -2c-24.667 0 -37 12.667 -37 38c0 14.667 0.666992 36 2 64s2 49.333 2 64c0 15.333 -0.833008 38.833 -2.5 70.5s-2.5 55.167 -2.5 70.5
c0 23.333 9.66699 35 29 35c16.667 0 41.667 -1.33301 75 -4s58.333 -4 75 -4c13.333 0 33.5 0.5 60.5 1.5s47.167 1.5 60.5 1.5c22.667 0 34 -7.33301 34 -22c0 -16.667 -2 -41.5 -6 -74.5s-6 -57.833 -6 -74.5zM606.003 1601c0 -16.667 2.00293 -40.833 6.00293 -72.5
s6 -55.5 6 -71.5c0 -12.667 -9.66699 -19 -29 -19c-16.667 0 -41.5 0.833008 -74.5 2.5s-57.833 2.5 -74.5 2.5c-14.667 0 -36.334 -1 -65.001 -3s-50.334 -3 -65.001 -3c-17.333 0 -26 8.33301 -26 25c0 14 1 35 3 63s3 49 3 63c0 18 -1.33301 44.833 -4 80.5
s-4 62.5 -4 80.5c0 19.333 11 29 33 29c28.667 0 71.667 -0.5 129 -1.5s100.166 -1.5 128.499 -1.5s42.5 -9.33301 42.5 -28c0 -16 -1.5 -40.333 -4.5 -73s-4.5 -57 -4.5 -73z" />
    <glyph glyph-name="Yacute" unicode="&#xdd;" horiz-adv-x="1272" 
d="M1239 1040c0 -28.667 -5.33203 -53.6641 -15.999 -74.9971c-87.333 -172.667 -206.333 -354.334 -357 -545.001c-21.333 -28 -32 -53.333 -32 -76c0 -35.333 2 -88.333 6 -159s6 -123.334 6 -158.001c0 -12 -2.66699 -19.333 -8 -22
c-1.33301 -0.666992 -10.333 -2.33398 -27 -5.00098c-24 -4 -84 -6 -180 -6c-96.667 0 -158.334 2 -185.001 6c-18.667 2.66699 -28 12.334 -28 29.001c0 35.333 3 89.166 9 161.499s9 126.5 9 162.5c0 21.333 -8 44.333 -24 69c-80.667 114 -196 288.667 -346 524
c-15.333 26 -23 47.333 -23 64c0 40 -2 100 -6 180s-6 140 -6 180c0 22 6.66699 33 20 33c40.667 0 102.334 -1.66699 185.001 -5s144.667 -5 186 -5c15.333 0 23 -5 23 -15c0 -34 -1.5 -85.167 -4.5 -153.5s-4.5 -119.5 -4.5 -153.5c0 -20 29.333 -70 88 -150
c46.667 -62.667 85 -111 115 -145c27.333 32 63.666 80 108.999 144c57.333 80 86 128.333 86 145c0 33.333 -2.5 83.833 -7.5 151.5s-7.5 118.167 -7.5 151.5c0 14 3 22 9 24h25c40 0 100.167 1.83301 180.5 5.5s140.833 5.5 181.5 5.5c13.333 0 20 -14.333 20 -43
c0 -35.333 0.666992 -88.5 2 -159.5s2 -124.5 2 -160.5zM439.001 1439c-12.667 -0.666992 -19.001 6.33496 -19.001 21.002c0 5.33301 0.666992 13.666 2 24.999s2 20 2 26c0 8 -1.16699 20.333 -3.5 37s-3.5 29 -3.5 37c0 9.33301 7 16.666 21 21.999
c32.667 12.667 96 45.667 190 99l185 131c4 3.33301 10.667 6.66602 20 9.99902c4.66699 -1.33301 10.334 -4.66602 17.001 -9.99902c15.333 -16 39.666 -38.667 72.999 -68c18.667 -10.667 46 -27.667 82 -51c10.667 -7.33301 16 -14 16 -20
c0 -5.33301 -4.66699 -12.333 -14 -21c-58.667 -55.333 -146.667 -107.833 -264 -157.5s-215.666 -76.5 -294.999 -80.5h-9z" />
    <glyph glyph-name="Thorn" unicode="&#xde;" horiz-adv-x="1335" 
d="M1290 725c0 -162 -42.3311 -292.667 -126.998 -392c-90.667 -106 -215.667 -159 -375 -159c-26.667 0 -66.834 1.33301 -120.501 4s-93.834 4 -120.501 4c-18.667 0 -30 -4 -34 -12c-2 -5.33301 -3 -13.666 -3 -24.999c0 -14 2 -35.333 6 -64s6 -50.334 6 -65.001
c0 -15.333 -7 -23 -21 -23c-40.667 0 -101.667 1.16699 -183 3.5s-142.333 3.5 -183 3.5c-19.333 0 -29 9.66699 -29 29c0 74 1.16699 185.167 3.5 333.5s3.5 259.5 3.5 333.5c0 71.333 -4.33301 203.333 -13 396c-2.66699 58.667 -7.33398 146.667 -14.001 264l-1 15
c-1.33301 14.667 9.33398 22 32.001 22c19.333 0 48.333 1.66699 87 5s67.667 5 87 5h188c19.333 0 29 -11.667 29 -35c0 -45.333 -1.33301 -81.333 -4 -108c76 0 161.333 -1.66699 256 -5c158 -4 285.833 -54 383.5 -150s146.5 -222.667 146.5 -380zM891.002 709
c0 155.333 -75.667 233 -227 233c-112 0 -170.333 -6 -175 -18c-0.666992 -2 -1 -23.333 -1 -64c0 -38.667 1 -97 3 -175s3 -136.333 3 -175c0 -14 60 -21 180 -21c144.667 0 217 73.333 217 220z" />
    <glyph glyph-name="germandbls" unicode="&#xdf;" horiz-adv-x="1114" 
d="M1067 483c0 -167.333 -69.001 -301.667 -207.001 -403c-155.333 -114.667 -255.666 -172 -300.999 -172c-9.33301 0 -19.666 11 -30.999 33c-19.333 38.667 -54 98 -104 178c0 -12.667 1 -31.5 3 -56.5s3 -43.833 3 -56.5c0 -18 -34.333 -27 -103 -27
c-84.667 0 -155.334 7 -212.001 21c-27.333 6.66699 -41 17.667 -41 33c0 65.333 2 163.833 6 295.5s6 230.5 6 296.5c0 28 -1.33301 70.5 -4 127.5s-4 99.833 -4 128.5c0 149.333 35 272.666 105 369.999c79.333 109.333 191 164 335 164c94.667 0 177 -25 247 -75
c78.667 -56 118 -129.333 118 -220c0 -43.333 -8.33301 -87.333 -25 -132c-18 -50 -42 -87 -72 -111c187.333 -77.333 281 -208.666 281 -393.999zM605.999 1036c0 83.333 -29.333 124.999 -88 124.999c-34 0 -61.333 -22 -82 -66c-17.333 -35.333 -26 -72 -26 -110
c0 -18 0.333008 -45.167 1 -81.5s1 -63.166 1 -80.499c129.333 45.333 194 116.333 194 213zM699.999 443.998c0 68 -26.667 119.334 -80 154.001c-46.667 29.333 -105 43.333 -175 42l-23 -1c-3.33301 -24 -5 -59.667 -5 -107c0 -41.333 1 -102 3 -182
c1.33301 -84 2 -144.667 2 -182c72 15.333 134.667 46.666 188 93.999c60 53.333 90 114 90 182z" />
    <glyph glyph-name="agrave" unicode="&#xe0;" horiz-adv-x="1204" 
d="M1090 500c0 -51.333 2.99805 -127.666 8.99805 -228.999s9 -177.333 9 -228c0 -26.667 -11.667 -41 -35 -43c-82.667 -6 -177.334 -9 -284.001 -9c-12.667 0 -21.167 19.167 -25.5 57.5s-9.5 57.833 -15.5 58.5c-5.33301 -2.66699 -12.333 -8.33398 -21 -17.001
c-74.667 -75.333 -154.667 -113 -240 -113c-130 0 -237.667 51.333 -323 154c-80.667 96 -121 210.667 -121 344c0 154 41.667 278 125 372c86.667 97.333 205.334 146 356.001 146c104.667 0 187.334 -36.667 248.001 -110c2.66699 -3.33301 5 -5 7 -5
c6 0 12.833 16.167 20.5 48.5s16.834 48.5 27.501 48.5c24.667 0 71.667 -7 141 -21c66 -13.333 113.333 -24.666 142 -33.999c10 -4 15 -9.33301 15 -16c0 -2.66699 -1 -9.66699 -3 -21c-21.333 -120.667 -32 -248.334 -32 -383.001zM767.998 494
c0 56.667 -17.833 103.5 -53.5 140.5s-82.167 55.5 -139.5 55.5s-103.666 -18.333 -138.999 -55s-53 -83.667 -53 -141c0 -54 18.667 -100.333 56 -139s82.666 -58 135.999 -58c56.667 0 103 18.5 139 55.5s54 84.167 54 141.5zM853.998 1086
c0 -12.667 -7.33203 -18.998 -21.999 -18.998h-8c-86.667 8.66699 -185.334 35.667 -296.001 81c-115.333 48 -203 100.333 -263 157c-10 8.66699 -15 16 -15 22c0 5.33301 5 11.666 15 18.999l86 53c16 15.333 41 38 75 68c4 3.33301 10 6.66602 18 9.99902l197 -139
c80 -46 144.333 -79 193 -99c13.333 -5.33301 20 -12 20 -20c0 -7.33301 -1 -18.333 -3 -33s-3 -25.667 -3 -33s1 -18.5 3 -33.5s3 -26.167 3 -33.5z" />
    <glyph glyph-name="aacute" unicode="&#xe1;" horiz-adv-x="1204" 
d="M1090 500c0 -51.333 2.99805 -127.666 8.99805 -228.999s9 -177.333 9 -228c0 -26.667 -11.667 -41 -35 -43c-82.667 -6 -177.334 -9 -284.001 -9c-12.667 0 -21.167 19.167 -25.5 57.5s-9.5 57.833 -15.5 58.5c-5.33301 -2.66699 -12.333 -8.33398 -21 -17.001
c-74.667 -75.333 -154.667 -113 -240 -113c-130 0 -237.667 51.333 -323 154c-80.667 96 -121 210.667 -121 344c0 154 41.667 278 125 372c86.667 97.333 205.334 146 356.001 146c104.667 0 187.334 -36.667 248.001 -110c2.66699 -3.33301 5 -5 7 -5
c6 0 12.833 16.167 20.5 48.5s16.834 48.5 27.501 48.5c24.667 0 71.667 -7 141 -21c66 -13.333 113.333 -24.666 142 -33.999c10 -4 15 -9.33301 15 -16c0 -2.66699 -1 -9.66699 -3 -21c-21.333 -120.667 -32 -248.334 -32 -383.001zM767.998 494
c0 56.667 -17.833 103.5 -53.5 140.5s-82.167 55.5 -139.5 55.5s-103.666 -18.333 -138.999 -55s-53 -83.667 -53 -141c0 -54 18.667 -100.333 56 -139s82.666 -58 135.999 -58c56.667 0 103 18.5 139 55.5s54 84.167 54 141.5zM412.998 1071
c-12.667 -0.666992 -19.001 6.33496 -19.001 21.002c0 5.33301 0.666992 13.666 2 24.999s2 20 2 26c0 8 -1.16699 20.333 -3.5 37s-3.5 29 -3.5 37c0 9.33301 7 16.666 21 21.999c32.667 12.667 96 45.667 190 99l185 131c4 3.33301 10.667 6.66602 20 9.99902
c4.66699 -1.33301 10.334 -4.66602 17.001 -9.99902c15.333 -16 39.666 -38.667 72.999 -68c18.667 -10.667 46 -27.667 82 -51c10.667 -7.33301 16 -14 16 -20c0 -5.33301 -4.66699 -12.333 -14 -21c-58.667 -55.333 -146.667 -107.833 -264 -157.5
s-215.666 -76.5 -294.999 -80.5h-9z" />
    <glyph glyph-name="acircumflex" unicode="&#xe2;" horiz-adv-x="1204" 
d="M1090 500c0 -51.333 2.99805 -127.666 8.99805 -228.999s9 -177.333 9 -228c0 -26.667 -11.667 -41 -35 -43c-82.667 -6 -177.334 -9 -284.001 -9c-12.667 0 -21.167 19.167 -25.5 57.5s-9.5 57.833 -15.5 58.5c-5.33301 -2.66699 -12.333 -8.33398 -21 -17.001
c-74.667 -75.333 -154.667 -113 -240 -113c-130 0 -237.667 51.333 -323 154c-80.667 96 -121 210.667 -121 344c0 154 41.667 278 125 372c86.667 97.333 205.334 146 356.001 146c104.667 0 187.334 -36.667 248.001 -110c2.66699 -3.33301 5 -5 7 -5
c6 0 12.833 16.167 20.5 48.5s16.834 48.5 27.501 48.5c24.667 0 71.667 -7 141 -21c66 -13.333 113.333 -24.666 142 -33.999c10 -4 15 -9.33301 15 -16c0 -2.66699 -1 -9.66699 -3 -21c-21.333 -120.667 -32 -248.334 -32 -383.001zM767.998 494
c0 56.667 -17.833 103.5 -53.5 140.5s-82.167 55.5 -139.5 55.5s-103.666 -18.333 -138.999 -55s-53 -83.667 -53 -141c0 -54 18.667 -100.333 56 -139s82.666 -58 135.999 -58c56.667 0 103 18.5 139 55.5s54 84.167 54 141.5zM799.998 1067
c-34 0 -101.999 62.001 -203.999 186.001l-8 -6c-12 -28 -38.333 -63.333 -79 -106c-45.333 -46.667 -80.333 -70 -105 -70c-0.666992 0 -30.334 11 -89.001 33c-45.333 17.333 -68 27.666 -68 30.999s3.66699 9.33301 11 18l128 144c52.667 63.333 87 117 103 161
c4.66699 12.667 13 19 25 19h174c11.333 0 19 -6.33301 23 -19c14 -44 43.333 -93 88 -147l161 -176c-1.33301 -2 -27 -13.833 -77 -35.5s-77.667 -32.5 -83 -32.5z" />
    <glyph glyph-name="atilde" unicode="&#xe3;" horiz-adv-x="1204" 
d="M1090 500c0 -51.333 2.99805 -127.666 8.99805 -228.999s9 -177.333 9 -228c0 -26.667 -11.667 -41 -35 -43c-82.667 -6 -177.334 -9 -284.001 -9c-12.667 0 -21.167 19.167 -25.5 57.5s-9.5 57.833 -15.5 58.5c-5.33301 -2.66699 -12.333 -8.33398 -21 -17.001
c-74.667 -75.333 -154.667 -113 -240 -113c-130 0 -237.667 51.333 -323 154c-80.667 96 -121 210.667 -121 344c0 154 41.667 278 125 372c86.667 97.333 205.334 146 356.001 146c104.667 0 187.334 -36.667 248.001 -110c2.66699 -3.33301 5 -5 7 -5
c6 0 12.833 16.167 20.5 48.5s16.834 48.5 27.501 48.5c24.667 0 71.667 -7 141 -21c66 -13.333 113.333 -24.666 142 -33.999c10 -4 15 -9.33301 15 -16c0 -2.66699 -1 -9.66699 -3 -21c-21.333 -120.667 -32 -248.334 -32 -383.001zM767.998 494
c0 56.667 -17.833 103.5 -53.5 140.5s-82.167 55.5 -139.5 55.5s-103.666 -18.333 -138.999 -55s-53 -83.667 -53 -141c0 -54 18.667 -100.333 56 -139s82.666 -58 135.999 -58c56.667 0 103 18.5 139 55.5s54 84.167 54 141.5zM964.998 1219
c-84 -94.667 -172.329 -142.001 -264.996 -142.001c-26 0 -58.833 13.833 -98.5 41.5s-72.167 41.5 -97.5 41.5c-23.333 0 -47.666 -11.333 -72.999 -34s-42 -34 -50 -34c-18.667 6.66699 -47.334 28.667 -86.001 66s-58.334 64 -59.001 80
c7.33301 28 41.666 60.333 102.999 97s108 55 140 55c28 0 64.667 -12.333 110 -37s81.666 -37 108.999 -37c23.333 0 50.666 11.667 81.999 35s52 35 62 35s33.333 -23.667 70 -71s55 -76.666 55 -87.999z" />
    <glyph glyph-name="adieresis" unicode="&#xe4;" horiz-adv-x="1204" 
d="M1090 500c0 -51.333 2.99805 -127.666 8.99805 -228.999s9 -177.333 9 -228c0 -26.667 -11.667 -41 -35 -43c-82.667 -6 -177.334 -9 -284.001 -9c-12.667 0 -21.167 19.167 -25.5 57.5s-9.5 57.833 -15.5 58.5c-5.33301 -2.66699 -12.333 -8.33398 -21 -17.001
c-74.667 -75.333 -154.667 -113 -240 -113c-130 0 -237.667 51.333 -323 154c-80.667 96 -121 210.667 -121 344c0 154 41.667 278 125 372c86.667 97.333 205.334 146 356.001 146c104.667 0 187.334 -36.667 248.001 -110c2.66699 -3.33301 5 -5 7 -5
c6 0 12.833 16.167 20.5 48.5s16.834 48.5 27.501 48.5c24.667 0 71.667 -7 141 -21c66 -13.333 113.333 -24.666 142 -33.999c10 -4 15 -9.33301 15 -16c0 -2.66699 -1 -9.66699 -3 -21c-21.333 -120.667 -32 -248.334 -32 -383.001zM767.998 494
c0 56.667 -17.833 103.5 -53.5 140.5s-82.167 55.5 -139.5 55.5s-103.666 -18.333 -138.999 -55s-53 -83.667 -53 -141c0 -54 18.667 -100.333 56 -139s82.666 -58 135.999 -58c56.667 0 103 18.5 139 55.5s54 84.167 54 141.5zM996.998 1241
c0 -16 2.49902 -39.668 7.49902 -71.001s7.5 -54.666 7.5 -69.999c0 -10.667 -13.333 -17.667 -40 -21c-18.667 -2.66699 -44.667 -3.66699 -78 -3c-51.333 2 -71.666 3 -60.999 3c-13.333 0 -33.333 -0.666992 -60 -2s-46.667 -2 -60 -2c-24.667 0 -37 12.667 -37 38
c0 14.667 0.666992 36 2 64s2 49.333 2 64c0 15.333 -0.833008 38.833 -2.5 70.5s-2.5 55.167 -2.5 70.5c0 23.333 9.66699 35 29 35c16.667 0 41.667 -1.33301 75 -4s58.333 -4 75 -4c13.333 0 33.5 0.5 60.5 1.5s47.167 1.5 60.5 1.5c22.667 0 34 -7.33301 34 -22
c0 -16.667 -2 -41.5 -6 -74.5s-6 -57.833 -6 -74.5zM501.997 1237c0 -16.667 2.00293 -40.833 6.00293 -72.5s6 -55.5 6 -71.5c0 -12.667 -9.66699 -19 -29 -19c-16.667 0 -41.5 0.833008 -74.5 2.5s-57.833 2.5 -74.5 2.5c-14.667 0 -36.334 -1 -65.001 -3
s-50.334 -3 -65.001 -3c-17.333 0 -26 8.33301 -26 25c0 14 1 35 3 63s3 49 3 63c0 18 -1.33301 44.833 -4 80.5s-4 62.5 -4 80.5c0 19.333 11 29 33 29c28.667 0 71.667 -0.5 129 -1.5s100.166 -1.5 128.499 -1.5s42.5 -9.33301 42.5 -28c0 -16 -1.5 -40.333 -4.5 -73
s-4.5 -57 -4.5 -73z" />
    <glyph glyph-name="aring" unicode="&#xe5;" horiz-adv-x="1204" 
d="M1090 500c0 -51.333 2.99805 -127.666 8.99805 -228.999s9 -177.333 9 -228c0 -26.667 -11.667 -41 -35 -43c-82.667 -6 -177.334 -9 -284.001 -9c-12.667 0 -21.167 19.167 -25.5 57.5s-9.5 57.833 -15.5 58.5c-5.33301 -2.66699 -12.333 -8.33398 -21 -17.001
c-74.667 -75.333 -154.667 -113 -240 -113c-130 0 -237.667 51.333 -323 154c-80.667 96 -121 210.667 -121 344c0 154 41.667 278 125 372c86.667 97.333 205.334 146 356.001 146c104.667 0 187.334 -36.667 248.001 -110c2.66699 -3.33301 5 -5 7 -5
c6 0 12.833 16.167 20.5 48.5s16.834 48.5 27.501 48.5c24.667 0 71.667 -7 141 -21c66 -13.333 113.333 -24.666 142 -33.999c10 -4 15 -9.33301 15 -16c0 -2.66699 -1 -9.66699 -3 -21c-21.333 -120.667 -32 -248.334 -32 -383.001zM767.998 494
c0 56.667 -17.833 103.5 -53.5 140.5s-82.167 55.5 -139.5 55.5s-103.666 -18.333 -138.999 -55s-53 -83.667 -53 -141c0 -54 18.667 -100.333 56 -139s82.666 -58 135.999 -58c56.667 0 103 18.5 139 55.5s54 84.167 54 141.5zM861.998 1297
c0 -66.667 -25.499 -122.333 -76.499 -167s-110.167 -67 -177.5 -67c-66.667 0 -125.334 22.5 -176.001 67.5s-76 100.5 -76 166.5c0 67.333 25 124 75 170s109 69 177 69c68.667 0 128 -22.333 178 -67c50.667 -46.667 76 -104 76 -172zM716.999 1297
c0 30 -10.5 55.167 -31.5 75.5s-46.833 30.5 -77.5 30.5c-29.333 0 -54 -10.333 -74 -31s-30 -45.667 -30 -75c0 -27.333 10.5 -51 31.5 -71s45.167 -30 72.5 -30c28.667 0 54 9.66699 76 29s33 43.333 33 72z" />
    <glyph glyph-name="ae" unicode="&#xe6;" horiz-adv-x="1737" 
d="M1712 543c0 -70 -21.6738 -108.331 -65.0068 -114.998c-18.667 -2.66699 -106.667 -11.334 -264 -26.001c-69.333 -7.33301 -173.333 -16.333 -312 -27c9.33301 -42.667 40.666 -75.667 93.999 -99c43.333 -18.667 90 -28 140 -28c58.667 0 118.334 16 179.001 48l76 48
c14 -6.66699 37.333 -40.667 70 -102s49 -100.333 49 -117c0 -4.66699 -4.66699 -12.334 -14 -23.001c-75.333 -83.333 -201.666 -125 -378.999 -125c-35.333 0 -85.333 10.833 -150 32.5s-98 32.5 -100 32.5c-9.33301 0 -14 -9.33301 -14 -28
c0 -12.667 -13.667 -20 -41 -22c16 1.33301 -23.667 2 -119 2c-12.667 0 -31.667 -0.5 -57 -1.5s-44.333 -1.5 -57 -1.5c-12 0 -19.167 13.833 -21.5 41.5s-6.16602 41.834 -11.499 42.501c-5.33301 -2.66699 -13 -8 -23 -16c-64.667 -50 -133 -75 -205 -75
c-132 0 -240 49.333 -324 148c-80 93.333 -120 207.666 -120 342.999c0 154 41.667 278 125 372c86.667 97.333 205.334 146 356.001 146c86 0 157.667 -26.667 215 -80c2.66699 -2 5 -3 7 -3c8 0 14.5 16 19.5 48s14.833 48 29.5 48c14 0 35.333 -1.5 64 -4.5
s50.334 -4.5 65.001 -4.5c12.667 0 31.834 1.16699 57.501 3.5s44.5 3.5 56.5 3.5c10.667 0 19.334 -8.16699 26.001 -24.5s11.334 -24.5 14.001 -24.5c1.33301 0 3 0.333008 5 1c58 33.333 114 50 168 50c128.667 0 237.667 -45 327 -135s134 -199.333 134 -328z
M1361.99 604.002c0 41.333 -14.667 77.6689 -44 109.002s-64.333 47 -105 47c-42 0 -78.833 -17.333 -110.5 -52s-47.5 -73.334 -47.5 -116.001c0 -18 9 -27 27 -27c60.667 0 143 7.66699 247 23c22 3.33301 33 8.66602 33 15.999zM767.993 494.005
c0 56.667 -17.833 103.5 -53.5 140.5s-82.167 55.5 -139.5 55.5s-103.666 -18.333 -138.999 -55s-53 -83.667 -53 -141c0 -54 18.667 -100.333 56 -139s82.666 -58 135.999 -58c56.667 0 103 18.5 139 55.5s54 84.167 54 141.5z" />
    <glyph glyph-name="ccedilla" unicode="&#xe7;" horiz-adv-x="852" 
d="M747 658c-0.666992 0 -20.8311 5.33203 -60.498 15.999s-71.834 16 -96.501 16c-59.333 0 -106.666 -17.833 -141.999 -53.5s-53 -83.167 -53 -142.5c0 -61.333 19.333 -109.5 58 -144.5s89 -52.5 151 -52.5c29.333 0 62.333 7.5 99 22.5s54 22.5 52 22.5
c11.333 0 26 -42.333 44 -127c15.333 -77.333 23 -128.666 23 -153.999s-41.333 -47 -124 -65c-64 -14 -115.667 -21 -155 -21c-146.667 0 -267.667 49.333 -363 148s-143 221.667 -143 369c0 146 47.833 268.833 143.5 368.5s216.5 149.5 362.5 149.5
c99.333 0 186.666 -21.333 261.999 -64c17.333 -9.33301 26 -18.333 26 -27s-10 -48 -30 -118c-18.667 -67.333 -30.834 -108 -36.501 -122s-11.5 -21 -17.5 -21zM703.003 -93.001c0 -200.667 -95.999 -301.001 -287.999 -301.001c-24 0 -57.333 11.667 -100 35
c-45.333 24.667 -68 46.334 -68 65.001c0 2 15.667 20 47 54c10 16 20.333 31.667 31 47c15.333 23.333 27.333 35 36 35c2.66699 0 13.167 -7 31.5 -21s35.166 -21 50.499 -21c22 0 41.667 8.16699 59 24.5s26 35.5 26 57.5c0 56 -27 100 -81 132l193 -23
c14.667 -18 35.667 -46 63 -84z" />
    <glyph glyph-name="egrave" unicode="&#xe8;" horiz-adv-x="1026" 
d="M1001 543c0 -67.333 -21.667 -105.667 -65 -115c-7.33301 -1.33301 -76.333 -8.66602 -207 -21.999c-78.667 -8.66699 -196 -19 -352 -31c9.33301 -43.333 37.666 -76.333 84.999 -99c38.667 -18.667 82.667 -28 132 -28c59.333 0 119 16 179 48l76 48
c14 -6.66699 37.5 -40.667 70.5 -102s49.5 -100.333 49.5 -117c0 -4.66699 -5 -12.334 -15 -23.001c-81.333 -87.333 -207.666 -131 -378.999 -131c-158.667 0 -286.667 46.333 -384 139c-100 94 -150 219.667 -150 377c0 153.333 44.667 279 134 377
c92 101.333 214 152 366 152c128 0 236.667 -46.667 326 -140s134 -204.333 134 -333zM651 603.999c0 41.333 -14.667 77.668 -44 109.001s-64.333 47 -105 47c-42 0 -76.667 -17.667 -104 -53c-25.333 -32.667 -38 -71 -38 -115c0 -18 9.33301 -27 28 -27
c49.333 0 126 7.66699 230 23c22 3.33301 33 8.66602 33 15.999zM727 1090c0 -12.667 -7.33203 -18.998 -21.999 -18.998h-8c-86.667 8.66699 -185.334 35.667 -296.001 81c-115.333 48 -203 100.333 -263 157c-10 8.66699 -15 16 -15 22c0 5.33301 5 11.666 15 18.999
l86 53c16 15.333 41 38 75 68c4 3.33301 10 6.66602 18 9.99902l197 -139c80 -46 144.333 -79 193 -99c13.333 -5.33301 20 -12 20 -20c0 -7.33301 -1 -18.333 -3 -33s-3 -25.667 -3 -33s1 -18.5 3 -33.5s3 -26.167 3 -33.5z" />
    <glyph glyph-name="eacute" unicode="&#xe9;" horiz-adv-x="1026" 
d="M1001 543c0 -67.333 -21.667 -105.667 -65 -115c-7.33301 -1.33301 -76.333 -8.66602 -207 -21.999c-78.667 -8.66699 -196 -19 -352 -31c9.33301 -43.333 37.666 -76.333 84.999 -99c38.667 -18.667 82.667 -28 132 -28c59.333 0 119 16 179 48l76 48
c14 -6.66699 37.5 -40.667 70.5 -102s49.5 -100.333 49.5 -117c0 -4.66699 -5 -12.334 -15 -23.001c-81.333 -87.333 -207.666 -131 -378.999 -131c-158.667 0 -286.667 46.333 -384 139c-100 94 -150 219.667 -150 377c0 153.333 44.667 279 134 377
c92 101.333 214 152 366 152c128 0 236.667 -46.667 326 -140s134 -204.333 134 -333zM651 603.999c0 41.333 -14.667 77.668 -44 109.001s-64.333 47 -105 47c-42 0 -76.667 -17.667 -104 -53c-25.333 -32.667 -38 -71 -38 -115c0 -18 9.33301 -27 28 -27
c49.333 0 126 7.66699 230 23c22 3.33301 33 8.66602 33 15.999zM316 1075c-12.667 -0.666992 -19.001 6.33496 -19.001 21.002c0 5.33301 0.666992 13.666 2 24.999s2 20 2 26c0 8 -1.16699 20.333 -3.5 37s-3.5 29 -3.5 37c0 9.33301 7 16.666 21 21.999
c32.667 12.667 96 45.667 190 99l185 131c4 3.33301 10.667 6.66602 20 9.99902c4.66699 -1.33301 10.334 -4.66602 17.001 -9.99902c15.333 -16 39.666 -38.667 72.999 -68c18.667 -10.667 46 -27.667 82 -51c10.667 -7.33301 16 -14 16 -20
c0 -5.33301 -4.66699 -12.333 -14 -21c-58.667 -55.333 -146.667 -107.833 -264 -157.5s-215.666 -76.5 -294.999 -80.5h-9z" />
    <glyph glyph-name="ecircumflex" unicode="&#xea;" horiz-adv-x="1026" 
d="M1001 543c0 -67.333 -21.667 -105.667 -65 -115c-7.33301 -1.33301 -76.333 -8.66602 -207 -21.999c-78.667 -8.66699 -196 -19 -352 -31c9.33301 -43.333 37.666 -76.333 84.999 -99c38.667 -18.667 82.667 -28 132 -28c59.333 0 119 16 179 48l76 48
c14 -6.66699 37.5 -40.667 70.5 -102s49.5 -100.333 49.5 -117c0 -4.66699 -5 -12.334 -15 -23.001c-81.333 -87.333 -207.666 -131 -378.999 -131c-158.667 0 -286.667 46.333 -384 139c-100 94 -150 219.667 -150 377c0 153.333 44.667 279 134 377
c92 101.333 214 152 366 152c128 0 236.667 -46.667 326 -140s134 -204.333 134 -333zM651 603.999c0 41.333 -14.667 77.668 -44 109.001s-64.333 47 -105 47c-42 0 -76.667 -17.667 -104 -53c-25.333 -32.667 -38 -71 -38 -115c0 -18 9.33301 -27 28 -27
c49.333 0 126 7.66699 230 23c22 3.33301 33 8.66602 33 15.999zM714 1071c-34 0 -101.999 62.001 -203.999 186.001l-8 -6c-12 -28 -38.333 -63.333 -79 -106c-45.333 -46.667 -80.333 -70 -105 -70c-0.666992 0 -30.334 11 -89.001 33
c-45.333 17.333 -68 27.666 -68 30.999s3.66699 9.33301 11 18l128 144c52.667 63.333 87 117 103 161c4.66699 12.667 13 19 25 19h174c11.333 0 19 -6.33301 23 -19c14 -44 43.333 -93 88 -147l161 -176c-1.33301 -2 -27 -13.833 -77 -35.5s-77.667 -32.5 -83 -32.5z" />
    <glyph glyph-name="edieresis" unicode="&#xeb;" horiz-adv-x="1026" 
d="M1001 543c0 -67.333 -21.667 -105.667 -65 -115c-7.33301 -1.33301 -76.333 -8.66602 -207 -21.999c-78.667 -8.66699 -196 -19 -352 -31c9.33301 -43.333 37.666 -76.333 84.999 -99c38.667 -18.667 82.667 -28 132 -28c59.333 0 119 16 179 48l76 48
c14 -6.66699 37.5 -40.667 70.5 -102s49.5 -100.333 49.5 -117c0 -4.66699 -5 -12.334 -15 -23.001c-81.333 -87.333 -207.666 -131 -378.999 -131c-158.667 0 -286.667 46.333 -384 139c-100 94 -150 219.667 -150 377c0 153.333 44.667 279 134 377
c92 101.333 214 152 366 152c128 0 236.667 -46.667 326 -140s134 -204.333 134 -333zM651 603.999c0 41.333 -14.667 77.668 -44 109.001s-64.333 47 -105 47c-42 0 -76.667 -17.667 -104 -53c-25.333 -32.667 -38 -71 -38 -115c0 -18 9.33301 -27 28 -27
c49.333 0 126 7.66699 230 23c22 3.33301 33 8.66602 33 15.999zM946 1254c0 -16 2.49902 -39.668 7.49902 -71.001s7.5 -54.666 7.5 -69.999c0 -10.667 -13.333 -17.667 -40 -21c-18.667 -2.66699 -44.667 -3.66699 -78 -3c-51.333 2 -71.666 3 -60.999 3
c-13.333 0 -33.333 -0.666992 -60 -2s-46.667 -2 -60 -2c-24.667 0 -37 12.667 -37 38c0 14.667 0.666992 36 2 64s2 49.333 2 64c0 15.333 -0.833008 38.833 -2.5 70.5s-2.5 55.167 -2.5 70.5c0 23.333 9.66699 35 29 35c16.667 0 41.667 -1.33301 75 -4s58.333 -4 75 -4
c13.333 0 33.5 0.5 60.5 1.5s47.167 1.5 60.5 1.5c22.667 0 34 -7.33301 34 -22c0 -16.667 -2 -41.5 -6 -74.5s-6 -57.833 -6 -74.5zM450.999 1250c0 -16.667 2.00293 -40.833 6.00293 -72.5s6 -55.5 6 -71.5c0 -12.667 -9.66699 -19 -29 -19
c-16.667 0 -41.5 0.833008 -74.5 2.5s-57.833 2.5 -74.5 2.5c-14.667 0 -36.334 -1 -65.001 -3s-50.334 -3 -65.001 -3c-17.333 0 -26 8.33301 -26 25c0 14 1 35 3 63s3 49 3 63c0 18 -1.33301 44.833 -4 80.5s-4 62.5 -4 80.5c0 19.333 11 29 33 29
c28.667 0 71.667 -0.5 129 -1.5s100.166 -1.5 128.499 -1.5s42.5 -9.33301 42.5 -28c0 -16 -1.5 -40.333 -4.5 -73s-4.5 -57 -4.5 -73z" />
    <glyph glyph-name="igrave" unicode="&#xec;" horiz-adv-x="563" 
d="M457 459c0 -46.667 1 -116.499 3 -209.499s3 -162.833 3 -209.5c0 -26.667 -8.33301 -40 -25 -40s-42.167 1.33301 -76.5 4s-59.833 4 -76.5 4s-41.667 -1.33301 -75 -4s-58.333 -4 -75 -4c-19.333 0 -29 17.333 -29 52c0 45.333 1.16699 113.166 3.5 203.499
s3.5 158.166 3.5 203.499c0 103.333 -10.333 263 -31 479c-0.666992 9.33301 -1 16 -1 20c0 15.333 9.33301 23 28 23c19.333 0 48.5 -3 87.5 -9s68.5 -9 88.5 -9s49.833 3 89.5 9s69.167 9 88.5 9c18.667 0 28 -7.66699 28 -23c0 -51.333 -5.66699 -133.666 -17 -246.999
s-17 -197.333 -17 -252zM551 1086c0 -12.667 -7.33203 -18.998 -21.999 -18.998h-8c-86.667 8.66699 -185.334 35.667 -296.001 81c-115.333 48 -203 100.333 -263 157c-10 8.66699 -15 16 -15 22c0 5.33301 5 11.666 15 18.999l86 53c16 15.333 41 38 75 68
c4 3.33301 10 6.66602 18 9.99902l197 -139c80 -46 144.333 -79 193 -99c13.333 -5.33301 20 -12 20 -20c0 -7.33301 -1 -18.333 -3 -33s-3 -25.667 -3 -33s1 -18.5 3 -33.5s3 -26.167 3 -33.5z" />
    <glyph glyph-name="iacute" unicode="&#xed;" horiz-adv-x="563" 
d="M457 459c0 -46.667 1 -116.499 3 -209.499s3 -162.833 3 -209.5c0 -26.667 -8.33301 -40 -25 -40s-42.167 1.33301 -76.5 4s-59.833 4 -76.5 4s-41.667 -1.33301 -75 -4s-58.333 -4 -75 -4c-19.333 0 -29 17.333 -29 52c0 45.333 1.16699 113.166 3.5 203.499
s3.5 158.166 3.5 203.499c0 103.333 -10.333 263 -31 479c-0.666992 9.33301 -1 16 -1 20c0 15.333 9.33301 23 28 23c19.333 0 48.5 -3 87.5 -9s68.5 -9 88.5 -9s49.833 3 89.5 9s69.167 9 88.5 9c18.667 0 28 -7.66699 28 -23c0 -51.333 -5.66699 -133.666 -17 -246.999
s-17 -197.333 -17 -252zM60 1071c-12.667 -0.666992 -19.001 6.33496 -19.001 21.002c0 5.33301 0.666992 13.666 2 24.999s2 20 2 26c0 8 -1.16699 20.333 -3.5 37s-3.5 29 -3.5 37c0 9.33301 7 16.666 21 21.999c32.667 12.667 96 45.667 190 99l185 131
c4 3.33301 10.667 6.66602 20 9.99902c4.66699 -1.33301 10.334 -4.66602 17.001 -9.99902c15.333 -16 39.666 -38.667 72.999 -68c18.667 -10.667 46 -27.667 82 -51c10.667 -7.33301 16 -14 16 -20c0 -5.33301 -4.66699 -12.333 -14 -21
c-58.667 -55.333 -146.667 -107.833 -264 -157.5s-215.666 -76.5 -294.999 -80.5h-9z" />
    <glyph glyph-name="icircumflex" unicode="&#xee;" horiz-adv-x="563" 
d="M457 459c0 -46.667 1 -116.499 3 -209.499s3 -162.833 3 -209.5c0 -26.667 -8.33301 -40 -25 -40s-42.167 1.33301 -76.5 4s-59.833 4 -76.5 4s-41.667 -1.33301 -75 -4s-58.333 -4 -75 -4c-19.333 0 -29 17.333 -29 52c0 45.333 1.16699 113.166 3.5 203.499
s3.5 158.166 3.5 203.499c0 103.333 -10.333 263 -31 479c-0.666992 9.33301 -1 16 -1 20c0 15.333 9.33301 23 28 23c19.333 0 48.5 -3 87.5 -9s68.5 -9 88.5 -9s49.833 3 89.5 9s69.167 9 88.5 9c18.667 0 28 -7.66699 28 -23c0 -51.333 -5.66699 -133.666 -17 -246.999
s-17 -197.333 -17 -252zM481 1071c-34 0 -101.999 62.001 -203.999 186.001l-8 -6c-12 -28 -38.333 -63.333 -79 -106c-45.333 -46.667 -80.333 -70 -105 -70c-0.666992 0 -30.334 11 -89.001 33c-45.333 17.333 -68 27.666 -68 30.999s3.66699 9.33301 11 18l128 144
c52.667 63.333 87 117 103 161c4.66699 12.667 13 19 25 19h174c11.333 0 19 -6.33301 23 -19c14 -44 43.333 -93 88 -147l161 -176c-1.33301 -2 -27 -13.833 -77 -35.5s-77.667 -32.5 -83 -32.5z" />
    <glyph glyph-name="idieresis" unicode="&#xef;" horiz-adv-x="563" 
d="M457 459c0 -46.667 1 -116.499 3 -209.499s3 -162.833 3 -209.5c0 -26.667 -8.33301 -40 -25 -40s-42.167 1.33301 -76.5 4s-59.833 4 -76.5 4s-41.667 -1.33301 -75 -4s-58.333 -4 -75 -4c-19.333 0 -29 17.333 -29 52c0 45.333 1.16699 113.166 3.5 203.499
s3.5 158.166 3.5 203.499c0 103.333 -10.333 263 -31 479c-0.666992 9.33301 -1 16 -1 20c0 15.333 9.33301 23 28 23c19.333 0 48.5 -3 87.5 -9s68.5 -9 88.5 -9s49.833 3 89.5 9s69.167 9 88.5 9c18.667 0 28 -7.66699 28 -23c0 -51.333 -5.66699 -133.666 -17 -246.999
s-17 -197.333 -17 -252zM689 1234c0 -16 2.49902 -39.668 7.49902 -71.001s7.5 -54.666 7.5 -69.999c0 -10.667 -13.333 -17.667 -40 -21c-18.667 -2.66699 -44.667 -3.66699 -78 -3c-51.333 2 -71.666 3 -60.999 3c-13.333 0 -33.333 -0.666992 -60 -2s-46.667 -2 -60 -2
c-24.667 0 -37 12.667 -37 38c0 14.667 0.666992 36 2 64s2 49.333 2 64c0 15.333 -0.833008 38.833 -2.5 70.5s-2.5 55.167 -2.5 70.5c0 23.333 9.66699 35 29 35c16.667 0 41.667 -1.33301 75 -4s58.333 -4 75 -4c13.333 0 33.5 0.5 60.5 1.5s47.167 1.5 60.5 1.5
c22.667 0 34 -7.33301 34 -22c0 -16.667 -2 -41.5 -6 -74.5s-6 -57.833 -6 -74.5zM193.999 1230c0 -16.667 2.00293 -40.833 6.00293 -72.5s6 -55.5 6 -71.5c0 -12.667 -9.66699 -19 -29 -19c-16.667 0 -41.5 0.833008 -74.5 2.5s-57.833 2.5 -74.5 2.5
c-14.667 0 -36.334 -1 -65.001 -3s-50.334 -3 -65.001 -3c-17.333 0 -26 8.33301 -26 25c0 14 1 35 3 63s3 49 3 63c0 18 -1.33301 44.833 -4 80.5s-4 62.5 -4 80.5c0 19.333 11 29 33 29c28.667 0 71.667 -0.5 129 -1.5s100.166 -1.5 128.499 -1.5s42.5 -9.33301 42.5 -28
c0 -16 -1.5 -40.333 -4.5 -73s-4.5 -57 -4.5 -73z" />
    <glyph glyph-name="eth" unicode="&#xf0;" horiz-adv-x="1208" 
d="M1145 1419c0 14.667 -2.66602 -7.33203 -7.99902 -65.999c-7.33301 -74 -13 -168.667 -17 -284c-5.33301 -130.667 -8 -279.334 -8 -446.001c0 -275.333 7.66699 -471.333 23 -588c1.33301 -12.667 2 -20.667 2 -24c0 -7.33301 -5 -11.666 -15 -12.999
c-24 -3.33301 -112.333 -5 -265 -5c-36 0 -56.667 7 -62 21l-4 76c-0.666992 5.33301 -3.33398 10.666 -8.00098 15.999c-4 -2 -9 -6 -15 -12c-72 -70.667 -162 -106 -270 -106c-140.667 0 -253.334 49.333 -338.001 148c-80.667 94 -121 212.667 -121 356
c0 145.333 39.667 265 119 359c84 100 197.333 150 340 150c100.667 0 179 -32 235 -96c9.33301 -10.667 16 -16 20 -16c6 0 9 8.66699 9 26c0 51.333 -1.33301 128 -4 230s-4 178.333 -4 229c0 19.333 5.33301 30.333 16 33c42.667 2 101.334 6 176.001 12
c133.333 16.667 192.333 25 177 25c14.667 0 22 -8.33301 22 -25zM768.001 500.001c0 52.667 -18.332 98.833 -54.999 138.5s-81 59.5 -133 59.5c-54.667 0 -98.167 -19.833 -130.5 -59.5s-48.5 -87.167 -48.5 -142.5c0 -54 16.333 -99.667 49 -137
c33.333 -40 76.666 -60 129.999 -60s98 20 134 60s54 87 54 141zM1229 1245c0 -10 -3.00098 -24 -9.00098 -42c-6.66699 -22 -10.667 -36 -12 -42c-2 -21.333 -6 -53.333 -12 -96c-1.33301 -6.66699 -8.66602 -10 -21.999 -10c-66 0 -165 -1.33301 -297 -4s-231 -4 -297 -4
c-15.333 0 -23 8.66699 -23 26c0 45.333 17 103.333 51 174c4 8.66699 13 13 27 13c64 0 159.833 1.33301 287.5 4s223.5 4 287.5 4c12.667 0 19 -7.66699 19 -23z" />
    <glyph glyph-name="ntilde" unicode="&#xf1;" horiz-adv-x="1161" 
d="M1079 29c0 -18 -9.33301 -28.335 -28 -31.002s-67.334 -4 -146.001 -4c-84 0 -136 2 -156 6s-30 17.667 -30 41c0 31.333 1 78.666 3 141.999s3 111 3 143c0 24.667 -0.666992 61.5 -2 110.5s-2 85.833 -2 110.5c0 91.333 -39.667 137 -119 137
c-26 0 -56.333 -11.333 -91 -34c-37.333 -25.333 -56 -50.333 -56 -75v-540c0 -22 -10.333 -34.333 -31 -37c-23.333 -2.66699 -71 -4 -143 -4c-78 0 -128.667 2 -152 6c-20.667 3.33301 -31 14.333 -31 33c0 52 0.333008 130.333 1 235s1 183.334 1 236.001
c0 166 -13 296.333 -39 391c-1.33301 6 -2 11 -2 15c0 10.667 5 18 15 22c42 4.66699 98 12 168 22c106 20.667 165.667 31 179 31c7.33301 0 13 -22.5 17 -67.5s9.66699 -67.5 17 -67.5c-7.33301 0 28.5 23.167 107.5 69.5s148.167 69.5 207.5 69.5
c84.667 0 155.334 -20 212.001 -60c63.333 -46 95 -110 95 -192v-319c0 -43.333 0.333008 -108.166 1 -194.499s1 -151.166 1 -194.499zM965 1219c-84 -94.667 -172.329 -142.001 -264.996 -142.001c-26 0 -58.833 13.833 -98.5 41.5s-72.167 41.5 -97.5 41.5
c-23.333 0 -47.666 -11.333 -72.999 -34s-42 -34 -50 -34c-18.667 6.66699 -47.334 28.667 -86.001 66s-58.334 64 -59.001 80c7.33301 28 41.666 60.333 102.999 97s108 55 140 55c28 0 64.667 -12.333 110 -37s81.666 -37 108.999 -37c23.333 0 50.666 11.667 81.999 35
s52 35 62 35s33.333 -23.667 70 -71s55 -76.666 55 -87.999z" />
    <glyph glyph-name="ograve" unicode="&#xf2;" horiz-adv-x="1083" 
d="M1047 492c0 -152 -46.5 -275.333 -139.5 -370s-215.167 -142 -366.5 -142c-146.667 0 -267.334 46.667 -362.001 140s-142 213.333 -142 360c0 154.667 45.333 280.167 136 376.5s213.334 144.5 368.001 144.5c150.667 0 272.667 -47.167 366 -141.5
s140 -216.833 140 -367.5zM719 492c0 52.667 -16.333 99.167 -49 139.5s-75 60.5 -127 60.5c-52.667 0 -96 -20.667 -130 -62c-32 -38.667 -48 -84.667 -48 -138c0 -54 16 -100.333 48 -139c34 -41.333 77.333 -62 130 -62c52 0 95 20.667 129 62
c31.333 38.667 47 85 47 139zM772 1086c0 -12.667 -7.33203 -18.998 -21.999 -18.998h-8c-86.667 8.66699 -185.334 35.667 -296.001 81c-115.333 48 -203 100.333 -263 157c-10 8.66699 -15 16 -15 22c0 5.33301 5 11.666 15 18.999l86 53c16 15.333 41 38 75 68
c4 3.33301 10 6.66602 18 9.99902l197 -139c80 -46 144.333 -79 193 -99c13.333 -5.33301 20 -12 20 -20c0 -7.33301 -1 -18.333 -3 -33s-3 -25.667 -3 -33s1 -18.5 3 -33.5s3 -26.167 3 -33.5z" />
    <glyph glyph-name="oacute" unicode="&#xf3;" horiz-adv-x="1083" 
d="M1047 492c0 -152 -46.5 -275.333 -139.5 -370s-215.167 -142 -366.5 -142c-146.667 0 -267.334 46.667 -362.001 140s-142 213.333 -142 360c0 154.667 45.333 280.167 136 376.5s213.334 144.5 368.001 144.5c150.667 0 272.667 -47.167 366 -141.5
s140 -216.833 140 -367.5zM719 492c0 52.667 -16.333 99.167 -49 139.5s-75 60.5 -127 60.5c-52.667 0 -96 -20.667 -130 -62c-32 -38.667 -48 -84.667 -48 -138c0 -54 16 -100.333 48 -139c34 -41.333 77.333 -62 130 -62c52 0 95 20.667 129 62
c31.333 38.667 47 85 47 139zM333 1071c-12.667 -0.666992 -19.001 6.33496 -19.001 21.002c0 5.33301 0.666992 13.666 2 24.999s2 20 2 26c0 8 -1.16699 20.333 -3.5 37s-3.5 29 -3.5 37c0 9.33301 7 16.666 21 21.999c32.667 12.667 96 45.667 190 99l185 131
c4 3.33301 10.667 6.66602 20 9.99902c4.66699 -1.33301 10.334 -4.66602 17.001 -9.99902c15.333 -16 39.666 -38.667 72.999 -68c18.667 -10.667 46 -27.667 82 -51c10.667 -7.33301 16 -14 16 -20c0 -5.33301 -4.66699 -12.333 -14 -21
c-58.667 -55.333 -146.667 -107.833 -264 -157.5s-215.666 -76.5 -294.999 -80.5h-9z" />
    <glyph glyph-name="ocircumflex" unicode="&#xf4;" horiz-adv-x="1083" 
d="M1047 492c0 -152 -46.5 -275.333 -139.5 -370s-215.167 -142 -366.5 -142c-146.667 0 -267.334 46.667 -362.001 140s-142 213.333 -142 360c0 154.667 45.333 280.167 136 376.5s213.334 144.5 368.001 144.5c150.667 0 272.667 -47.167 366 -141.5
s140 -216.833 140 -367.5zM719 492c0 52.667 -16.333 99.167 -49 139.5s-75 60.5 -127 60.5c-52.667 0 -96 -20.667 -130 -62c-32 -38.667 -48 -84.667 -48 -138c0 -54 16 -100.333 48 -139c34 -41.333 77.333 -62 130 -62c52 0 95 20.667 129 62
c31.333 38.667 47 85 47 139zM730 1067c-34 0 -101.999 62.001 -203.999 186.001l-8 -6c-12 -28 -38.333 -63.333 -79 -106c-45.333 -46.667 -80.333 -70 -105 -70c-0.666992 0 -30.334 11 -89.001 33c-45.333 17.333 -68 27.666 -68 30.999s3.66699 9.33301 11 18l128 144
c52.667 63.333 87 117 103 161c4.66699 12.667 13 19 25 19h174c11.333 0 19 -6.33301 23 -19c14 -44 43.333 -93 88 -147l161 -176c-1.33301 -2 -27 -13.833 -77 -35.5s-77.667 -32.5 -83 -32.5z" />
    <glyph glyph-name="otilde" unicode="&#xf5;" horiz-adv-x="1083" 
d="M1047 492c0 -152 -46.5 -275.333 -139.5 -370s-215.167 -142 -366.5 -142c-146.667 0 -267.334 46.667 -362.001 140s-142 213.333 -142 360c0 154.667 45.333 280.167 136 376.5s213.334 144.5 368.001 144.5c150.667 0 272.667 -47.167 366 -141.5
s140 -216.833 140 -367.5zM719 492c0 52.667 -16.333 99.167 -49 139.5s-75 60.5 -127 60.5c-52.667 0 -96 -20.667 -130 -62c-32 -38.667 -48 -84.667 -48 -138c0 -54 16 -100.333 48 -139c34 -41.333 77.333 -62 130 -62c52 0 95 20.667 129 62
c31.333 38.667 47 85 47 139zM908 1219c-84 -94.667 -172.329 -142.001 -264.996 -142.001c-26 0 -58.833 13.833 -98.5 41.5s-72.167 41.5 -97.5 41.5c-23.333 0 -47.666 -11.333 -72.999 -34s-42 -34 -50 -34c-18.667 6.66699 -47.334 28.667 -86.001 66
s-58.334 64 -59.001 80c7.33301 28 41.666 60.333 102.999 97s108 55 140 55c28 0 64.667 -12.333 110 -37s81.666 -37 108.999 -37c23.333 0 50.666 11.667 81.999 35s52 35 62 35s33.333 -23.667 70 -71s55 -76.666 55 -87.999z" />
    <glyph glyph-name="odieresis" unicode="&#xf6;" horiz-adv-x="1083" 
d="M1047 492c0 -152 -46.5 -275.333 -139.5 -370s-215.167 -142 -366.5 -142c-146.667 0 -267.334 46.667 -362.001 140s-142 213.333 -142 360c0 154.667 45.333 280.167 136 376.5s213.334 144.5 368.001 144.5c150.667 0 272.667 -47.167 366 -141.5
s140 -216.833 140 -367.5zM719 492c0 52.667 -16.333 99.167 -49 139.5s-75 60.5 -127 60.5c-52.667 0 -96 -20.667 -130 -62c-32 -38.667 -48 -84.667 -48 -138c0 -54 16 -100.333 48 -139c34 -41.333 77.333 -62 130 -62c52 0 95 20.667 129 62
c31.333 38.667 47 85 47 139zM936 1246c0 -16 2.49902 -39.668 7.49902 -71.001s7.5 -54.666 7.5 -69.999c0 -10.667 -13.333 -17.667 -40 -21c-18.667 -2.66699 -44.667 -3.66699 -78 -3c-51.333 2 -71.666 3 -60.999 3c-13.333 0 -33.333 -0.666992 -60 -2
s-46.667 -2 -60 -2c-24.667 0 -37 12.667 -37 38c0 14.667 0.666992 36 2 64s2 49.333 2 64c0 15.333 -0.833008 38.833 -2.5 70.5s-2.5 55.167 -2.5 70.5c0 23.333 9.66699 35 29 35c16.667 0 41.667 -1.33301 75 -4s58.333 -4 75 -4c13.333 0 33.5 0.5 60.5 1.5
s47.167 1.5 60.5 1.5c22.667 0 34 -7.33301 34 -22c0 -16.667 -2 -41.5 -6 -74.5s-6 -57.833 -6 -74.5zM440.999 1242c0 -16.667 2.00293 -40.833 6.00293 -72.5s6 -55.5 6 -71.5c0 -12.667 -9.66699 -19 -29 -19c-16.667 0 -41.5 0.833008 -74.5 2.5s-57.833 2.5 -74.5 2.5
c-14.667 0 -36.334 -1 -65.001 -3s-50.334 -3 -65.001 -3c-17.333 0 -26 8.33301 -26 25c0 14 1 35 3 63s3 49 3 63c0 18 -1.33301 44.833 -4 80.5s-4 62.5 -4 80.5c0 19.333 11 29 33 29c28.667 0 71.667 -0.5 129 -1.5s100.166 -1.5 128.499 -1.5s42.5 -9.33301 42.5 -28
c0 -16 -1.5 -40.333 -4.5 -73s-4.5 -57 -4.5 -73z" />
    <glyph glyph-name="divide" unicode="&#xf7;" horiz-adv-x="838" 
d="M523 944c0 -29.333 -10.167 -54.5 -30.5 -75.5s-45.166 -31.5 -74.499 -31.5c-28.667 0 -53.167 10.5 -73.5 31.5s-30.5 46.167 -30.5 75.5s10.167 54.333 30.5 75s44.833 31 73.5 31c29.333 0 54.166 -10.333 74.499 -31s30.5 -45.667 30.5 -75zM768 625h-698v126h698
v-126zM523 430c0 -29.333 -10.167 -54.333 -30.5 -75s-45.166 -31 -74.499 -31c-28.667 0 -53.167 10.333 -73.5 31s-30.5 45.667 -30.5 75s10.167 54.5 30.5 75.5s44.833 31.5 73.5 31.5c29.333 0 54.166 -10.5 74.499 -31.5s30.5 -46.167 30.5 -75.5z" />
    <glyph glyph-name="oslash" unicode="&#xf8;" horiz-adv-x="1083" 
d="M1047 492c0 -152 -46.5 -275.333 -139.5 -370s-215.167 -142 -366.5 -142c-146.667 0 -267.334 46.667 -362.001 140s-142 213.333 -142 360c0 154.667 45.333 280.167 136 376.5s213.334 144.5 368.001 144.5c150.667 0 272.667 -47.167 366 -141.5
s140 -216.833 140 -367.5zM719 492c0 52.667 -16.333 99.167 -49 139.5s-75 60.5 -127 60.5c-52.667 0 -96 -20.667 -130 -62c-32 -38.667 -48 -84.667 -48 -138c0 -54 16 -100.333 48 -139c34 -41.333 77.333 -62 130 -62c52 0 95 20.667 129 62
c31.333 38.667 47 85 47 139zM1024 948c0 -8.66699 -7.66797 -21.002 -23.001 -37.002l-183 -203l-662 -718c-5.33301 -5.33301 -14 -10.666 -26 -15.999c-5.33301 1.33301 -19.166 15 -41.499 41s-33.5 41.333 -33.5 46c0 6.66699 8.33301 17.667 25 33
c30 28.667 108.333 112.334 235 251.001l414 457c43.333 51.333 110.333 126 201 224c4 4.66699 11 9.66699 21 15c10 -3.33301 24.667 -17 44 -41s29 -41.333 29 -52z" />
    <glyph glyph-name="ugrave" unicode="&#xf9;" horiz-adv-x="1194" 
d="M1114 909c0 -49.333 -2.33105 -123.333 -6.99805 -222s-7 -172.667 -7 -222c0 -48 1.66699 -120 5 -216s5 -167.667 5 -215c0 -18 -8.33301 -29.333 -25 -34c-25.333 -6.66699 -79 -10 -161 -10c-72.667 0 -123.334 2 -152.001 6c-12.667 2 -20.667 10 -24 24l-6 60
c-3.33301 30.667 -8 46 -14 46c9.33301 0 -24.334 -22.667 -101.001 -68s-146.334 -68 -209.001 -68c-176.667 0 -281.334 79.667 -314.001 239c-14.667 74 -22 181.333 -22 322c0 152 12.333 272 37 360c7.33301 27.333 21 41 41 41c30.667 0 77.334 -0.333008 140.001 -1
s109.334 -1 140.001 -1c20.667 0 31 -8.66699 31 -26c0 -4.66699 -0.666992 -11.667 -2 -21c-14 -90.667 -21 -182.667 -21 -276c0 -116 3.66699 -195.333 11 -238c12 -73.333 55.667 -110 131 -110c29.333 0 61.166 13 95.499 39s52.166 53 53.499 81
c1.33301 24.667 2 192 2 502c0 22 1.66699 35 5 39c4 6.66699 16 10 36 10c32.667 0 81.834 -0.333008 147.501 -1s114.834 -1 147.501 -1c20 0 31.667 -5 35 -15c1.33301 -5.33301 2 -13.333 2 -24zM856.002 1082c0 -12.667 -7.33203 -18.998 -21.999 -18.998h-8
c-86.667 8.66699 -185.334 35.667 -296.001 81c-115.333 48 -203 100.333 -263 157c-10 8.66699 -15 16 -15 22c0 5.33301 5 11.666 15 18.999l86 53c16 15.333 41 38 75 68c4 3.33301 10 6.66602 18 9.99902l197 -139c80 -46 144.333 -79 193 -99
c13.333 -5.33301 20 -12 20 -20c0 -7.33301 -1 -18.333 -3 -33s-3 -25.667 -3 -33s1 -18.5 3 -33.5s3 -26.167 3 -33.5z" />
    </font>
</defs>
</svg>
